<svg width="1277" height="175" viewBox="0 0 1277 175" fill="none" xmlns="http://www.w3.org/2000/svg">
<path d="M1295 111.129C1290.68 109.075 1288.92 112.042 1286.22 113.525C1282.44 121.627 1280.68 123.68 1276.22 126.191C1271.77 128.701 1268.79 130.755 1264.2 128.815C1259.61 126.875 1260.82 130.869 1257.99 126.419C1254.07 129.386 1247.05 130.869 1243.13 126.305C1236.51 124.251 1229.89 130.983 1223.14 126.305C1215.98 124.707 1211.39 126.533 1205.04 122.311C1201.39 118.204 1197.61 117.291 1193.42 120.257C1188.56 110.901 1183.69 119.573 1178.7 117.747C1173.7 115.921 1168.03 112.955 1162.76 117.519C1157.57 118.089 1152.51 119.32 1147.76 121.17C1143.85 117.861 1140.2 119.116 1136.01 126.191C1133.85 125.278 1132.5 124.479 1130.2 126.647C1125.75 127.788 1121.96 132.809 1117.37 132.124C1112.78 131.439 1112.78 134.977 1110.08 133.836C1102.78 135.091 1095.08 124.479 1087.65 133.836C1081.85 125.734 1076.04 139.084 1070.23 133.722C1064.42 136.802 1058.61 137.601 1052.8 134.406C1046.99 131.211 1041.46 137.373 1035.65 135.319C1029.97 131.211 1024.17 134.863 1018.49 136.574C1012.41 141.823 1005.66 140.34 1000.26 141.138C994.854 141.937 992.288 140.682 987.29 144.105C982.292 147.528 981.076 145.702 977.834 146.387C974.592 147.072 971.485 140.34 968.649 147.528C965.947 149.81 964.731 152.891 962.435 151.408C954.195 155.173 944.47 158.14 935.014 155.173C929.341 151.408 923.667 150.495 917.994 155.173C912.996 155.173 908.809 153.233 904.486 153.918C901.92 150.152 901.109 149.354 898.813 150.152C893.95 149.696 885.44 151.293 879.632 144.79C875.039 146.615 870.851 148.669 865.853 139.997C862.882 136.004 859.64 140.796 856.533 140.111C853.561 142.165 850.589 138.628 847.618 140.111C845.321 138.057 843.025 144.561 840.864 140.111C835.461 139.655 827.896 138.856 822.628 140.225C820.197 139.313 819.521 142.279 817.63 143.649C815.469 142.622 813.848 146.045 811.281 145.474C805.203 140.34 799.53 146.843 793.316 148.897C783.59 147.984 773.729 146.958 764.004 148.897C758.195 148.327 753.197 148.669 747.389 146.387C738.069 143.877 729.423 147.3 719.698 143.877C715.51 144.219 710.783 142.736 706.595 143.763C704.839 142.736 703.488 142.85 701.732 145.018C699.976 147.186 694.303 149.696 690.656 145.018C685.793 143.42 681.47 144.561 677.148 147.756C674.041 146.501 672.42 149.354 669.583 152.777C666.747 156.2 660.803 152.777 656.751 153.918C652.023 162.133 647.16 156.542 642.433 153.804C637.705 151.065 631.626 155.858 626.628 156.542C621.63 161.677 616.767 158.938 611.364 160.536C605.826 164.644 600.018 166.697 594.074 161.791C588.131 156.885 582.457 165.1 576.784 161.449C568.814 160.65 560.034 162.133 552.065 161.563C544.095 160.992 536.801 153.233 529.506 151.75C521.402 147.528 509.785 148.441 500.87 150.152C493.98 144.333 487.227 147.528 480.878 153.69C480.473 151.522 478.852 150.609 478.311 154.032C476.555 152.549 475.34 149.126 473.313 158.254C470.612 165.556 466.154 159.395 462.912 162.476C459.265 159.509 454.402 158.368 450.62 162.704C443.731 166.241 437.788 165.328 430.628 166.583C426.036 168.409 421.308 163.274 416.715 167.04C412.122 170.805 405.909 166.926 400.776 170.691C397.669 169.664 395.238 171.262 391.861 171.604C385.917 172.403 378.623 176.054 372.679 171.604C364.034 170.691 358.901 160.65 349.851 161.449C344.718 161.106 339.72 158.596 334.857 159.509C329.994 158.368 325.267 162.59 320.269 163.617C315.271 164.644 309.327 167.154 303.654 165.442C297.981 163.731 292.307 167.724 286.769 165.328C281.231 162.932 274.072 160.764 267.453 162.704C260.834 164.644 249.622 158.938 241.517 163.959C237.465 164.758 233.683 163.959 229.766 166.926C224.227 167.154 217.068 169.55 211.26 170.349C206.262 176.738 201.534 175.94 196.536 171.604C190.458 174.799 186.27 170.006 181.272 167.496C173.438 160.308 165.603 154.945 155.607 157.683C152.5 159.281 145.071 158.254 138.182 157.455C131.428 152.891 125.349 154.146 125.079 161.449C122.243 167.04 119.811 164.986 116.839 158.824C111.99 158.349 107.089 158.387 102.251 158.938C95.6319 157.683 87.257 160.878 80.9083 159.167C79.5575 161.791 77.8015 158.368 75.9104 161.22C73.614 160.422 71.1826 167.724 68.7512 161.791C63.4831 162.361 59.971 163.502 56.3239 158.368C54.4328 154.945 54.1626 155.287 51.7312 152.434C49.1647 152.549 45.7877 147.984 43.0861 146.387C37.0076 137.031 24.8504 141.823 20.5279 149.24C17.9614 147.528 15.665 147.87 11.8828 154.831C9.31632 153.005 7.15505 162.932 3.77807 159.052C-0.274302 163.046 -5.67747 157.569 -10 158.938V13.0002H1282.84L1286.08 38.4453C1286.9 45.7479 1287.98 54.0774 1288.92 62.2929C1289.87 70.5083 1290.95 79.0661 1291.89 85.6841C1292.84 94.3559 1293.65 100.403 1294.19 105.424C1294.73 110.444 1295 113.982 1295 111.129Z" fill="#040404"/>
<path d="M1296.32 96.5479C1292 91.5451 1290.24 93.1676 1287.53 98.9817C1283.75 101.821 1281.86 109.258 1277.53 111.151C1274.15 116.559 1270.09 116.154 1265.49 113.855C1262.11 116.559 1262.11 116.559 1259.27 111.556C1255.35 113.449 1248.32 106.418 1244.4 111.286C1237.78 114.396 1231.15 105.877 1224.39 111.286C1217.22 110.475 1212.63 108.311 1206.27 107.5C1202.62 99.793 1198.7 104.12 1194.64 105.472C1190.58 106.824 1184.91 105.337 1179.77 103.038C1174.63 118.046 1169.22 97.7648 1163.95 102.768C1158.83 103.622 1153.77 104.796 1148.8 106.283C1144.88 110.204 1141.23 110.204 1137.04 111.286C1135.01 110.88 1133.66 100.875 1131.36 111.692C1126.9 110.88 1123.11 119.399 1118.51 116.965C1115.81 120.751 1113.92 120.615 1111.21 118.723C1103.91 121.427 1096.2 120.615 1088.77 118.723C1081.33 116.83 1077.14 113.99 1071.32 118.587C1065.51 116.694 1059.7 114.125 1053.88 119.263C1048.2 120.345 1042.39 116.289 1036.71 120.21C1031.03 124.131 1025.22 122.103 1019.54 121.292C1013.45 113.449 1006.69 123.185 1001.28 125.754C996.955 125.483 993.304 131.432 988.301 128.728C984.921 131.568 982.081 128.052 978.836 131.027C975.591 134.001 972.481 129.945 969.642 132.108C966.802 134.272 965.72 134.677 963.422 135.759C955.173 137.652 945.438 141.168 935.973 139.545C930.294 136.03 924.615 139.41 918.936 139.545C913.256 139.68 909.741 127.782 905.414 138.328C902.845 131.973 902.033 132.785 899.735 134.542C894.867 133.325 886.348 131.973 880.534 129.269C875.937 129.81 871.745 125.754 866.742 124.672C863.767 129.675 860.522 126.97 857.412 124.807C854.437 128.863 851.463 122.238 848.488 124.807C846.189 124.131 843.891 119.534 841.592 124.807C836.318 126.565 828.746 124.537 823.473 124.942C821.039 127.241 820.363 125.077 818.47 128.187C816.306 126.97 814.684 132.244 812.115 129.945C806.03 134.001 800.351 136.3 794.131 133.325C784.395 129.269 774.525 135.354 764.789 133.325C758.84 126.024 753.972 127.106 748.157 130.892C738.827 135.218 730.174 129.945 720.438 128.458C716.246 123.59 711.514 124.942 707.322 128.458C705.564 127.511 704.077 134.272 702.454 129.539C698.803 131.838 695.017 134.813 691.367 129.675C686.364 132.92 682.172 132.108 677.845 132.244C674.735 129.675 673.112 134.272 670.273 137.111C666.757 136.57 661.349 137.382 657.427 138.328C652.695 135.489 647.827 137.246 643.094 138.193C637.28 134.677 632.277 139.139 627.274 140.762C622.271 144.953 617.403 139.275 611.995 144.683C606.451 147.793 600.637 144.683 594.687 145.9C588.873 144.548 583.058 145.9 577.379 145.63C569.402 144.818 560.613 153.877 552.635 145.63C543.981 149.415 537.355 131.432 529.918 136.03C521.941 128.052 510.312 129.404 501.388 134.542C494.357 134.001 487.731 132.379 481.376 137.923C480.97 139.951 479.348 134.813 478.807 138.463C478.266 142.114 475.832 138.734 473.804 142.52C471.099 142.925 466.502 140.221 463.392 146.576C459.741 149.01 454.873 148.063 451.087 146.711C444.056 143.737 438.242 153.877 431.075 150.632C426.478 147.387 421.745 148.469 417.148 151.038C411.875 150.903 406.331 148.604 401.193 154.554C398.083 152.525 395.649 158.475 392.268 155.365C386.184 155.906 379.017 156.446 373.068 155.5C364.414 155.5 359.276 150.092 350.081 145.494C339.94 146.17 330.474 146.306 320.604 147.793C315.33 146.306 309.651 145.63 303.972 149.551C298.293 153.472 292.614 144.413 287.07 149.415C280.58 146.17 274.36 146.846 267.734 146.846C261.109 146.846 249.75 144.142 241.637 148.063C237.716 153.201 233.93 150.903 230.009 150.903C226.088 150.903 217.163 149.28 211.484 154.283C206.837 156.291 201.659 156.719 196.746 155.5C190.661 160.908 186.469 152.255 181.466 151.444C173.624 142.925 165.781 145.765 155.775 141.844C152.665 141.303 145.228 146.711 138.332 141.708C131.571 142.79 125.487 142.79 125.216 145.494C122.377 149.28 119.943 141.303 116.968 143.061C113.993 144.818 107.097 140.627 102.365 143.196C95.258 142.497 88.0978 142.542 81.0005 143.331C79.5131 153.201 77.8905 142.52 75.9975 145.359C74.1045 148.199 71.265 153.472 68.8311 145.9C63.5576 146.441 60.042 146.982 56.3912 142.52C54.4981 134.407 54.2277 138.599 51.7938 136.841C49.2247 141.979 45.8443 134.272 43.14 130.892C37.0552 128.458 24.8858 127.241 20.5589 133.596C17.9898 137.111 15.5559 135.354 11.905 139.139C8.25419 142.925 7.17246 141.303 3.79205 143.196C0.411646 145.089 -5.67308 146.711 -10 143.196L-9.5 6.6923e-05H103H160H226.897H299.5H379H462.5H549.5H637.5H725.287H811.5L895.5 0H974.5H1047.5C1047.5 0 1093.31 0 1114 0C1134.69 0 1171.5 0 1171.5 0H1284C1284 0 1285.51 11.6352 1287.4 25.8324C1288.21 32.1873 1289.29 39.8944 1290.24 48.0071C1291.19 56.1197 1292.27 63.6915 1293.21 71.8042C1294.97 82.0803 1296.32 98.3056 1296.32 96.5479Z" fill="#AD3F3F"/>
</svg>
