<svg width="790" height="494" viewBox="0 0 790 494" fill="none" xmlns="http://www.w3.org/2000/svg">
<g filter="url(#filter0_d_30_6214)">
<rect x="20" y="20" width="744" height="448" rx="20" fill="#CB5151"/>
</g>
<g clip-path="url(#clip0_30_6214)">
<path d="M661.962 467.965C709.437 467.965 747.923 464.169 747.923 459.486C747.923 454.802 709.437 451.006 661.962 451.006C614.486 451.006 576 454.802 576 459.486C576 464.169 614.486 467.965 661.962 467.965Z" fill="white" fill-opacity="0.22"/>
<path d="M686.401 355.831L668.006 176.925L661.962 173.34L655.885 176.925L637.523 355.831L626.12 390.371V429.082H661.962H697.771V390.371L686.401 355.831Z" fill="white" fill-opacity="0.22"/>
<path d="M661.962 173.34V429.082H697.771V390.371L686.401 355.831L668.006 176.925L661.962 173.34Z" fill="white" fill-opacity="0.22"/>
<path d="M661.929 364.897L582.012 378.409C582.012 387.062 593.349 388.165 593.349 388.165H730.541C730.541 388.165 741.879 387.062 741.879 378.409L661.929 364.897Z" fill="white" fill-opacity="0.22"/>
<path d="M661.929 364.897V388.165H730.541C730.541 388.165 741.879 387.062 741.879 378.409L661.929 364.897Z" fill="white" fill-opacity="0.22"/>
<path d="M738.742 373.549V371.343C720.903 354.935 689.635 354.728 689.635 354.728L683.134 356.934C671.371 356.934 661.929 350.074 661.929 350.074C661.929 350.074 652.487 356.934 640.757 356.934L634.255 354.728C634.255 354.728 602.988 354.935 585.148 371.343V373.549H577.405V378.41H582.012L585.998 382.167C585.998 382.167 607.595 389.268 630.465 382.167C653.336 375.066 646.41 370.653 661.929 370.653C677.449 370.653 670.555 375.1 693.426 382.167C716.296 389.233 737.893 382.167 737.893 382.167L741.879 378.41H746.486V373.549H738.742Z" fill="white" fill-opacity="0.22"/>
<path d="M661.929 350.074C661.929 350.074 671.371 356.934 683.133 356.934L689.635 354.728C689.635 354.728 720.903 354.935 738.742 371.343V373.549H746.486V378.41H741.879L737.893 382.167C737.893 382.167 716.296 389.268 693.425 382.167C670.555 375.066 677.481 370.653 661.929 370.653V350.074Z" fill="white" fill-opacity="0.22"/>
<path d="M661.929 388.165H595.146V390.44H596.551V394.266H601.452V390.302H624.682V392.37L626.904 394.266H629.158V390.13H657.257C657.257 390.13 658.237 393.094 661.929 393.094C665.621 393.094 666.634 390.13 666.634 390.13H694.732V394.266H696.987L699.209 392.37V390.302H722.439V394.266H727.34V390.44H728.745V388.165H661.929Z" fill="white" fill-opacity="0.22"/>
<path d="M661.929 388.165H728.744V390.44H727.34V394.266H722.439V390.302H699.208V392.37L696.987 394.266H694.732V390.13H666.634C666.634 390.13 665.654 393.094 661.929 393.094V388.165Z" fill="white" fill-opacity="0.22"/>
<path d="M661.929 328.84L604.164 338.595C604.164 344.869 612.365 345.662 612.365 345.662H711.526C711.526 345.662 719.727 344.869 719.727 338.595L661.929 328.84Z" fill="white" fill-opacity="0.22"/>
<path d="M661.929 328.84V345.662H711.526C711.526 345.662 719.727 344.869 719.727 338.595L661.929 328.84Z" fill="white" fill-opacity="0.22"/>
<path d="M717.44 335.079V333.494C704.567 321.635 681.957 321.498 681.957 321.498L677.253 323.083C668.758 323.083 661.929 318.119 661.929 318.119C661.929 318.119 655.133 323.083 646.638 323.083L641.933 321.498C641.933 321.498 619.324 321.635 606.451 333.494V335.079H600.831V338.595H604.164L607.039 341.318C607.039 341.318 622.657 346.455 639.189 341.318C655.721 336.182 650.722 333.011 661.929 333.011C673.136 333.011 668.17 336.217 684.702 341.318C701.234 346.42 716.852 341.318 716.852 341.318L719.727 338.595H723.06V335.079H717.44Z" fill="white" fill-opacity="0.22"/>
<path d="M661.929 318.119C661.929 318.119 668.758 323.083 677.252 323.083L681.957 321.498C681.957 321.498 704.567 321.635 717.44 333.494V335.079H723.059V338.595H719.727L716.852 341.318C716.852 341.318 701.234 346.455 684.702 341.318C668.169 336.182 673.168 333.011 661.929 333.011V318.119Z" fill="white" fill-opacity="0.22"/>
<path d="M661.929 345.662H613.672V347.316H614.684V350.074H618.213V347.213H635.007V348.695L636.608 350.074H638.241V347.11H658.564C658.564 347.11 659.25 349.212 661.929 349.212C664.608 349.212 665.327 347.11 665.327 347.11H685.649V350.074H687.283L688.884 348.695V347.213H705.678V350.074H709.206V347.316H710.219V345.662H661.929Z" fill="white" fill-opacity="0.22"/>
<path d="M661.929 345.662H710.219V347.316H709.206V350.074H705.678V347.213H688.884V348.695L687.283 350.074H685.649V347.11H665.327C665.327 347.11 664.608 349.212 661.929 349.212V345.662Z" fill="white" fill-opacity="0.22"/>
<path d="M661.929 298.574L612.169 306.985C612.169 312.363 619.226 313.052 619.226 313.052H704.665C704.665 313.052 711.722 312.363 711.722 306.985L661.929 298.574Z" fill="white" fill-opacity="0.22"/>
<path d="M661.929 298.574V313.052H704.665C704.665 313.052 711.722 312.363 711.722 306.985L661.929 298.574Z" fill="white" fill-opacity="0.22"/>
<path d="M709.762 303.952V302.573C698.653 292.404 679.18 292.266 679.18 292.266L675.129 293.645C667.81 293.645 661.929 289.37 661.929 289.37C661.929 289.37 656.081 293.645 648.762 293.645L644.711 292.266C644.711 292.266 625.238 292.404 614.129 302.573V303.952H609.293V306.985H612.169L614.652 309.329C614.652 309.329 628.113 313.741 642.358 309.329C656.603 304.917 652.291 302.159 661.929 302.159C671.567 302.159 667.287 304.917 681.533 309.329C695.778 313.741 709.239 309.329 709.239 309.329L711.722 306.985H714.597V303.952H709.762Z" fill="white" fill-opacity="0.22"/>
<path d="M661.929 289.37C661.929 289.37 667.81 293.645 675.129 293.645L679.18 292.266C679.18 292.266 698.653 292.404 709.762 302.573V303.952H714.597V306.985H711.722L709.239 309.329C709.239 309.329 695.778 313.741 681.533 309.329C667.287 304.917 671.6 302.159 661.929 302.159V289.37Z" fill="white" fill-opacity="0.22"/>
<path d="M661.929 313.052H620.369V314.5H621.219V316.878H624.29V314.396H638.731V315.672L640.136 316.878H641.509V314.293H659.021C659.021 314.293 659.642 316.154 661.929 316.154C664.216 316.154 664.869 314.293 664.869 314.293H682.382V316.878H683.754L685.159 315.672V314.396H699.601V316.878H702.672V314.5H703.521V313.052H661.929Z" fill="white" fill-opacity="0.22"/>
<path d="M661.929 313.052H703.521V314.5H702.672V316.878H699.601V314.396H685.159V315.672L683.754 316.878H682.382V314.293H664.869C664.869 314.293 664.249 316.154 661.929 316.154V313.052Z" fill="white" fill-opacity="0.22"/>
<path d="M661.929 272.962L619.062 280.201C619.062 284.82 625.14 285.406 625.14 285.406H698.751C698.751 285.406 704.828 284.82 704.828 280.201L661.929 272.962Z" fill="white" fill-opacity="0.22"/>
<path d="M661.929 272.962V285.406H698.751C698.751 285.406 704.828 284.82 704.828 280.201L661.929 272.962Z" fill="white" fill-opacity="0.22"/>
<path d="M703.129 277.581V276.409C693.556 267.619 676.795 267.481 676.795 267.481L673.299 268.688C666.993 268.688 661.929 264.999 661.929 264.999C661.929 264.999 656.865 268.688 650.592 268.688L647.096 267.481C647.096 267.481 630.335 267.619 620.761 276.409V277.581H616.579V280.201H619.062L621.219 282.2C621.219 282.2 632.785 286.027 645.07 282.2C657.355 278.374 653.63 276.03 661.929 276.03C670.228 276.03 666.568 278.409 678.821 282.2C691.073 285.992 702.672 282.2 702.672 282.2L704.828 280.201H707.311V277.581H703.129Z" fill="white" fill-opacity="0.22"/>
<path d="M661.929 264.999C661.929 264.999 666.993 268.688 673.299 268.688L676.795 267.481C676.795 267.481 693.556 267.619 703.129 276.409V277.581H707.311V280.201H704.828L702.672 282.2C702.672 282.2 691.106 286.027 678.821 282.2C666.536 278.374 670.26 276.03 661.929 276.03V264.999Z" fill="white" fill-opacity="0.22"/>
<path d="M661.929 285.406H626.12V286.647H626.871V288.715H629.485V286.578H641.933V287.681L643.142 288.715H644.351V286.475H659.446C659.446 286.475 659.969 288.061 661.929 288.061C663.889 288.061 664.445 286.475 664.445 286.475H679.54V288.715H680.748L681.925 287.681V286.578H694.406V288.715H697.019V286.647H697.771V285.406H661.929Z" fill="white" fill-opacity="0.22"/>
<path d="M661.929 285.406H697.771V286.647H697.019V288.715H694.406V286.578H681.925V287.681L680.748 288.715H679.54V286.475H664.445C664.445 286.475 663.922 288.061 661.929 288.061V285.406Z" fill="white" fill-opacity="0.22"/>
<path d="M661.929 251.038L625.009 257.278C625.009 261.276 630.237 261.793 630.237 261.793H693.654C693.654 261.793 698.882 261.276 698.882 257.278L661.929 251.038Z" fill="white" fill-opacity="0.22"/>
<path d="M661.929 251.038V261.793H693.654C693.654 261.793 698.882 261.276 698.882 257.278L661.929 251.038Z" fill="white" fill-opacity="0.22"/>
<path d="M697.411 255.037V254.003C689.178 246.419 674.737 246.316 674.737 246.316L671.731 247.35C666.307 247.35 661.929 244.179 661.929 244.179C661.929 244.179 657.584 247.35 652.16 247.35L649.154 246.316C649.154 246.316 634.713 246.419 626.447 254.003V255.037H622.885V257.278H625.009L626.839 259.001C626.839 259.001 636.836 262.276 647.39 259.001C657.943 255.727 654.774 253.693 661.929 253.693C669.084 253.693 665.915 255.727 676.501 259.001C687.087 262.276 697.052 259.001 697.052 259.001L698.882 257.278H701.005V255.037H697.411Z" fill="white" fill-opacity="0.22"/>
<path d="M661.929 244.179C661.929 244.179 666.307 247.35 671.731 247.35L674.737 246.316C674.737 246.316 689.178 246.419 697.411 254.003V255.037H701.005V257.278H698.882L697.052 259.001C697.052 259.001 687.054 262.276 676.501 259.001C665.948 255.727 669.117 253.693 661.929 253.693V244.179Z" fill="white" fill-opacity="0.22"/>
<path d="M661.929 261.793H631.086V262.828H631.739V264.62H633.994V262.759H644.71V263.724L645.756 264.62H646.801V262.69H659.772C659.772 262.69 660.23 264.069 661.929 264.069C663.628 264.069 664.118 262.69 664.118 262.69H677.089V264.62H678.135L679.18 263.724V262.759H689.897V264.62H692.151V262.828H692.805V261.793H661.929Z" fill="white" fill-opacity="0.22"/>
<path d="M661.929 261.793H692.805V262.828H692.151V264.62H689.897V262.759H679.18V263.724L678.135 264.62H677.089V262.69H664.118C664.118 262.69 663.661 264.069 661.929 264.069V261.793Z" fill="white" fill-opacity="0.22"/>
<path d="M661.929 232.562L630.825 237.801C630.825 241.18 635.236 241.593 635.236 241.593H688.655C688.655 241.593 693.066 241.18 693.066 237.801L661.929 232.562Z" fill="white" fill-opacity="0.22"/>
<path d="M661.929 232.562V241.593H688.655C688.655 241.593 693.066 241.18 693.066 237.801L661.929 232.562Z" fill="white" fill-opacity="0.22"/>
<path d="M691.857 235.906V235.044C684.898 228.667 672.744 228.598 672.744 228.598L670.195 229.459C665.621 229.459 661.929 226.771 661.929 226.771C661.929 226.771 658.27 229.459 653.695 229.459L651.147 228.598C651.147 228.598 638.993 228.667 632.033 235.044V235.906H629.028V237.802H630.825L632.36 239.284C632.36 239.284 640.79 242.041 649.677 239.284C658.564 236.526 655.884 234.803 661.929 234.803C667.973 234.803 665.294 236.526 674.214 239.284C683.133 242.041 691.53 239.284 691.53 239.284L693.066 237.802H694.863V235.906H691.857Z" fill="white" fill-opacity="0.22"/>
<path d="M661.929 226.771C661.929 226.771 665.621 229.459 670.195 229.459L672.744 228.598C672.744 228.598 684.898 228.667 691.857 235.044V235.906H694.863V237.802H693.066L691.53 239.284C691.53 239.284 683.101 242.041 674.214 239.284C665.327 236.526 668.006 234.803 661.929 234.803V226.771Z" fill="white" fill-opacity="0.22"/>
<path d="M661.929 241.593H635.922V242.49H636.477V243.972H638.372V242.421H647.422V243.248L648.305 243.972H649.187V242.386H660.132C660.132 242.386 660.491 243.524 661.929 243.524C663.367 243.524 663.759 242.386 663.759 242.386H674.704V243.972H675.586L676.468 243.248V242.421H685.486V243.972H687.414V242.49H687.936V241.593H661.929Z" fill="white" fill-opacity="0.22"/>
<path d="M661.929 241.593H687.936V242.49H687.414V243.972H685.486V242.421H676.468V243.248L675.586 243.972H674.704V242.386H663.759C663.759 242.386 663.399 243.524 661.929 243.524V241.593Z" fill="white" fill-opacity="0.22"/>
<path d="M661.929 216.774L635.137 221.324C635.137 224.22 638.927 224.564 638.927 224.564H684.963C684.963 224.564 688.753 224.22 688.753 221.324L661.929 216.774Z" fill="white" fill-opacity="0.22"/>
<path d="M661.929 216.774V224.564H684.963C684.963 224.564 688.753 224.22 688.753 221.324L661.929 216.774Z" fill="white" fill-opacity="0.22"/>
<path d="M687.708 219.67V218.946C681.729 213.43 671.241 213.362 671.241 213.362L669.052 214.12C665.098 214.12 661.929 211.81 661.929 211.81C661.929 211.81 658.792 214.12 654.839 214.12L652.65 213.362C652.65 213.362 642.162 213.43 636.183 218.946V219.67H633.569V221.324H635.137L636.477 222.565C636.477 222.565 643.73 224.944 651.376 222.565C659.021 220.187 656.734 218.705 661.929 218.705C667.124 218.705 664.837 220.187 672.515 222.565C680.193 224.944 687.414 222.565 687.414 222.565L688.753 221.324H690.321V219.67H687.708Z" fill="white" fill-opacity="0.22"/>
<path d="M661.929 211.81C661.929 211.81 665.098 214.12 669.052 214.12L671.241 213.362C671.241 213.362 681.729 213.43 687.708 218.946V219.67H690.321V221.324H688.753L687.414 222.565C687.414 222.565 680.16 224.944 672.515 222.565C664.869 220.187 667.157 218.705 661.929 218.705V211.81Z" fill="white" fill-opacity="0.22"/>
<path d="M661.929 224.564H639.548V225.357H640.006V226.633H641.639V225.288H649.448V225.978L650.2 226.633H650.951V225.254H660.361C660.361 225.254 660.688 226.219 661.929 226.219C663.171 226.219 663.53 225.254 663.53 225.254H672.94V226.633H673.691L674.443 225.978V225.288H682.251V226.633H683.885V225.357H684.343V224.564H661.929Z" fill="white" fill-opacity="0.22"/>
<path d="M661.929 224.564H684.342V225.357H683.885V226.633H682.251V225.288H674.443V225.978L673.691 226.633H672.94V225.254H663.53C663.53 225.254 663.203 226.219 661.929 226.219V224.564Z" fill="white" fill-opacity="0.22"/>
<path d="M661.929 203.192L638.829 207.088C638.829 209.57 642.129 209.88 642.129 209.88H681.761C681.761 209.88 685.028 209.57 685.028 207.088L661.929 203.192Z" fill="white" fill-opacity="0.22"/>
<path d="M661.929 203.192V209.88H681.761C681.761 209.88 685.029 209.57 685.029 207.088L661.929 203.192Z" fill="white" fill-opacity="0.22"/>
<path d="M684.146 205.674V205.019C678.984 200.297 669.934 200.228 669.934 200.228L668.071 200.883C664.673 200.883 661.929 198.884 661.929 198.884C661.929 198.884 659.217 200.883 655.819 200.883L653.957 200.228C653.957 200.228 644.906 200.297 639.744 205.019V205.674H637.522V207.088H638.829L640.006 208.156C640.006 208.156 646.246 210.225 652.846 208.156C659.446 206.088 657.453 204.847 661.929 204.847C666.405 204.847 664.445 206.122 671.045 208.156C677.644 210.19 683.885 208.156 683.885 208.156L685.028 207.088H686.368V205.674H684.146Z" fill="white" fill-opacity="0.22"/>
<path d="M661.929 198.884C661.929 198.884 664.673 200.883 668.071 200.883L669.934 200.228C669.934 200.228 678.984 200.297 684.146 205.019V205.674H686.368V207.088H685.029L683.885 208.156C683.885 208.156 677.644 210.225 671.045 208.156C664.445 206.088 666.438 204.847 661.929 204.847V198.884Z" fill="white" fill-opacity="0.22"/>
<path d="M661.929 209.88H642.652V210.569H643.044V211.672H644.449V210.5H651.18V211.121L651.833 211.672H652.454V210.466H660.589C660.702 210.737 660.891 210.965 661.131 211.119C661.37 211.273 661.649 211.346 661.929 211.328C662.214 211.348 662.497 211.276 662.742 211.122C662.988 210.969 663.182 210.74 663.301 210.466H671.437V211.672H672.057L672.711 211.121V210.5H679.441V211.672H680.846V210.569H681.238V209.88H661.929Z" fill="white" fill-opacity="0.22"/>
<path d="M661.929 209.88H681.238V210.569H680.846V211.672H679.441V210.5H672.711V211.121L672.057 211.672H671.437V210.466H663.301C663.182 210.74 662.988 210.969 662.742 211.122C662.497 211.276 662.214 211.348 661.929 211.328V209.88Z" fill="white" fill-opacity="0.22"/>
<path d="M661.929 191.61L642.031 194.954C642.031 197.091 644.874 197.367 644.874 197.367H679.017C679.017 197.367 681.826 197.091 681.826 194.954L661.929 191.61Z" fill="white" fill-opacity="0.22"/>
<path d="M661.929 191.61V197.367H679.017C679.017 197.367 681.827 197.091 681.827 194.954L661.929 191.61Z" fill="white" fill-opacity="0.22"/>
<path d="M681.075 193.747V193.196C676.632 189.128 668.823 189.059 668.823 189.059L667.222 189.611C665.342 189.557 663.511 188.961 661.929 187.887C660.36 188.963 658.539 189.56 656.669 189.611L655.035 189.059C655.035 189.059 647.259 189.128 642.816 193.196V193.747H640.888V194.954H642.031L643.044 195.885C643.044 195.885 648.403 197.643 654.12 195.885C659.838 194.126 658.074 193.023 661.929 193.023C665.784 193.023 664.085 194.126 669.771 195.885C675.456 197.643 680.847 195.885 680.847 195.885L681.827 194.954H683.003V193.747H681.075Z" fill="white" fill-opacity="0.22"/>
<path d="M661.929 187.887C663.511 188.961 665.341 189.557 667.222 189.611L668.823 189.059C668.823 189.059 676.632 189.128 681.075 193.196V193.747H683.003V194.954H681.827L680.846 195.885C680.846 195.885 675.455 197.643 669.77 195.885C664.085 194.126 665.817 193.023 661.929 193.023V187.887Z" fill="white" fill-opacity="0.22"/>
<path d="M661.929 197.367H645.331V197.953H645.658V198.918H646.9V197.918H652.65V198.435L653.238 198.918H653.794V197.884H660.785C660.88 198.115 661.042 198.31 661.247 198.44C661.452 198.57 661.691 198.628 661.929 198.608C662.172 198.631 662.416 198.573 662.626 198.444C662.837 198.314 663.005 198.118 663.105 197.884H670.097V198.918H670.653L671.208 198.435V197.918H676.991V198.918H678.233V197.953H678.559V197.367H661.929Z" fill="white" fill-opacity="0.22"/>
<path d="M661.929 197.367H678.559V197.953H678.233V198.918H676.991V197.918H671.208V198.435L670.653 198.918H670.097V197.884H663.105C663.004 198.118 662.837 198.314 662.626 198.444C662.416 198.573 662.172 198.631 661.929 198.608V197.367Z" fill="white" fill-opacity="0.22"/>
<path d="M661.929 181.441L644.809 184.337C644.809 186.164 647.226 186.405 647.226 186.405H676.664C676.664 186.405 679.082 186.164 679.082 184.337L661.929 181.441Z" fill="white" fill-opacity="0.22"/>
<path d="M661.929 181.441V186.405H676.664C676.664 186.405 679.082 186.164 679.082 184.337L661.929 181.441Z" fill="white" fill-opacity="0.22"/>
<path d="M678.396 183.268V182.82C674.573 179.304 667.875 179.235 667.875 179.235L666.503 179.718C664.879 179.674 663.297 179.161 661.929 178.235C660.572 179.157 659.001 179.67 657.388 179.718L656.015 179.235C656.015 179.235 649.317 179.304 645.462 182.82V183.268H643.828V184.337H644.809L645.658 185.13C645.658 185.13 650.298 186.646 655.198 185.13C660.099 183.613 658.629 182.682 661.929 182.682C665.229 182.682 663.791 183.613 668.692 185.13C673.593 186.646 678.233 185.13 678.233 185.13L679.082 184.337H680.062V183.268H678.396Z" fill="white" fill-opacity="0.22"/>
<path d="M661.929 178.235C663.297 179.161 664.879 179.674 666.503 179.718L667.875 179.235C667.875 179.235 674.573 179.304 678.396 182.82V183.268H680.062V184.337H679.082L678.233 185.13C678.233 185.13 673.593 186.646 668.692 185.13C663.791 183.613 665.262 182.682 661.929 182.682V178.235Z" fill="white" fill-opacity="0.22"/>
<path d="M661.929 186.405H647.618V186.922H647.912V187.715H648.958V186.888H653.957V187.301L654.414 187.715H654.904V186.853H660.949C661.03 187.052 661.168 187.218 661.344 187.33C661.52 187.441 661.725 187.491 661.929 187.474C662.138 187.494 662.348 187.445 662.529 187.334C662.711 187.222 662.855 187.055 662.942 186.853H668.986V187.715H669.444L669.934 187.301V186.888H674.933V187.715H675.978V186.922H676.272V186.405H661.929Z" fill="white" fill-opacity="0.22"/>
<path d="M661.929 186.405H676.272V186.922H675.978V187.715H674.933V186.888H669.934V187.301L669.444 187.715H668.986V186.853H662.942C662.855 187.055 662.71 187.222 662.529 187.334C662.348 187.445 662.138 187.494 661.929 187.474V186.405Z" fill="white" fill-opacity="0.22"/>
<path d="M661.929 176.201L656.865 178.097C658.172 178.037 659.467 177.805 660.72 177.408L661.08 177.684H662.811L663.171 177.408C664.424 177.805 665.719 178.037 667.026 178.097L661.929 176.201Z" fill="white" fill-opacity="0.22"/>
<path d="M661.929 176.201V177.684H662.811L663.171 177.408C664.424 177.805 665.719 178.037 667.026 178.097L661.929 176.201Z" fill="white" fill-opacity="0.22"/>
<path d="M661.929 173.375L650.886 174.754V175.512C655.558 180.889 661.929 176.201 661.929 176.201C661.929 176.201 668.333 180.889 673.005 175.512V174.754L661.929 173.375Z" fill="white" fill-opacity="0.22"/>
<path d="M661.929 173.375V176.201C661.929 176.201 668.333 180.889 673.005 175.512V174.754L661.929 173.375Z" fill="white" fill-opacity="0.22"/>
<path d="M667.483 169.376C664.085 168.376 662.876 160 661.929 160C660.981 160 659.805 168.376 656.407 169.376C653.009 170.376 650.199 174.064 650.199 174.064V174.754H650.886V175.512C650.886 175.512 654.186 178.339 657.322 176.305L661.929 173.375L666.568 176.305C669.705 178.339 673.005 175.512 673.005 175.512V174.754H673.691V174.064C673.691 174.064 670.849 170.376 667.483 169.376Z" fill="white" fill-opacity="0.22"/>
<path d="M661.929 173.375L666.568 176.305C669.705 178.339 673.005 175.512 673.005 175.512V174.754H673.691V174.064C673.691 174.064 670.849 170.376 667.483 169.376C664.118 168.376 662.876 160 661.929 160V173.375Z" fill="white" fill-opacity="0.22"/>
<path d="M746.159 429.082H577.699V457.638H746.159V429.082Z" fill="white" fill-opacity="0.22"/>
<path d="M746.192 429.082H661.635V457.638H746.192V429.082Z" fill="white" fill-opacity="0.22"/>
<path d="M616.351 390.268H610.96V429.079H616.351V390.268Z" fill="white" fill-opacity="0.22"/>
<path d="M712.931 390.268H707.54V429.079H712.931V390.268Z" fill="white" fill-opacity="0.22"/>
</g>
<path d="M214.064 82.536V97.832C214.064 100.2 213.392 102.024 212.048 103.304C210.725 104.584 208.933 105.224 206.672 105.224C204.304 105.224 202.405 104.552 200.976 103.208C199.547 101.864 198.832 99.9547 198.832 97.48H204.272C204.272 98.4187 204.464 99.1333 204.848 99.624C205.232 100.093 205.787 100.328 206.512 100.328C207.173 100.328 207.685 100.115 208.048 99.688C208.411 99.2613 208.592 98.6427 208.592 97.832V82.536H214.064ZM236.116 87.144V105H230.644V102.568C230.089 103.357 229.332 103.997 228.372 104.488C227.433 104.957 226.388 105.192 225.236 105.192C223.871 105.192 222.665 104.893 221.62 104.296C220.575 103.677 219.764 102.792 219.188 101.64C218.612 100.488 218.324 99.1333 218.324 97.576V87.144H223.764V96.84C223.764 98.0347 224.073 98.9627 224.692 99.624C225.311 100.285 226.143 100.616 227.188 100.616C228.255 100.616 229.097 100.285 229.716 99.624C230.335 98.9627 230.644 98.0347 230.644 96.84V87.144H236.116ZM262.831 86.952C265.049 86.952 266.809 87.624 268.111 88.968C269.433 90.312 270.095 92.1787 270.095 94.568V105H264.655V95.304C264.655 94.152 264.345 93.2667 263.727 92.648C263.129 92.008 262.297 91.688 261.231 91.688C260.164 91.688 259.321 92.008 258.703 92.648C258.105 93.2667 257.807 94.152 257.807 95.304V105H252.367V95.304C252.367 94.152 252.057 93.2667 251.439 92.648C250.841 92.008 250.009 91.688 248.943 91.688C247.876 91.688 247.033 92.008 246.415 92.648C245.817 93.2667 245.519 94.152 245.519 95.304V105H240.047V87.144H245.519V89.384C246.073 88.6373 246.799 88.0507 247.695 87.624C248.591 87.176 249.604 86.952 250.735 86.952C252.079 86.952 253.273 87.24 254.319 87.816C255.385 88.392 256.217 89.2133 256.815 90.28C257.433 89.2987 258.276 88.4987 259.343 87.88C260.409 87.2613 261.572 86.952 262.831 86.952ZM272.834 96.04C272.834 94.2053 273.175 92.5947 273.858 91.208C274.562 89.8213 275.511 88.7547 276.706 88.008C277.9 87.2613 279.234 86.888 280.706 86.888C281.964 86.888 283.063 87.144 284.002 87.656C284.962 88.168 285.698 88.84 286.21 89.672V87.144H291.682V105H286.21V102.472C285.676 103.304 284.93 103.976 283.97 104.488C283.031 105 281.932 105.256 280.674 105.256C279.223 105.256 277.9 104.883 276.706 104.136C275.511 103.368 274.562 102.291 273.858 100.904C273.175 99.496 272.834 97.8747 272.834 96.04ZM286.21 96.072C286.21 94.7067 285.826 93.6293 285.058 92.84C284.311 92.0507 283.394 91.656 282.306 91.656C281.218 91.656 280.29 92.0507 279.522 92.84C278.775 93.608 278.402 94.6747 278.402 96.04C278.402 97.4053 278.775 98.4933 279.522 99.304C280.29 100.093 281.218 100.488 282.306 100.488C283.394 100.488 284.311 100.093 285.058 99.304C285.826 98.5147 286.21 97.4373 286.21 96.072ZM305.592 100.36V105H302.808C300.824 105 299.278 104.52 298.168 103.56C297.059 102.579 296.504 100.989 296.504 98.792V91.688H294.328V87.144H296.504V82.792H301.976V87.144H305.56V91.688H301.976V98.856C301.976 99.3893 302.104 99.7733 302.36 100.008C302.616 100.243 303.043 100.36 303.64 100.36H305.592ZM314.528 99.944L310.976 109.128H307.488L309.344 99.944H314.528ZM324.065 93C324.065 89.3307 324.769 86.44 326.177 84.328C327.606 82.216 329.9 81.16 333.057 81.16C336.214 81.16 338.497 82.216 339.905 84.328C341.334 86.44 342.049 89.3307 342.049 93C342.049 96.712 341.334 99.624 339.905 101.736C338.497 103.848 336.214 104.904 333.057 104.904C329.9 104.904 327.606 103.848 326.177 101.736C324.769 99.624 324.065 96.712 324.065 93ZM336.673 93C336.673 90.8453 336.438 89.192 335.969 88.04C335.5 86.8667 334.529 86.28 333.057 86.28C331.585 86.28 330.614 86.8667 330.145 88.04C329.676 89.192 329.441 90.8453 329.441 93C329.441 94.4507 329.526 95.656 329.697 96.616C329.868 97.5547 330.209 98.3227 330.721 98.92C331.254 99.496 332.033 99.784 333.057 99.784C334.081 99.784 334.849 99.496 335.361 98.92C335.894 98.3227 336.246 97.5547 336.417 96.616C336.588 95.656 336.673 94.4507 336.673 93ZM359.852 85.736L351.82 105H346.22L354.348 86.344H344.396V81.672H359.852V85.736ZM380.014 105.224C377.902 105.224 375.961 104.733 374.19 103.752C372.441 102.771 371.044 101.405 369.998 99.656C368.974 97.8853 368.462 95.9013 368.462 93.704C368.462 91.5067 368.974 89.5333 369.998 87.784C371.044 86.0347 372.441 84.6693 374.19 83.688C375.961 82.7067 377.902 82.216 380.014 82.216C382.126 82.216 384.057 82.7067 385.806 83.688C387.577 84.6693 388.964 86.0347 389.966 87.784C390.99 89.5333 391.502 91.5067 391.502 93.704C391.502 95.9013 390.99 97.8853 389.966 99.656C388.942 101.405 387.556 102.771 385.806 103.752C384.057 104.733 382.126 105.224 380.014 105.224ZM380.014 100.232C381.806 100.232 383.236 99.6347 384.302 98.44C385.39 97.2453 385.934 95.6667 385.934 93.704C385.934 91.72 385.39 90.1413 384.302 88.968C383.236 87.7733 381.806 87.176 380.014 87.176C378.201 87.176 376.75 87.7627 375.662 88.936C374.596 90.1093 374.062 91.6987 374.062 93.704C374.062 95.688 374.596 97.2773 375.662 98.472C376.75 99.6453 378.201 100.232 380.014 100.232ZM405.459 105L400.019 97.512V105H394.547V81.32H400.019V94.408L405.427 87.144H412.179L404.755 96.104L412.243 105H405.459ZM424.28 100.36V105H421.496C419.512 105 417.965 104.52 416.856 103.56C415.746 102.579 415.192 100.989 415.192 98.792V91.688H413.016V87.144H415.192V82.792H420.664V87.144H424.248V91.688H420.664V98.856C420.664 99.3893 420.792 99.7733 421.048 100.008C421.304 100.243 421.73 100.36 422.328 100.36H424.28ZM435.456 105.256C433.706 105.256 432.128 104.883 430.72 104.136C429.333 103.389 428.234 102.323 427.424 100.936C426.634 99.5493 426.24 97.928 426.24 96.072C426.24 94.2373 426.645 92.6267 427.456 91.24C428.266 89.832 429.376 88.7547 430.784 88.008C432.192 87.2613 433.77 86.888 435.52 86.888C437.269 86.888 438.848 87.2613 440.256 88.008C441.664 88.7547 442.773 89.832 443.584 91.24C444.394 92.6267 444.8 94.2373 444.8 96.072C444.8 97.9067 444.384 99.528 443.552 100.936C442.741 102.323 441.621 103.389 440.192 104.136C438.784 104.883 437.205 105.256 435.456 105.256ZM435.456 100.52C436.501 100.52 437.386 100.136 438.112 99.368C438.858 98.6 439.232 97.5013 439.232 96.072C439.232 94.6427 438.869 93.544 438.144 92.776C437.44 92.008 436.565 91.624 435.52 91.624C434.453 91.624 433.568 92.008 432.864 92.776C432.16 93.5227 431.808 94.6213 431.808 96.072C431.808 97.5013 432.149 98.6 432.832 99.368C433.536 100.136 434.41 100.52 435.456 100.52ZM453.175 89.672C453.687 88.84 454.423 88.168 455.383 87.656C456.343 87.144 457.441 86.888 458.679 86.888C460.151 86.888 461.484 87.2613 462.679 88.008C463.873 88.7547 464.812 89.8213 465.495 91.208C466.199 92.5947 466.551 94.2053 466.551 96.04C466.551 97.8747 466.199 99.496 465.495 100.904C464.812 102.291 463.873 103.368 462.679 104.136C461.484 104.883 460.151 105.256 458.679 105.256C457.42 105.256 456.321 105.011 455.383 104.52C454.444 104.008 453.708 103.336 453.175 102.504V105H447.703V81.32H453.175V89.672ZM460.983 96.04C460.983 94.6747 460.599 93.608 459.831 92.84C459.084 92.0507 458.156 91.656 457.047 91.656C455.959 91.656 455.031 92.0507 454.263 92.84C453.516 93.6293 453.143 94.7067 453.143 96.072C453.143 97.4373 453.516 98.5147 454.263 99.304C455.031 100.093 455.959 100.488 457.047 100.488C458.135 100.488 459.063 100.093 459.831 99.304C460.599 98.4933 460.983 97.4053 460.983 96.04ZM486.253 95.784C486.253 96.296 486.222 96.8293 486.158 97.384H473.774C473.859 98.4933 474.211 99.3467 474.83 99.944C475.47 100.52 476.248 100.808 477.166 100.808C478.531 100.808 479.48 100.232 480.014 99.08H485.838C485.539 100.253 484.995 101.309 484.206 102.248C483.438 103.187 482.467 103.923 481.294 104.456C480.12 104.989 478.808 105.256 477.358 105.256C475.608 105.256 474.051 104.883 472.686 104.136C471.32 103.389 470.254 102.323 469.486 100.936C468.718 99.5493 468.334 97.928 468.334 96.072C468.334 94.216 468.707 92.5947 469.454 91.208C470.222 89.8213 471.288 88.7547 472.654 88.008C474.019 87.2613 475.587 86.888 477.358 86.888C479.086 86.888 480.622 87.2507 481.966 87.976C483.31 88.7013 484.355 89.736 485.102 91.08C485.87 92.424 486.253 93.992 486.253 95.784ZM480.654 94.344C480.654 93.4053 480.334 92.6587 479.694 92.104C479.054 91.5493 478.254 91.272 477.294 91.272C476.376 91.272 475.598 91.5387 474.958 92.072C474.339 92.6053 473.955 93.3627 473.806 94.344H480.654ZM494.612 90.12C495.252 89.1387 496.052 88.3707 497.012 87.816C497.972 87.24 499.039 86.952 500.212 86.952V92.744H498.708C497.343 92.744 496.319 93.0427 495.636 93.64C494.954 94.216 494.612 95.24 494.612 96.712V105H489.14V87.144H494.612V90.12ZM508.873 100.616C509.598 100.04 509.929 99.7733 509.865 99.816C511.956 98.088 513.598 96.6693 514.793 95.56C516.009 94.4507 517.033 93.288 517.865 92.072C518.697 90.856 519.113 89.672 519.113 88.52C519.113 87.6453 518.91 86.9627 518.505 86.472C518.1 85.9813 517.492 85.736 516.681 85.736C515.87 85.736 515.23 86.0453 514.761 86.664C514.313 87.2613 514.089 88.1147 514.089 89.224H508.809C508.852 87.4107 509.236 85.896 509.961 84.68C510.708 83.464 511.678 82.568 512.873 81.992C514.089 81.416 515.433 81.128 516.905 81.128C519.444 81.128 521.353 81.7787 522.633 83.08C523.934 84.3813 524.585 86.0773 524.585 88.168C524.585 90.4507 523.806 92.5733 522.249 94.536C520.692 96.4773 518.708 98.376 516.297 100.232H524.937V104.68H508.873V100.616ZM527.346 93C527.346 89.3307 528.05 86.44 529.458 84.328C530.888 82.216 533.181 81.16 536.338 81.16C539.496 81.16 541.778 82.216 543.186 84.328C544.616 86.44 545.33 89.3307 545.33 93C545.33 96.712 544.616 99.624 543.186 101.736C541.778 103.848 539.496 104.904 536.338 104.904C533.181 104.904 530.888 103.848 529.458 101.736C528.05 99.624 527.346 96.712 527.346 93ZM539.954 93C539.954 90.8453 539.72 89.192 539.25 88.04C538.781 86.8667 537.81 86.28 536.338 86.28C534.866 86.28 533.896 86.8667 533.426 88.04C532.957 89.192 532.722 90.8453 532.722 93C532.722 94.4507 532.808 95.656 532.978 96.616C533.149 97.5547 533.49 98.3227 534.002 98.92C534.536 99.496 535.314 99.784 536.338 99.784C537.362 99.784 538.13 99.496 538.642 98.92C539.176 98.3227 539.528 97.5547 539.698 96.616C539.869 95.656 539.954 94.4507 539.954 93ZM548.029 100.616C548.755 100.04 549.085 99.7733 549.021 99.816C551.112 98.088 552.755 96.6693 553.949 95.56C555.165 94.4507 556.189 93.288 557.021 92.072C557.853 90.856 558.269 89.672 558.269 88.52C558.269 87.6453 558.067 86.9627 557.661 86.472C557.256 85.9813 556.648 85.736 555.837 85.736C555.027 85.736 554.387 86.0453 553.917 86.664C553.469 87.2613 553.245 88.1147 553.245 89.224H547.965C548.008 87.4107 548.392 85.896 549.117 84.68C549.864 83.464 550.835 82.568 552.029 81.992C553.245 81.416 554.589 81.128 556.061 81.128C558.6 81.128 560.509 81.7787 561.789 83.08C563.091 84.3813 563.741 86.0773 563.741 88.168C563.741 90.4507 562.963 92.5733 561.405 94.536C559.848 96.4773 557.864 98.376 555.453 100.232H564.093V104.68H548.029V100.616ZM566.311 100.616C567.036 100.04 567.367 99.7733 567.303 99.816C569.393 98.088 571.036 96.6693 572.231 95.56C573.447 94.4507 574.471 93.288 575.303 92.072C576.135 90.856 576.551 89.672 576.551 88.52C576.551 87.6453 576.348 86.9627 575.943 86.472C575.537 85.9813 574.929 85.736 574.119 85.736C573.308 85.736 572.668 86.0453 572.199 86.664C571.751 87.2613 571.527 88.1147 571.527 89.224H566.247C566.289 87.4107 566.673 85.896 567.399 84.68C568.145 83.464 569.116 82.568 570.311 81.992C571.527 81.416 572.871 81.128 574.343 81.128C576.881 81.128 578.791 81.7787 580.071 83.08C581.372 84.3813 582.023 86.0773 582.023 88.168C582.023 90.4507 581.244 92.5733 579.687 94.536C578.129 96.4773 576.145 98.376 573.735 100.232H582.375V104.68H566.311V100.616Z" fill="white"/>
<path d="M217.104 179.768C217.104 181.069 216.805 182.264 216.208 183.352C215.611 184.419 214.693 185.283 213.456 185.944C212.219 186.605 210.683 186.936 208.848 186.936H205.456V195H199.984V172.536H208.848C210.64 172.536 212.155 172.845 213.392 173.464C214.629 174.083 215.557 174.936 216.176 176.024C216.795 177.112 217.104 178.36 217.104 179.768ZM208.432 182.584C209.477 182.584 210.256 182.339 210.768 181.848C211.28 181.357 211.536 180.664 211.536 179.768C211.536 178.872 211.28 178.179 210.768 177.688C210.256 177.197 209.477 176.952 208.432 176.952H205.456V182.584H208.432ZM237.585 177.144V195H232.113V192.568C231.558 193.357 230.801 193.997 229.841 194.488C228.902 194.957 227.857 195.192 226.705 195.192C225.339 195.192 224.134 194.893 223.089 194.296C222.043 193.677 221.233 192.792 220.657 191.64C220.081 190.488 219.793 189.133 219.793 187.576V177.144H225.233V186.84C225.233 188.035 225.542 188.963 226.161 189.624C226.779 190.285 227.611 190.616 228.657 190.616C229.723 190.616 230.566 190.285 231.185 189.624C231.803 188.963 232.113 188.035 232.113 186.84V177.144H237.585ZM252.427 195L246.987 187.512V195H241.515V171.32H246.987V184.408L252.395 177.144H259.147L251.723 186.104L259.211 195H252.427ZM278.929 177.144V195H273.457V192.568C272.902 193.357 272.145 193.997 271.185 194.488C270.246 194.957 269.201 195.192 268.049 195.192C266.683 195.192 265.478 194.893 264.433 194.296C263.387 193.677 262.577 192.792 262.001 191.64C261.425 190.488 261.137 189.133 261.137 187.576V177.144H266.577V186.84C266.577 188.035 266.886 188.963 267.505 189.624C268.123 190.285 268.955 190.616 270.001 190.616C271.067 190.616 271.91 190.285 272.529 189.624C273.147 188.963 273.457 188.035 273.457 186.84V177.144H278.929ZM288.331 171.32V195H282.859V171.32H288.331ZM297.958 176.728V171.64H306.822V195H301.126V176.728H297.958ZM310.693 190.84V186.424L320.805 171.96H326.917V186.104H329.541V190.84H326.917V195H321.445V190.84H310.693ZM321.829 177.976L316.453 186.104H321.829V177.976ZM335.325 195.256C334.365 195.256 333.576 194.979 332.957 194.424C332.36 193.848 332.061 193.144 332.061 192.312C332.061 191.459 332.36 190.744 332.957 190.168C333.576 189.592 334.365 189.304 335.325 189.304C336.264 189.304 337.032 189.592 337.629 190.168C338.248 190.744 338.557 191.459 338.557 192.312C338.557 193.144 338.248 193.848 337.629 194.424C337.032 194.979 336.264 195.256 335.325 195.256ZM341.253 183C341.253 179.331 341.957 176.44 343.365 174.328C344.794 172.216 347.087 171.16 350.245 171.16C353.402 171.16 355.685 172.216 357.093 174.328C358.522 176.44 359.237 179.331 359.237 183C359.237 186.712 358.522 189.624 357.093 191.736C355.685 193.848 353.402 194.904 350.245 194.904C347.087 194.904 344.794 193.848 343.365 191.736C341.957 189.624 341.253 186.712 341.253 183ZM353.861 183C353.861 180.845 353.626 179.192 353.157 178.04C352.687 176.867 351.717 176.28 350.245 176.28C348.773 176.28 347.802 176.867 347.333 178.04C346.863 179.192 346.629 180.845 346.629 183C346.629 184.451 346.714 185.656 346.885 186.616C347.055 187.555 347.397 188.323 347.909 188.92C348.442 189.496 349.221 189.784 350.245 189.784C351.269 189.784 352.037 189.496 352.549 188.92C353.082 188.323 353.434 187.555 353.605 186.616C353.775 185.656 353.861 184.451 353.861 183ZM362.128 183C362.128 179.331 362.832 176.44 364.24 174.328C365.669 172.216 367.962 171.16 371.12 171.16C374.277 171.16 376.56 172.216 377.968 174.328C379.397 176.44 380.112 179.331 380.112 183C380.112 186.712 379.397 189.624 377.968 191.736C376.56 193.848 374.277 194.904 371.12 194.904C367.962 194.904 365.669 193.848 364.24 191.736C362.832 189.624 362.128 186.712 362.128 183ZM374.736 183C374.736 180.845 374.501 179.192 374.032 178.04C373.562 176.867 372.592 176.28 371.12 176.28C369.648 176.28 368.677 176.867 368.208 178.04C367.738 179.192 367.504 180.845 367.504 183C367.504 184.451 367.589 185.656 367.76 186.616C367.93 187.555 368.272 188.323 368.784 188.92C369.317 189.496 370.096 189.784 371.12 189.784C372.144 189.784 372.912 189.496 373.424 188.92C373.957 188.323 374.309 187.555 374.48 186.616C374.65 185.656 374.736 184.451 374.736 183ZM421.24 172.536L415.384 195H408.76L405.176 180.216L401.464 195H394.84L389.144 172.536H395L398.232 188.888L402.232 172.536H408.248L412.088 188.888L415.352 172.536H421.24ZM426.736 175.288C425.776 175.288 424.987 175.011 424.368 174.456C423.771 173.88 423.472 173.176 423.472 172.344C423.472 171.491 423.771 170.787 424.368 170.232C424.987 169.656 425.776 169.368 426.736 169.368C427.675 169.368 428.443 169.656 429.04 170.232C429.659 170.787 429.968 171.491 429.968 172.344C429.968 173.176 429.659 173.88 429.04 174.456C428.443 175.011 427.675 175.288 426.736 175.288ZM429.456 177.144V195H423.984V177.144H429.456ZM443.374 190.36V195H440.59C438.606 195 437.059 194.52 435.95 193.56C434.84 192.579 434.286 190.989 434.286 188.792V181.688H432.11V177.144H434.286V172.792H439.758V177.144H443.342V181.688H439.758V188.856C439.758 189.389 439.886 189.773 440.142 190.008C440.398 190.243 440.824 190.36 441.422 190.36H443.374ZM445.334 186.04C445.334 184.205 445.675 182.595 446.358 181.208C447.062 179.821 448.011 178.755 449.206 178.008C450.4 177.261 451.734 176.888 453.206 176.888C454.464 176.888 455.563 177.144 456.502 177.656C457.462 178.168 458.198 178.84 458.71 179.672V177.144H464.182V195H458.71V192.472C458.176 193.304 457.43 193.976 456.47 194.488C455.531 195 454.432 195.256 453.174 195.256C451.723 195.256 450.4 194.883 449.206 194.136C448.011 193.368 447.062 192.291 446.358 190.904C445.675 189.496 445.334 187.875 445.334 186.04ZM458.71 186.072C458.71 184.707 458.326 183.629 457.558 182.84C456.811 182.051 455.894 181.656 454.806 181.656C453.718 181.656 452.79 182.051 452.022 182.84C451.275 183.608 450.902 184.675 450.902 186.04C450.902 187.405 451.275 188.493 452.022 189.304C452.79 190.093 453.718 190.488 454.806 190.488C455.894 190.488 456.811 190.093 457.558 189.304C458.326 188.515 458.71 187.437 458.71 186.072ZM482.186 195.256C480.628 195.256 479.242 194.989 478.026 194.456C476.81 193.923 475.85 193.197 475.146 192.28C474.442 191.341 474.047 190.296 473.962 189.144H479.37C479.434 189.763 479.722 190.264 480.234 190.648C480.746 191.032 481.375 191.224 482.122 191.224C482.804 191.224 483.327 191.096 483.69 190.84C484.074 190.563 484.266 190.211 484.266 189.784C484.266 189.272 483.999 188.899 483.466 188.664C482.932 188.408 482.068 188.131 480.874 187.832C479.594 187.533 478.527 187.224 477.674 186.904C476.82 186.563 476.084 186.04 475.466 185.336C474.847 184.611 474.538 183.64 474.538 182.424C474.538 181.4 474.815 180.472 475.37 179.64C475.946 178.787 476.778 178.115 477.866 177.624C478.975 177.133 480.287 176.888 481.802 176.888C484.042 176.888 485.802 177.443 487.082 178.552C488.383 179.661 489.13 181.133 489.322 182.968H484.266C484.18 182.349 483.903 181.859 483.434 181.496C482.986 181.133 482.388 180.952 481.642 180.952C481.002 180.952 480.511 181.08 480.17 181.336C479.828 181.571 479.658 181.901 479.658 182.328C479.658 182.84 479.924 183.224 480.458 183.48C481.012 183.736 481.866 183.992 483.018 184.248C484.34 184.589 485.418 184.931 486.25 185.272C487.082 185.592 487.807 186.125 488.426 186.872C489.066 187.597 489.396 188.579 489.418 189.816C489.418 190.861 489.119 191.8 488.522 192.632C487.946 193.443 487.103 194.083 485.994 194.552C484.906 195.021 483.636 195.256 482.186 195.256ZM504.957 164.6L496.381 200.984H491.101L499.677 164.6H504.957ZM506.177 186.04C506.177 184.205 506.519 182.595 507.201 181.208C507.905 179.821 508.855 178.755 510.049 178.008C511.244 177.261 512.577 176.888 514.049 176.888C515.223 176.888 516.289 177.133 517.249 177.624C518.231 178.115 518.999 178.776 519.553 179.608V171.32H525.025V195H519.553V192.44C519.041 193.293 518.305 193.976 517.345 194.488C516.407 195 515.308 195.256 514.049 195.256C512.577 195.256 511.244 194.883 510.049 194.136C508.855 193.368 507.905 192.291 507.201 190.904C506.519 189.496 506.177 187.875 506.177 186.04ZM519.553 186.072C519.553 184.707 519.169 183.629 518.401 182.84C517.655 182.051 516.737 181.656 515.649 181.656C514.561 181.656 513.633 182.051 512.865 182.84C512.119 183.608 511.745 184.675 511.745 186.04C511.745 187.405 512.119 188.493 512.865 189.304C513.633 190.093 514.561 190.488 515.649 190.488C516.737 190.488 517.655 190.093 518.401 189.304C519.169 188.515 519.553 187.437 519.553 186.072ZM543.893 195.224C542.251 195.224 540.779 194.957 539.477 194.424C538.176 193.891 537.131 193.101 536.341 192.056C535.573 191.011 535.168 189.752 535.125 188.28H540.949C541.035 189.112 541.323 189.752 541.813 190.2C542.304 190.627 542.944 190.84 543.733 190.84C544.544 190.84 545.184 190.659 545.653 190.296C546.123 189.912 546.357 189.389 546.357 188.728C546.357 188.173 546.165 187.715 545.781 187.352C545.419 186.989 544.96 186.691 544.405 186.456C543.872 186.221 543.104 185.955 542.101 185.656C540.651 185.208 539.467 184.76 538.549 184.312C537.632 183.864 536.843 183.203 536.181 182.328C535.52 181.453 535.189 180.312 535.189 178.904C535.189 176.813 535.947 175.181 537.461 174.008C538.976 172.813 540.949 172.216 543.381 172.216C545.856 172.216 547.851 172.813 549.365 174.008C550.88 175.181 551.691 176.824 551.797 178.936H545.877C545.835 178.211 545.568 177.645 545.077 177.24C544.587 176.813 543.957 176.6 543.189 176.6C542.528 176.6 541.995 176.781 541.589 177.144C541.184 177.485 540.981 177.987 540.981 178.648C540.981 179.373 541.323 179.939 542.005 180.344C542.688 180.749 543.755 181.187 545.205 181.656C546.656 182.147 547.829 182.616 548.725 183.064C549.643 183.512 550.432 184.163 551.093 185.016C551.755 185.869 552.085 186.968 552.085 188.312C552.085 189.592 551.755 190.755 551.093 191.8C550.453 192.845 549.515 193.677 548.277 194.296C547.04 194.915 545.579 195.224 543.893 195.224ZM572.285 185.784C572.285 186.296 572.253 186.829 572.189 187.384H559.805C559.89 188.493 560.242 189.347 560.861 189.944C561.501 190.52 562.279 190.808 563.197 190.808C564.562 190.808 565.511 190.232 566.045 189.08H571.869C571.57 190.253 571.026 191.309 570.237 192.248C569.469 193.187 568.498 193.923 567.325 194.456C566.151 194.989 564.839 195.256 563.389 195.256C561.639 195.256 560.082 194.883 558.717 194.136C557.351 193.389 556.285 192.323 555.517 190.936C554.749 189.549 554.365 187.928 554.365 186.072C554.365 184.216 554.738 182.595 555.485 181.208C556.253 179.821 557.319 178.755 558.685 178.008C560.05 177.261 561.618 176.888 563.389 176.888C565.117 176.888 566.653 177.251 567.997 177.976C569.341 178.701 570.386 179.736 571.133 181.08C571.901 182.424 572.285 183.992 572.285 185.784ZM566.685 184.344C566.685 183.405 566.365 182.659 565.725 182.104C565.085 181.549 564.285 181.272 563.325 181.272C562.407 181.272 561.629 181.539 560.989 182.072C560.37 182.605 559.986 183.363 559.837 184.344H566.685ZM580.644 171.32V195H575.172V171.32H580.644ZM601.441 185.784C601.441 186.296 601.409 186.829 601.345 187.384H588.961C589.046 188.493 589.398 189.347 590.017 189.944C590.657 190.52 591.436 190.808 592.353 190.808C593.718 190.808 594.668 190.232 595.201 189.08H601.025C600.726 190.253 600.182 191.309 599.393 192.248C598.625 193.187 597.654 193.923 596.481 194.456C595.308 194.989 593.996 195.256 592.545 195.256C590.796 195.256 589.238 194.883 587.873 194.136C586.508 193.389 585.441 192.323 584.673 190.936C583.905 189.549 583.521 187.928 583.521 186.072C583.521 184.216 583.894 182.595 584.641 181.208C585.409 179.821 586.476 178.755 587.841 178.008C589.206 177.261 590.774 176.888 592.545 176.888C594.273 176.888 595.809 177.251 597.153 177.976C598.497 178.701 599.542 179.736 600.289 181.08C601.057 182.424 601.441 183.992 601.441 185.784ZM595.841 184.344C595.841 183.405 595.521 182.659 594.881 182.104C594.241 181.549 593.441 181.272 592.481 181.272C591.564 181.272 590.785 181.539 590.145 182.072C589.526 182.605 589.142 183.363 588.993 184.344H595.841ZM611.592 195.256C610.034 195.256 608.648 194.989 607.432 194.456C606.216 193.923 605.256 193.197 604.552 192.28C603.848 191.341 603.453 190.296 603.368 189.144H608.776C608.84 189.763 609.128 190.264 609.64 190.648C610.152 191.032 610.781 191.224 611.528 191.224C612.21 191.224 612.733 191.096 613.096 190.84C613.48 190.563 613.672 190.211 613.672 189.784C613.672 189.272 613.405 188.899 612.872 188.664C612.338 188.408 611.474 188.131 610.28 187.832C609 187.533 607.933 187.224 607.08 186.904C606.226 186.563 605.49 186.04 604.872 185.336C604.253 184.611 603.944 183.64 603.944 182.424C603.944 181.4 604.221 180.472 604.776 179.64C605.352 178.787 606.184 178.115 607.272 177.624C608.381 177.133 609.693 176.888 611.208 176.888C613.448 176.888 615.208 177.443 616.488 178.552C617.789 179.661 618.536 181.133 618.728 182.968H613.672C613.586 182.349 613.309 181.859 612.84 181.496C612.392 181.133 611.794 180.952 611.048 180.952C610.408 180.952 609.917 181.08 609.576 181.336C609.234 181.571 609.064 181.901 609.064 182.328C609.064 182.84 609.33 183.224 609.864 183.48C610.418 183.736 611.272 183.992 612.424 184.248C613.746 184.589 614.824 184.931 615.656 185.272C616.488 185.592 617.213 186.125 617.832 186.872C618.472 187.597 618.802 188.579 618.824 189.816C618.824 190.861 618.525 191.8 617.928 192.632C617.352 193.443 616.509 194.083 615.4 194.552C614.312 195.021 613.042 195.256 611.592 195.256ZM621.084 186.04C621.084 184.205 621.425 182.595 622.108 181.208C622.812 179.821 623.761 178.755 624.956 178.008C626.15 177.261 627.484 176.888 628.956 176.888C630.214 176.888 631.313 177.144 632.252 177.656C633.212 178.168 633.948 178.84 634.46 179.672V177.144H639.932V195H634.46V192.472C633.926 193.304 633.18 193.976 632.22 194.488C631.281 195 630.182 195.256 628.924 195.256C627.473 195.256 626.15 194.883 624.956 194.136C623.761 193.368 622.812 192.291 622.108 190.904C621.425 189.496 621.084 187.875 621.084 186.04ZM634.46 186.072C634.46 184.707 634.076 183.629 633.308 182.84C632.561 182.051 631.644 181.656 630.556 181.656C629.468 181.656 628.54 182.051 627.772 182.84C627.025 183.608 626.652 184.675 626.652 186.04C626.652 187.405 627.025 188.493 627.772 189.304C628.54 190.093 629.468 190.488 630.556 190.488C631.644 190.488 632.561 190.093 633.308 189.304C634.076 188.515 634.46 187.437 634.46 186.072ZM646.642 175.288C645.682 175.288 644.893 175.011 644.274 174.456C643.677 173.88 643.378 173.176 643.378 172.344C643.378 171.491 643.677 170.787 644.274 170.232C644.893 169.656 645.682 169.368 646.642 169.368C647.581 169.368 648.349 169.656 648.946 170.232C649.565 170.787 649.874 171.491 649.874 172.344C649.874 173.176 649.565 173.88 648.946 174.456C648.349 175.011 647.581 175.288 646.642 175.288ZM649.362 177.144V195H643.89V177.144H649.362Z" fill="white"/>
<path d="M219.104 275.768C219.104 277.069 218.805 278.264 218.208 279.352C217.611 280.419 216.693 281.283 215.456 281.944C214.219 282.605 212.683 282.936 210.848 282.936H207.456V291H201.984V268.536H210.848C212.64 268.536 214.155 268.845 215.392 269.464C216.629 270.083 217.557 270.936 218.176 272.024C218.795 273.112 219.104 274.36 219.104 275.768ZM210.432 278.584C211.477 278.584 212.256 278.339 212.768 277.848C213.28 277.357 213.536 276.664 213.536 275.768C213.536 274.872 213.28 274.179 212.768 273.688C212.256 273.197 211.477 272.952 210.432 272.952H207.456V278.584H210.432ZM239.585 273.144V291H234.113V288.568C233.558 289.357 232.801 289.997 231.841 290.488C230.902 290.957 229.857 291.192 228.705 291.192C227.339 291.192 226.134 290.893 225.089 290.296C224.043 289.677 223.233 288.792 222.657 287.64C222.081 286.488 221.793 285.133 221.793 283.576V273.144H227.233V282.84C227.233 284.035 227.542 284.963 228.161 285.624C228.779 286.285 229.611 286.616 230.657 286.616C231.723 286.616 232.566 286.285 233.185 285.624C233.803 284.963 234.113 284.035 234.113 282.84V273.144H239.585ZM248.987 276.12C249.627 275.139 250.427 274.371 251.387 273.816C252.347 273.24 253.414 272.952 254.587 272.952V278.744H253.083C251.718 278.744 250.694 279.043 250.011 279.64C249.329 280.216 248.987 281.24 248.987 282.712V291H243.515V273.144H248.987V276.12ZM259.955 271.288C258.995 271.288 258.205 271.011 257.587 270.456C256.989 269.88 256.691 269.176 256.691 268.344C256.691 267.491 256.989 266.787 257.587 266.232C258.205 265.656 258.995 265.368 259.955 265.368C260.893 265.368 261.661 265.656 262.259 266.232C262.877 266.787 263.187 267.491 263.187 268.344C263.187 269.176 262.877 269.88 262.259 270.456C261.661 271.011 260.893 271.288 259.955 271.288ZM262.675 273.144V291H257.203V273.144H262.675ZM286.446 291L278.894 281.08V291H273.422V268.536H278.894V278.392L286.382 268.536H292.814L284.11 279.544L293.134 291H286.446ZM303.862 291.256C302.113 291.256 300.534 290.883 299.126 290.136C297.739 289.389 296.641 288.323 295.83 286.936C295.041 285.549 294.646 283.928 294.646 282.072C294.646 280.237 295.051 278.627 295.862 277.24C296.673 275.832 297.782 274.755 299.19 274.008C300.598 273.261 302.177 272.888 303.926 272.888C305.675 272.888 307.254 273.261 308.662 274.008C310.07 274.755 311.179 275.832 311.99 277.24C312.801 278.627 313.206 280.237 313.206 282.072C313.206 283.907 312.79 285.528 311.958 286.936C311.147 288.323 310.027 289.389 308.598 290.136C307.19 290.883 305.611 291.256 303.862 291.256ZM303.862 286.52C304.907 286.52 305.793 286.136 306.518 285.368C307.265 284.6 307.638 283.501 307.638 282.072C307.638 280.643 307.275 279.544 306.55 278.776C305.846 278.008 304.971 277.624 303.926 277.624C302.859 277.624 301.974 278.008 301.27 278.776C300.566 279.523 300.214 280.621 300.214 282.072C300.214 283.501 300.555 284.6 301.238 285.368C301.942 286.136 302.817 286.52 303.862 286.52ZM338.893 272.952C341.112 272.952 342.872 273.624 344.173 274.968C345.496 276.312 346.157 278.179 346.157 280.568V291H340.717V281.304C340.717 280.152 340.408 279.267 339.789 278.648C339.192 278.008 338.36 277.688 337.293 277.688C336.226 277.688 335.384 278.008 334.765 278.648C334.168 279.267 333.869 280.152 333.869 281.304V291H328.429V281.304C328.429 280.152 328.12 279.267 327.501 278.648C326.904 278.008 326.072 277.688 325.005 277.688C323.938 277.688 323.096 278.008 322.477 278.648C321.88 279.267 321.581 280.152 321.581 281.304V291H316.109V273.144H321.581V275.384C322.136 274.637 322.861 274.051 323.757 273.624C324.653 273.176 325.666 272.952 326.797 272.952C328.141 272.952 329.336 273.24 330.381 273.816C331.448 274.392 332.28 275.213 332.877 276.28C333.496 275.299 334.338 274.499 335.405 273.88C336.472 273.261 337.634 272.952 338.893 272.952ZM355.456 275.672C355.989 274.84 356.725 274.168 357.664 273.656C358.603 273.144 359.701 272.888 360.96 272.888C362.432 272.888 363.765 273.261 364.96 274.008C366.155 274.755 367.093 275.821 367.776 277.208C368.48 278.595 368.832 280.205 368.832 282.04C368.832 283.875 368.48 285.496 367.776 286.904C367.093 288.291 366.155 289.368 364.96 290.136C363.765 290.883 362.432 291.256 360.96 291.256C359.723 291.256 358.624 291 357.664 290.488C356.725 289.976 355.989 289.315 355.456 288.504V299.512H349.984V273.144H355.456V275.672ZM363.264 282.04C363.264 280.675 362.88 279.608 362.112 278.84C361.365 278.051 360.437 277.656 359.328 277.656C358.24 277.656 357.312 278.051 356.544 278.84C355.797 279.629 355.424 280.707 355.424 282.072C355.424 283.437 355.797 284.515 356.544 285.304C357.312 286.093 358.24 286.488 359.328 286.488C360.416 286.488 361.344 286.093 362.112 285.304C362.88 284.493 363.264 283.405 363.264 282.04ZM389.943 273.144L378.743 299.48H372.855L376.951 290.392L369.687 273.144H375.799L379.927 284.312L384.023 273.144H389.943ZM390.834 282.04C390.834 280.205 391.175 278.595 391.858 277.208C392.562 275.821 393.511 274.755 394.706 274.008C395.9 273.261 397.234 272.888 398.706 272.888C399.964 272.888 401.063 273.144 402.002 273.656C402.962 274.168 403.698 274.84 404.21 275.672V273.144H409.682V291H404.21V288.472C403.676 289.304 402.93 289.976 401.97 290.488C401.031 291 399.932 291.256 398.674 291.256C397.223 291.256 395.9 290.883 394.706 290.136C393.511 289.368 392.562 288.291 391.858 286.904C391.175 285.496 390.834 283.875 390.834 282.04ZM404.21 282.072C404.21 280.707 403.826 279.629 403.058 278.84C402.311 278.051 401.394 277.656 400.306 277.656C399.218 277.656 398.29 278.051 397.522 278.84C396.775 279.608 396.402 280.675 396.402 282.04C396.402 283.405 396.775 284.493 397.522 285.304C398.29 286.093 399.218 286.488 400.306 286.488C401.394 286.488 402.311 286.093 403.058 285.304C403.826 284.515 404.21 283.437 404.21 282.072ZM424.52 272.952C426.611 272.952 428.275 273.635 429.512 275C430.771 276.344 431.4 278.2 431.4 280.568V291H425.96V281.304C425.96 280.109 425.651 279.181 425.032 278.52C424.414 277.859 423.582 277.528 422.536 277.528C421.491 277.528 420.659 277.859 420.04 278.52C419.422 279.181 419.112 280.109 419.112 281.304V291H413.64V273.144H419.112V275.512C419.667 274.723 420.414 274.104 421.352 273.656C422.291 273.187 423.347 272.952 424.52 272.952ZM441.987 272.888C443.245 272.888 444.344 273.144 445.283 273.656C446.243 274.168 446.979 274.84 447.491 275.672V273.144H452.963V290.968C452.963 292.611 452.632 294.093 451.971 295.416C451.331 296.76 450.339 297.827 448.995 298.616C447.672 299.405 446.019 299.8 444.035 299.8C441.389 299.8 439.245 299.171 437.603 297.912C435.96 296.675 435.021 294.989 434.787 292.856H440.195C440.365 293.539 440.771 294.072 441.411 294.456C442.051 294.861 442.84 295.064 443.779 295.064C444.909 295.064 445.805 294.733 446.467 294.072C447.149 293.432 447.491 292.397 447.491 290.968V288.44C446.957 289.272 446.221 289.955 445.283 290.488C444.344 291 443.245 291.256 441.987 291.256C440.515 291.256 439.181 290.883 437.987 290.136C436.792 289.368 435.843 288.291 435.139 286.904C434.456 285.496 434.115 283.875 434.115 282.04C434.115 280.205 434.456 278.595 435.139 277.208C435.843 275.821 436.792 274.755 437.987 274.008C439.181 273.261 440.515 272.888 441.987 272.888ZM447.491 282.072C447.491 280.707 447.107 279.629 446.339 278.84C445.592 278.051 444.675 277.656 443.587 277.656C442.499 277.656 441.571 278.051 440.803 278.84C440.056 279.608 439.683 280.675 439.683 282.04C439.683 283.405 440.056 284.493 440.803 285.304C441.571 286.093 442.499 286.488 443.587 286.488C444.675 286.488 445.592 286.093 446.339 285.304C447.107 284.515 447.491 283.437 447.491 282.072ZM471.063 297.688C468.993 295.704 467.383 293.144 466.231 290.008C465.079 286.872 464.503 283.491 464.503 279.864C464.503 276.195 465.1 272.771 466.295 269.592C467.489 266.392 469.185 263.789 471.383 261.784H476.759V262.296C474.519 264.515 472.791 267.181 471.575 270.296C470.359 273.389 469.751 276.579 469.751 279.864C469.751 283.128 470.337 286.275 471.511 289.304C472.684 292.333 474.337 294.957 476.471 297.176V297.688H471.063ZM487.081 291.224C485.438 291.224 483.966 290.957 482.665 290.424C481.363 289.891 480.318 289.101 479.529 288.056C478.761 287.011 478.355 285.752 478.313 284.28H484.137C484.222 285.112 484.51 285.752 485.001 286.2C485.491 286.627 486.131 286.84 486.921 286.84C487.731 286.84 488.371 286.659 488.841 286.296C489.31 285.912 489.545 285.389 489.545 284.728C489.545 284.173 489.353 283.715 488.969 283.352C488.606 282.989 488.147 282.691 487.593 282.456C487.059 282.221 486.291 281.955 485.289 281.656C483.838 281.208 482.654 280.76 481.737 280.312C480.819 279.864 480.03 279.203 479.369 278.328C478.707 277.453 478.377 276.312 478.377 274.904C478.377 272.813 479.134 271.181 480.649 270.008C482.163 268.813 484.137 268.216 486.569 268.216C489.043 268.216 491.038 268.813 492.553 270.008C494.067 271.181 494.878 272.824 494.985 274.936H489.065C489.022 274.211 488.755 273.645 488.265 273.24C487.774 272.813 487.145 272.6 486.377 272.6C485.715 272.6 485.182 272.781 484.777 273.144C484.371 273.485 484.169 273.987 484.169 274.648C484.169 275.373 484.51 275.939 485.193 276.344C485.875 276.749 486.942 277.187 488.393 277.656C489.843 278.147 491.017 278.616 491.913 279.064C492.83 279.512 493.619 280.163 494.281 281.016C494.942 281.869 495.273 282.968 495.273 284.312C495.273 285.592 494.942 286.755 494.281 287.8C493.641 288.845 492.702 289.677 491.465 290.296C490.227 290.915 488.766 291.224 487.081 291.224ZM497.552 282.04C497.552 280.205 497.894 278.595 498.576 277.208C499.28 275.821 500.23 274.755 501.424 274.008C502.619 273.261 503.952 272.888 505.424 272.888C506.683 272.888 507.782 273.144 508.72 273.656C509.68 274.168 510.416 274.84 510.928 275.672V273.144H516.4V291H510.928V288.472C510.395 289.304 509.648 289.976 508.688 290.488C507.75 291 506.651 291.256 505.392 291.256C503.942 291.256 502.619 290.883 501.424 290.136C500.23 289.368 499.28 288.291 498.576 286.904C497.894 285.496 497.552 283.875 497.552 282.04ZM510.928 282.072C510.928 280.707 510.544 279.629 509.776 278.84C509.03 278.051 508.112 277.656 507.024 277.656C505.936 277.656 505.008 278.051 504.24 278.84C503.494 279.608 503.12 280.675 503.12 282.04C503.12 283.405 503.494 284.493 504.24 285.304C505.008 286.093 505.936 286.488 507.024 286.488C508.112 286.488 509.03 286.093 509.776 285.304C510.544 284.515 510.928 283.437 510.928 282.072ZM525.831 276.12C526.471 275.139 527.271 274.371 528.231 273.816C529.191 273.24 530.258 272.952 531.431 272.952V278.744H529.927C528.562 278.744 527.538 279.043 526.855 279.64C526.172 280.216 525.831 281.24 525.831 282.712V291H520.359V273.144H525.831V276.12ZM550.878 281.784C550.878 282.296 550.847 282.829 550.783 283.384H538.399C538.484 284.493 538.836 285.347 539.455 285.944C540.095 286.52 540.873 286.808 541.791 286.808C543.156 286.808 544.105 286.232 544.639 285.08H550.463C550.164 286.253 549.62 287.309 548.831 288.248C548.063 289.187 547.092 289.923 545.919 290.456C544.745 290.989 543.433 291.256 541.983 291.256C540.233 291.256 538.676 290.883 537.311 290.136C535.945 289.389 534.879 288.323 534.111 286.936C533.343 285.549 532.959 283.928 532.959 282.072C532.959 280.216 533.332 278.595 534.079 277.208C534.847 275.821 535.913 274.755 537.279 274.008C538.644 273.261 540.212 272.888 541.983 272.888C543.711 272.888 545.247 273.251 546.591 273.976C547.935 274.701 548.98 275.736 549.727 277.08C550.495 278.424 550.878 279.992 550.878 281.784ZM545.279 280.344C545.279 279.405 544.959 278.659 544.319 278.104C543.679 277.549 542.879 277.272 541.919 277.272C541.001 277.272 540.223 277.539 539.583 278.072C538.964 278.605 538.58 279.363 538.431 280.344H545.279ZM564.645 272.952C566.736 272.952 568.4 273.635 569.637 275C570.896 276.344 571.525 278.2 571.525 280.568V291H566.085V281.304C566.085 280.109 565.776 279.181 565.157 278.52C564.539 277.859 563.707 277.528 562.661 277.528C561.616 277.528 560.784 277.859 560.165 278.52C559.547 279.181 559.237 280.109 559.237 281.304V291H553.765V273.144H559.237V275.512C559.792 274.723 560.539 274.104 561.477 273.656C562.416 273.187 563.472 272.952 564.645 272.952ZM595.133 291L587.581 281.08V291H582.109V268.536H587.581V278.392L595.069 268.536H601.501L592.797 279.544L601.821 291H595.133ZM603.334 282.04C603.334 280.205 603.675 278.595 604.358 277.208C605.062 275.821 606.011 274.755 607.206 274.008C608.4 273.261 609.734 272.888 611.206 272.888C612.464 272.888 613.563 273.144 614.502 273.656C615.462 274.168 616.198 274.84 616.71 275.672V273.144H622.182V291H616.71V288.472C616.176 289.304 615.43 289.976 614.47 290.488C613.531 291 612.432 291.256 611.174 291.256C609.723 291.256 608.4 290.883 607.206 290.136C606.011 289.368 605.062 288.291 604.358 286.904C603.675 285.496 603.334 283.875 603.334 282.04ZM616.71 282.072C616.71 280.707 616.326 279.629 615.558 278.84C614.811 278.051 613.894 277.656 612.806 277.656C611.718 277.656 610.79 278.051 610.022 278.84C609.275 279.608 608.902 280.675 608.902 282.04C608.902 283.405 609.275 284.493 610.022 285.304C610.79 286.093 611.718 286.488 612.806 286.488C613.894 286.488 614.811 286.093 615.558 285.304C616.326 284.515 616.71 283.437 616.71 282.072ZM631.612 267.32V291H626.14V267.32H631.612ZM652.41 281.784C652.41 282.296 652.378 282.829 652.314 283.384H639.93C640.015 284.493 640.367 285.347 640.986 285.944C641.626 286.52 642.404 286.808 643.322 286.808C644.687 286.808 645.636 286.232 646.17 285.08H651.994C651.695 286.253 651.151 287.309 650.362 288.248C649.594 289.187 648.623 289.923 647.45 290.456C646.276 290.989 644.964 291.256 643.514 291.256C641.764 291.256 640.207 290.883 638.842 290.136C637.476 289.389 636.41 288.323 635.642 286.936C634.874 285.549 634.49 283.928 634.49 282.072C634.49 280.216 634.863 278.595 635.61 277.208C636.378 275.821 637.444 274.755 638.81 274.008C640.175 273.261 641.743 272.888 643.514 272.888C645.242 272.888 646.778 273.251 648.122 273.976C649.466 274.701 650.511 275.736 651.258 277.08C652.026 278.424 652.41 279.992 652.41 281.784ZM646.81 280.344C646.81 279.405 646.49 278.659 645.85 278.104C645.21 277.549 644.41 277.272 643.45 277.272C642.532 277.272 641.754 277.539 641.114 278.072C640.495 278.605 640.111 279.363 639.962 280.344H646.81ZM660.769 276.12C661.409 275.139 662.209 274.371 663.169 273.816C664.129 273.24 665.195 272.952 666.369 272.952V278.744H664.865C663.499 278.744 662.475 279.043 661.793 279.64C661.11 280.216 660.769 281.24 660.769 282.712V291H655.297V273.144H660.769V276.12ZM667.512 297.688V297.176C669.645 294.957 671.299 292.333 672.472 289.304C673.645 286.275 674.232 283.128 674.232 279.864C674.232 276.579 673.624 273.389 672.408 270.296C671.192 267.181 669.464 264.515 667.224 262.296V261.784H672.6C674.797 263.789 676.493 266.392 677.688 269.592C678.883 272.771 679.48 276.195 679.48 279.864C679.48 283.491 678.904 286.872 677.752 290.008C676.6 293.144 674.989 295.704 672.92 297.688H667.512ZM216.064 316.536V331.832C216.064 334.2 215.392 336.024 214.048 337.304C212.725 338.584 210.933 339.224 208.672 339.224C206.304 339.224 204.405 338.552 202.976 337.208C201.547 335.864 200.832 333.955 200.832 331.48H206.272C206.272 332.419 206.464 333.133 206.848 333.624C207.232 334.093 207.787 334.328 208.512 334.328C209.173 334.328 209.685 334.115 210.048 333.688C210.411 333.261 210.592 332.643 210.592 331.832V316.536H216.064ZM219.396 330.04C219.396 328.205 219.737 326.595 220.42 325.208C221.124 323.821 222.073 322.755 223.268 322.008C224.463 321.261 225.796 320.888 227.268 320.888C228.527 320.888 229.625 321.144 230.564 321.656C231.524 322.168 232.26 322.84 232.772 323.672V321.144H238.244V339H232.772V336.472C232.239 337.304 231.492 337.976 230.532 338.488C229.593 339 228.495 339.256 227.236 339.256C225.785 339.256 224.463 338.883 223.268 338.136C222.073 337.368 221.124 336.291 220.42 334.904C219.737 333.496 219.396 331.875 219.396 330.04ZM232.772 330.072C232.772 328.707 232.388 327.629 231.62 326.84C230.873 326.051 229.956 325.656 228.868 325.656C227.78 325.656 226.852 326.051 226.084 326.84C225.337 327.608 224.964 328.675 224.964 330.04C224.964 331.405 225.337 332.493 226.084 333.304C226.852 334.093 227.78 334.488 228.868 334.488C229.956 334.488 230.873 334.093 231.62 333.304C232.388 332.515 232.772 331.437 232.772 330.072ZM247.675 315.32V339H242.203V315.32H247.675ZM250.552 330.04C250.552 328.205 250.894 326.595 251.576 325.208C252.28 323.821 253.23 322.755 254.424 322.008C255.619 321.261 256.952 320.888 258.424 320.888C259.683 320.888 260.782 321.144 261.72 321.656C262.68 322.168 263.416 322.84 263.928 323.672V321.144H269.4V339H263.928V336.472C263.395 337.304 262.648 337.976 261.688 338.488C260.75 339 259.651 339.256 258.392 339.256C256.942 339.256 255.619 338.883 254.424 338.136C253.23 337.368 252.28 336.291 251.576 334.904C250.894 333.496 250.552 331.875 250.552 330.04ZM263.928 330.072C263.928 328.707 263.544 327.629 262.776 326.84C262.03 326.051 261.112 325.656 260.024 325.656C258.936 325.656 258.008 326.051 257.24 326.84C256.494 327.608 256.12 328.675 256.12 330.04C256.12 331.405 256.494 332.493 257.24 333.304C258.008 334.093 258.936 334.488 260.024 334.488C261.112 334.488 262.03 334.093 262.776 333.304C263.544 332.515 263.928 331.437 263.928 330.072ZM284.239 320.952C286.33 320.952 287.994 321.635 289.231 323C290.49 324.344 291.119 326.2 291.119 328.568V339H285.679V329.304C285.679 328.109 285.37 327.181 284.751 326.52C284.132 325.859 283.3 325.528 282.255 325.528C281.21 325.528 280.378 325.859 279.759 326.52C279.14 327.181 278.831 328.109 278.831 329.304V339H273.359V321.144H278.831V323.512C279.386 322.723 280.132 322.104 281.071 321.656C282.01 321.187 283.066 320.952 284.239 320.952ZM312.615 339L307.175 331.512V339H301.703V315.32H307.175V328.408L312.583 321.144H319.335L311.911 330.104L319.399 339H312.615ZM320.396 330.04C320.396 328.205 320.737 326.595 321.42 325.208C322.124 323.821 323.073 322.755 324.268 322.008C325.463 321.261 326.796 320.888 328.268 320.888C329.527 320.888 330.625 321.144 331.564 321.656C332.524 322.168 333.26 322.84 333.772 323.672V321.144H339.244V339H333.772V336.472C333.239 337.304 332.492 337.976 331.532 338.488C330.593 339 329.495 339.256 328.236 339.256C326.785 339.256 325.463 338.883 324.268 338.136C323.073 337.368 322.124 336.291 321.42 334.904C320.737 333.496 320.396 331.875 320.396 330.04ZM333.772 330.072C333.772 328.707 333.388 327.629 332.62 326.84C331.873 326.051 330.956 325.656 329.868 325.656C328.78 325.656 327.852 326.051 327.084 326.84C326.337 327.608 325.964 328.675 325.964 330.04C325.964 331.405 326.337 332.493 327.084 333.304C327.852 334.093 328.78 334.488 329.868 334.488C330.956 334.488 331.873 334.093 332.62 333.304C333.388 332.515 333.772 331.437 333.772 330.072ZM350.467 339.256C348.909 339.256 347.523 338.989 346.307 338.456C345.091 337.923 344.131 337.197 343.427 336.28C342.723 335.341 342.328 334.296 342.243 333.144H347.651C347.715 333.763 348.003 334.264 348.515 334.648C349.027 335.032 349.656 335.224 350.403 335.224C351.085 335.224 351.608 335.096 351.971 334.84C352.355 334.563 352.547 334.211 352.547 333.784C352.547 333.272 352.28 332.899 351.747 332.664C351.213 332.408 350.349 332.131 349.155 331.832C347.875 331.533 346.808 331.224 345.955 330.904C345.101 330.563 344.365 330.04 343.747 329.336C343.128 328.611 342.819 327.64 342.819 326.424C342.819 325.4 343.096 324.472 343.651 323.64C344.227 322.787 345.059 322.115 346.147 321.624C347.256 321.133 348.568 320.888 350.083 320.888C352.323 320.888 354.083 321.443 355.363 322.552C356.664 323.661 357.411 325.133 357.603 326.968H352.547C352.461 326.349 352.184 325.859 351.715 325.496C351.267 325.133 350.669 324.952 349.923 324.952C349.283 324.952 348.792 325.08 348.451 325.336C348.109 325.571 347.939 325.901 347.939 326.328C347.939 326.84 348.205 327.224 348.739 327.48C349.293 327.736 350.147 327.992 351.299 328.248C352.621 328.589 353.699 328.931 354.531 329.272C355.363 329.592 356.088 330.125 356.707 330.872C357.347 331.597 357.677 332.579 357.699 333.816C357.699 334.861 357.4 335.8 356.803 336.632C356.227 337.443 355.384 338.083 354.275 338.552C353.187 339.021 351.917 339.256 350.467 339.256ZM386.679 321.144L381.847 339H375.799L372.983 327.416L370.071 339H364.055L359.191 321.144H364.663L367.191 333.912L370.199 321.144H375.991L379.031 333.848L381.527 321.144H386.679ZM387.677 330.04C387.677 328.205 388.019 326.595 388.701 325.208C389.405 323.821 390.355 322.755 391.549 322.008C392.744 321.261 394.077 320.888 395.549 320.888C396.808 320.888 397.907 321.144 398.845 321.656C399.805 322.168 400.541 322.84 401.053 323.672V321.144H406.525V339H401.053V336.472C400.52 337.304 399.773 337.976 398.813 338.488C397.875 339 396.776 339.256 395.517 339.256C394.067 339.256 392.744 338.883 391.549 338.136C390.355 337.368 389.405 336.291 388.701 334.904C388.019 333.496 387.677 331.875 387.677 330.04ZM401.053 330.072C401.053 328.707 400.669 327.629 399.901 326.84C399.155 326.051 398.237 325.656 397.149 325.656C396.061 325.656 395.133 326.051 394.365 326.84C393.619 327.608 393.245 328.675 393.245 330.04C393.245 331.405 393.619 332.493 394.365 333.304C395.133 334.093 396.061 334.488 397.149 334.488C398.237 334.488 399.155 334.093 399.901 333.304C400.669 332.515 401.053 331.437 401.053 330.072ZM415.956 324.12C416.596 323.139 417.396 322.371 418.356 321.816C419.316 321.24 420.383 320.952 421.556 320.952V326.744H420.052C418.687 326.744 417.663 327.043 416.98 327.64C416.297 328.216 415.956 329.24 415.956 330.712V339H410.484V321.144H415.956V324.12ZM426.924 319.288C425.964 319.288 425.174 319.011 424.556 318.456C423.958 317.88 423.66 317.176 423.66 316.344C423.66 315.491 423.958 314.787 424.556 314.232C425.174 313.656 425.964 313.368 426.924 313.368C427.862 313.368 428.63 313.656 429.228 314.232C429.846 314.787 430.156 315.491 430.156 316.344C430.156 317.176 429.846 317.88 429.228 318.456C428.63 319.011 427.862 319.288 426.924 319.288ZM429.644 321.144V339H424.172V321.144H429.644ZM451.27 320.952C453.361 320.952 455.025 321.635 456.262 323C457.521 324.344 458.15 326.2 458.15 328.568V339H452.71V329.304C452.71 328.109 452.401 327.181 451.782 326.52C451.164 325.859 450.332 325.528 449.286 325.528C448.241 325.528 447.409 325.859 446.79 326.52C446.172 327.181 445.862 328.109 445.862 329.304V339H440.39V321.144H445.862V323.512C446.417 322.723 447.164 322.104 448.102 321.656C449.041 321.187 450.097 320.952 451.27 320.952ZM470.081 339.256C468.331 339.256 466.753 338.883 465.345 338.136C463.958 337.389 462.859 336.323 462.049 334.936C461.259 333.549 460.865 331.928 460.865 330.072C460.865 328.237 461.27 326.627 462.081 325.24C462.891 323.832 464.001 322.755 465.409 322.008C466.817 321.261 468.395 320.888 470.145 320.888C471.894 320.888 473.473 321.261 474.881 322.008C476.289 322.755 477.398 323.832 478.209 325.24C479.019 326.627 479.425 328.237 479.425 330.072C479.425 331.907 479.009 333.528 478.177 334.936C477.366 336.323 476.246 337.389 474.817 338.136C473.409 338.883 471.83 339.256 470.081 339.256ZM470.081 334.52C471.126 334.52 472.011 334.136 472.737 333.368C473.483 332.6 473.857 331.501 473.857 330.072C473.857 328.643 473.494 327.544 472.769 326.776C472.065 326.008 471.19 325.624 470.145 325.624C469.078 325.624 468.193 326.008 467.489 326.776C466.785 327.523 466.433 328.621 466.433 330.072C466.433 331.501 466.774 332.6 467.457 333.368C468.161 334.136 469.035 334.52 470.081 334.52ZM488.757 322.232C488.842 319.949 489.589 318.189 490.997 316.952C492.405 315.715 494.314 315.096 496.725 315.096C498.325 315.096 499.69 315.373 500.821 315.928C501.973 316.483 502.837 317.24 503.413 318.2C504.01 319.16 504.309 320.237 504.309 321.432C504.309 322.84 503.957 323.992 503.253 324.888C502.549 325.763 501.728 326.36 500.789 326.68V326.808C502.005 327.213 502.965 327.885 503.669 328.824C504.373 329.763 504.725 330.968 504.725 332.44C504.725 333.763 504.416 334.936 503.797 335.96C503.2 336.963 502.314 337.752 501.141 338.328C499.989 338.904 498.613 339.192 497.013 339.192C494.453 339.192 492.405 338.563 490.869 337.304C489.354 336.045 488.554 334.147 488.469 331.608H493.781C493.802 332.547 494.069 333.293 494.581 333.848C495.093 334.381 495.84 334.648 496.821 334.648C497.653 334.648 498.293 334.413 498.741 333.944C499.21 333.453 499.445 332.813 499.445 332.024C499.445 331 499.114 330.264 498.453 329.816C497.813 329.347 496.778 329.112 495.349 329.112H494.325V324.664H495.349C496.437 324.664 497.312 324.483 497.973 324.12C498.656 323.736 498.997 323.064 498.997 322.104C498.997 321.336 498.784 320.739 498.357 320.312C497.93 319.885 497.344 319.672 496.597 319.672C495.786 319.672 495.178 319.917 494.773 320.408C494.389 320.899 494.165 321.507 494.101 322.232H488.757ZM507.748 334.616C508.473 334.04 508.804 333.773 508.74 333.816C510.831 332.088 512.473 330.669 513.668 329.56C514.884 328.451 515.908 327.288 516.74 326.072C517.572 324.856 517.988 323.672 517.988 322.52C517.988 321.645 517.785 320.963 517.38 320.472C516.975 319.981 516.367 319.736 515.556 319.736C514.745 319.736 514.105 320.045 513.636 320.664C513.188 321.261 512.964 322.115 512.964 323.224H507.684C507.727 321.411 508.111 319.896 508.836 318.68C509.583 317.464 510.553 316.568 511.748 315.992C512.964 315.416 514.308 315.128 515.78 315.128C518.319 315.128 520.228 315.779 521.508 317.08C522.809 318.381 523.46 320.077 523.46 322.168C523.46 324.451 522.681 326.573 521.124 328.536C519.567 330.477 517.583 332.376 515.172 334.232H523.812V338.68H507.748V334.616ZM549.707 316.536V320.92H543.755V339H538.283V320.92H532.331V316.536H549.707ZM551.365 330.04C551.365 328.205 551.706 326.595 552.389 325.208C553.093 323.821 554.042 322.755 555.237 322.008C556.431 321.261 557.765 320.888 559.237 320.888C560.495 320.888 561.594 321.144 562.533 321.656C563.493 322.168 564.229 322.84 564.741 323.672V321.144H570.213V339H564.741V336.472C564.207 337.304 563.461 337.976 562.501 338.488C561.562 339 560.463 339.256 559.205 339.256C557.754 339.256 556.431 338.883 555.237 338.136C554.042 337.368 553.093 336.291 552.389 334.904C551.706 333.496 551.365 331.875 551.365 330.04ZM564.741 330.072C564.741 328.707 564.357 327.629 563.589 326.84C562.842 326.051 561.925 325.656 560.837 325.656C559.749 325.656 558.821 326.051 558.053 326.84C557.306 327.608 556.933 328.675 556.933 330.04C556.933 331.405 557.306 332.493 558.053 333.304C558.821 334.093 559.749 334.488 560.837 334.488C561.925 334.488 562.842 334.093 563.589 333.304C564.357 332.515 564.741 331.437 564.741 330.072ZM579.644 323.672C580.156 322.84 580.892 322.168 581.852 321.656C582.812 321.144 583.91 320.888 585.148 320.888C586.62 320.888 587.953 321.261 589.148 322.008C590.342 322.755 591.281 323.821 591.964 325.208C592.668 326.595 593.02 328.205 593.02 330.04C593.02 331.875 592.668 333.496 591.964 334.904C591.281 336.291 590.342 337.368 589.148 338.136C587.953 338.883 586.62 339.256 585.148 339.256C583.889 339.256 582.79 339.011 581.852 338.52C580.913 338.008 580.177 337.336 579.644 336.504V339H574.172V315.32H579.644V323.672ZM587.452 330.04C587.452 328.675 587.068 327.608 586.3 326.84C585.553 326.051 584.625 325.656 583.516 325.656C582.428 325.656 581.5 326.051 580.732 326.84C579.985 327.629 579.612 328.707 579.612 330.072C579.612 331.437 579.985 332.515 580.732 333.304C581.5 334.093 582.428 334.488 583.516 334.488C584.604 334.488 585.532 334.093 586.3 333.304C587.068 332.493 587.452 331.405 587.452 330.04ZM594.802 330.04C594.802 328.205 595.144 326.595 595.826 325.208C596.53 323.821 597.48 322.755 598.674 322.008C599.869 321.261 601.202 320.888 602.674 320.888C603.933 320.888 605.032 321.144 605.97 321.656C606.93 322.168 607.666 322.84 608.178 323.672V321.144H613.65V339H608.178V336.472C607.645 337.304 606.898 337.976 605.938 338.488C605 339 603.901 339.256 602.642 339.256C601.192 339.256 599.869 338.883 598.674 338.136C597.48 337.368 596.53 336.291 595.826 334.904C595.144 333.496 594.802 331.875 594.802 330.04ZM608.178 330.072C608.178 328.707 607.794 327.629 607.026 326.84C606.28 326.051 605.362 325.656 604.274 325.656C603.186 325.656 602.258 326.051 601.49 326.84C600.744 327.608 600.37 328.675 600.37 330.04C600.37 331.405 600.744 332.493 601.49 333.304C602.258 334.093 603.186 334.488 604.274 334.488C605.362 334.488 606.28 334.093 607.026 333.304C607.794 332.515 608.178 331.437 608.178 330.072ZM628.489 320.952C630.58 320.952 632.244 321.635 633.481 323C634.74 324.344 635.369 326.2 635.369 328.568V339H629.929V329.304C629.929 328.109 629.62 327.181 629.001 326.52C628.382 325.859 627.55 325.528 626.505 325.528C625.46 325.528 624.628 325.859 624.009 326.52C623.39 327.181 623.081 328.109 623.081 329.304V339H617.609V321.144H623.081V323.512C623.636 322.723 624.382 322.104 625.321 321.656C626.26 321.187 627.316 320.952 628.489 320.952ZM638.084 330.04C638.084 328.205 638.425 326.595 639.108 325.208C639.812 323.821 640.761 322.755 641.956 322.008C643.15 321.261 644.484 320.888 645.956 320.888C647.214 320.888 648.313 321.144 649.252 321.656C650.212 322.168 650.948 322.84 651.46 323.672V321.144H656.932V339H651.46V336.472C650.926 337.304 650.18 337.976 649.22 338.488C648.281 339 647.182 339.256 645.924 339.256C644.473 339.256 643.15 338.883 641.956 338.136C640.761 337.368 639.812 336.291 639.108 334.904C638.425 333.496 638.084 331.875 638.084 330.04ZM651.46 330.072C651.46 328.707 651.076 327.629 650.308 326.84C649.561 326.051 648.644 325.656 647.556 325.656C646.468 325.656 645.54 326.051 644.772 326.84C644.025 327.608 643.652 328.675 643.652 330.04C643.652 331.405 644.025 332.493 644.772 333.304C645.54 334.093 646.468 334.488 647.556 334.488C648.644 334.488 649.561 334.093 650.308 333.304C651.076 332.515 651.46 331.437 651.46 330.072ZM671.77 320.952C673.861 320.952 675.525 321.635 676.762 323C678.021 324.344 678.65 326.2 678.65 328.568V339H673.21V329.304C673.21 328.109 672.901 327.181 672.282 326.52C671.664 325.859 670.832 325.528 669.786 325.528C668.741 325.528 667.909 325.859 667.29 326.52C666.672 327.181 666.362 328.109 666.362 329.304V339H660.89V321.144H666.362V323.512C666.917 322.723 667.664 322.104 668.602 321.656C669.541 321.187 670.597 320.952 671.77 320.952Z" fill="white"/>
<path d="M105 108.5C105 110.984 107.016 113 109.5 113H142.5C144.984 113 147 110.984 147 108.5V83H105V108.5ZM135 90.125C135 89.5063 135.506 89 136.125 89H139.875C140.494 89 141 89.5063 141 90.125V93.875C141 94.4937 140.494 95 139.875 95H136.125C135.506 95 135 94.4937 135 93.875V90.125ZM135 102.125C135 101.506 135.506 101 136.125 101H139.875C140.494 101 141 101.506 141 102.125V105.875C141 106.494 140.494 107 139.875 107H136.125C135.506 107 135 106.494 135 105.875V102.125ZM123 90.125C123 89.5063 123.506 89 124.125 89H127.875C128.494 89 129 89.5063 129 90.125V93.875C129 94.4937 128.494 95 127.875 95H124.125C123.506 95 123 94.4937 123 93.875V90.125ZM123 102.125C123 101.506 123.506 101 124.125 101H127.875C128.494 101 129 101.506 129 102.125V105.875C129 106.494 128.494 107 127.875 107H124.125C123.506 107 123 106.494 123 105.875V102.125ZM111 90.125C111 89.5063 111.506 89 112.125 89H115.875C116.494 89 117 89.5063 117 90.125V93.875C117 94.4937 116.494 95 115.875 95H112.125C111.506 95 111 94.4937 111 93.875V90.125ZM111 102.125C111 101.506 111.506 101 112.125 101H115.875C116.494 101 117 101.506 117 102.125V105.875C117 106.494 116.494 107 115.875 107H112.125C111.506 107 111 106.494 111 105.875V102.125ZM142.5 71H138V66.5C138 65.675 137.325 65 136.5 65H133.5C132.675 65 132 65.675 132 66.5V71H120V66.5C120 65.675 119.325 65 118.5 65H115.5C114.675 65 114 65.675 114 66.5V71H109.5C107.016 71 105 73.0156 105 75.5V80H147V75.5C147 73.0156 144.984 71 142.5 71Z" fill="white"/>
<path d="M125.805 160C115.417 160 107 168.417 107 178.805C107 189.193 115.417 197.609 125.805 197.609C136.193 197.609 144.609 189.193 144.609 178.805C144.609 168.417 136.193 160 125.805 160ZM130.134 186.546L123.447 181.686C123.211 181.512 123.075 181.239 123.075 180.951V168.189C123.075 167.689 123.484 167.279 123.985 167.279H127.624C128.125 167.279 128.534 167.689 128.534 168.189V178.63L133.349 182.133C133.759 182.429 133.842 182.998 133.546 183.407L131.408 186.349C131.112 186.751 130.544 186.842 130.134 186.546Z" fill="white"/>
<path d="M134.255 262.247L105.02 275.74C101.647 277.315 102.772 282.262 106.37 282.262H118.738V294.63C118.738 298.228 123.685 299.353 125.26 295.98L138.753 266.745C139.877 264.046 136.953 261.122 134.255 262.247Z" fill="white"/>
<defs>
<filter id="filter0_d_30_6214" x="0" y="0" width="790" height="494" filterUnits="userSpaceOnUse" color-interpolation-filters="sRGB">
<feFlood flood-opacity="0" result="BackgroundImageFix"/>
<feColorMatrix in="SourceAlpha" type="matrix" values="0 0 0 0 0 0 0 0 0 0 0 0 0 0 0 0 0 0 127 0" result="hardAlpha"/>
<feMorphology radius="3" operator="dilate" in="SourceAlpha" result="effect1_dropShadow_30_6214"/>
<feOffset dx="3" dy="3"/>
<feGaussianBlur stdDeviation="10"/>
<feComposite in2="hardAlpha" operator="out"/>
<feColorMatrix type="matrix" values="0 0 0 0 0 0 0 0 0 0 0 0 0 0 0 0 0 0 0.25 0"/>
<feBlend mode="normal" in2="BackgroundImageFix" result="effect1_dropShadow_30_6214"/>
<feBlend mode="normal" in="SourceGraphic" in2="effect1_dropShadow_30_6214" result="shape"/>
</filter>
<clipPath id="clip0_30_6214">
<rect width="171.891" height="308" fill="white" transform="translate(576 160)"/>
</clipPath>
</defs>
</svg>
