<svg width="458" height="98" viewBox="0 0 458 98" fill="none" xmlns="http://www.w3.org/2000/svg">
<rect x="35" y="61" width="396" height="28" fill="black"/>
<path d="M72.5625 47.9062C72.5625 50.4896 72.125 52.9062 71.25 55.1562C70.3958 57.3854 69.2292 59.4375 67.75 61.3125C66.2917 63.1667 64.5833 64.8229 62.625 66.2812C60.6667 67.7188 58.5833 68.9375 56.375 69.9375C54.1875 70.9375 51.9375 71.6979 49.625 72.2188C47.3333 72.7396 45.1042 73 42.9375 73C42.7292 73.0208 42.3438 73.0312 41.7812 73.0312C41.2396 73.0312 40.6042 73.0312 39.875 73.0312C39.1458 73.0521 38.3542 73.0625 37.5 73.0625C36.6458 73.0625 35.8125 73.0625 35 73.0625C34.1875 73.0625 33.4271 73.0521 32.7188 73.0312C32.0104 73.0312 31.4271 73.0208 30.9688 73C31.3229 73 31.6354 72.9062 31.9062 72.7188C32.1771 72.5312 32.4062 72.2812 32.5938 71.9688C32.8021 71.6562 32.9688 71.3021 33.0938 70.9062C33.2396 70.4896 33.3646 70.0729 33.4688 69.6562C33.6771 68.6562 33.8021 67.5312 33.8438 66.2812C33.8438 64.7396 33.8646 62.4479 33.9062 59.4062C33.9271 58.1146 33.9479 56.5938 33.9688 54.8438C33.9896 53.0729 34.0208 51.0521 34.0625 48.7812C34.1042 46.4896 34.1458 43.9167 34.1875 41.0625C34.25 38.2083 34.3125 35.0312 34.375 31.5312C33.4583 31.6354 32.5417 31.7188 31.625 31.7812C30.7292 31.8229 29.7812 31.8229 28.7812 31.7812L34.625 27.9375C35.5833 28.0625 36.5729 28.1458 37.5938 28.1875C38.6146 28.2292 39.625 28.25 40.625 28.25C42.4583 28.25 44.1458 28.1771 45.6875 28.0312C47.25 27.8854 48.7917 27.8125 50.3125 27.8125C51.6875 27.8125 53.1875 27.9271 54.8125 28.1562C56.4583 28.3646 58.1042 28.7604 59.75 29.3438C61.3958 29.9062 62.9896 30.6667 64.5312 31.625C66.0729 32.5833 67.4375 33.8125 68.625 35.3125C69.8125 36.7917 70.7604 38.5729 71.4688 40.6562C72.1979 42.7188 72.5625 45.1354 72.5625 47.9062ZM39.0938 64.375C39.0312 65.0208 38.8958 65.6458 38.6875 66.25C38.5208 66.7708 38.2708 67.3229 37.9375 67.9062C37.625 68.4896 37.1979 68.9896 36.6562 69.4062C39.5521 69.5521 41.9375 69.6458 43.8125 69.6875C45.6875 69.7292 47.1875 69.75 48.3125 69.75C51.1875 69.75 53.7708 69.2396 56.0625 68.2188C58.3542 67.1771 60.2917 65.7812 61.875 64.0312C63.4792 62.2604 64.6979 60.2083 65.5312 57.875C66.3854 55.5417 66.8125 53.0729 66.8125 50.4688C66.8125 47.9062 66.4688 45.6354 65.7812 43.6562C65.1146 41.6562 64.2188 39.9167 63.0938 38.4375C61.9688 36.9375 60.6875 35.6771 59.25 34.6562C57.8125 33.6354 56.3333 32.8125 54.8125 32.1875C53.3125 31.5417 51.8229 31.0833 50.3438 30.8125C48.8646 30.5208 47.5312 30.375 46.3438 30.375C45.1146 30.375 43.9688 30.4167 42.9062 30.5C41.8438 30.5833 40.8125 30.6875 39.8125 30.8125C39.75 34.6042 39.6875 37.9896 39.625 40.9688C39.5833 43.9271 39.5417 46.5521 39.5 48.8438C39.4583 51.1146 39.4167 53.0833 39.375 54.75C39.3333 56.3958 39.3021 57.7917 39.2812 58.9375C39.1979 61.625 39.1354 63.4375 39.0938 64.375ZM98.3125 48.9375C98.375 50.5625 98.3229 52.1562 98.1562 53.7188C97.9896 55.2812 97.7396 56.75 97.4062 58.125C97.0938 59.4792 96.6979 60.7188 96.2188 61.8438C95.7604 62.9479 95.2604 63.8542 94.7188 64.5625C94.3646 65.0417 93.8646 65.6042 93.2188 66.25C92.5938 66.875 91.8854 67.5312 91.0938 68.2188C90.3021 68.8854 89.4583 69.5521 88.5625 70.2188C87.6667 70.8854 86.7812 71.4792 85.9062 72C85.0312 72.5 84.1875 72.9062 83.375 73.2188C82.5833 73.5521 81.8854 73.7188 81.2812 73.7188C80.5729 73.7188 79.9583 73.5312 79.4375 73.1562C78.9167 72.8021 78.4688 72.3333 78.0938 71.75C77.7188 71.1458 77.4062 70.4792 77.1562 69.75C76.9062 69 76.7083 68.2604 76.5625 67.5312C76.4167 66.7812 76.3125 66.0729 76.25 65.4062C76.2083 64.7188 76.1875 64.1354 76.1875 63.6562C76.1875 61.8229 76.3542 60.0104 76.6875 58.2188C77.0208 56.4062 77.5312 54.6875 78.2188 53.0625C78.9271 51.4375 79.8125 49.9375 80.875 48.5625C81.9375 47.1667 83.2083 45.9688 84.6875 44.9688C85.6458 44.3229 86.5104 43.7396 87.2812 43.2188C88.0521 42.6771 88.7604 42.2292 89.4062 41.875C90.0521 41.5208 90.6354 41.25 91.1562 41.0625C91.6979 40.8542 92.2083 40.75 92.6875 40.75C93.1458 40.75 93.6771 40.875 94.2812 41.125C94.9062 41.375 95.5 41.8125 96.0625 42.4375C96.6458 43.0417 97.1458 43.875 97.5625 44.9375C97.9792 45.9792 98.2292 47.3125 98.3125 48.9375ZM93.375 54.125C93.375 53.25 93.3125 52.25 93.1875 51.125C93.0625 50 92.8125 48.9479 92.4375 47.9688C92.0625 46.9896 91.5312 46.1667 90.8438 45.5C90.1771 44.8125 89.2812 44.4688 88.1562 44.4688C87.6979 44.4688 87.2188 44.5729 86.7188 44.7812C86.2396 44.9688 85.7917 45.2708 85.375 45.6875C84.5417 46.5208 83.8646 47.4792 83.3438 48.5625C82.8438 49.625 82.4479 50.75 82.1562 51.9375C81.8646 53.125 81.6667 54.3229 81.5625 55.5312C81.4583 56.7396 81.4062 57.8854 81.4062 58.9688C81.4062 59.5312 81.4167 60.1875 81.4375 60.9375C81.4583 61.6667 81.5208 62.4271 81.625 63.2188C81.7292 63.9896 81.875 64.7604 82.0625 65.5312C82.2708 66.3021 82.5417 66.9896 82.875 67.5938C83.2292 68.1771 83.6667 68.6562 84.1875 69.0312C84.7083 69.4062 85.3438 69.5938 86.0938 69.5938C87.0938 69.5938 87.9688 69.3125 88.7188 68.75C89.4688 68.1667 90.1146 67.4167 90.6562 66.5C91.1979 65.5833 91.6354 64.5521 91.9688 63.4062C92.3229 62.2604 92.6042 61.1146 92.8125 59.9688C93.0208 58.8229 93.1667 57.7396 93.25 56.7188C93.3333 55.6771 93.375 54.8125 93.375 54.125ZM132.688 64.875C132.5 65.1667 132.24 65.5208 131.906 65.9375C131.573 66.3333 131.24 66.7292 130.906 67.125C130.531 67.5833 130.125 68.0521 129.688 68.5312C129.146 69.1979 128.562 69.8438 127.938 70.4688C127.312 71.0938 126.688 71.6562 126.062 72.1562C125.458 72.6354 124.865 73.0208 124.281 73.3125C123.698 73.6042 123.177 73.7396 122.719 73.7188C121.844 73.6771 121.24 73.1458 120.906 72.125C120.573 71.0833 120.406 69.5833 120.406 67.625C120.406 66.5833 120.438 65.4583 120.5 64.25C120.562 63.0417 120.656 61.6875 120.781 60.1875C120.323 60.9167 119.885 61.5833 119.469 62.1875C119.052 62.7917 118.677 63.3229 118.344 63.7812C117.969 64.3229 117.594 64.8125 117.219 65.25C116.115 66.6042 115.042 67.8021 114 68.8438C112.979 69.8854 112.031 70.7604 111.156 71.4688C110.302 72.1771 109.542 72.7188 108.875 73.0938C108.229 73.4688 107.719 73.6771 107.344 73.7188C106.969 73.7604 106.51 73.6354 105.969 73.3438C105.448 73.0521 104.948 72.4896 104.469 71.6562C103.99 70.8229 103.573 69.6562 103.219 68.1562C102.885 66.6562 102.729 64.7083 102.75 62.3125C102.771 59.9167 103.021 57.8125 103.5 56C104 54.1667 104.635 52.5729 105.406 51.2188C106.198 49.8438 107.073 48.6667 108.031 47.6875C108.99 46.6875 109.938 45.8229 110.875 45.0938C112.812 43.6146 114.667 42.4375 116.438 41.5625C118.229 40.6667 119.979 40.1979 121.688 40.1562C122.25 40.1354 122.802 40.1458 123.344 40.1875C123.823 40.2292 124.333 40.3021 124.875 40.4062C125.438 40.4896 125.969 40.625 126.469 40.8125L127.375 40.0938C127.25 40.6771 127.115 41.4688 126.969 42.4688C126.844 43.4688 126.719 44.5938 126.594 45.8438C126.469 47.0938 126.344 48.4271 126.219 49.8438C126.094 51.2604 125.979 52.6875 125.875 54.125C125.792 55.5417 125.708 56.9271 125.625 58.2812C125.542 59.6146 125.469 60.8333 125.406 61.9375C125.365 63.0417 125.333 63.9792 125.312 64.75C125.312 65.5208 125.323 66.0521 125.344 66.3438C125.448 67.5312 125.719 68.3438 126.156 68.7812C126.615 69.2188 127.24 69.1771 128.031 68.6562C128.344 68.4062 128.729 68.0104 129.188 67.4688C129.583 67.0104 130.062 66.3854 130.625 65.5938C131.208 64.7812 131.896 63.7292 132.688 62.4375V64.875ZM122 44.9688C120.021 44.7188 118.396 44.5938 117.125 44.5938C115.771 44.5938 114.594 44.8125 113.594 45.25C112.594 45.6875 111.74 46.2812 111.031 47.0312C110.323 47.7604 109.74 48.6146 109.281 49.5938C108.823 50.5521 108.458 51.5729 108.188 52.6562C107.938 53.7396 107.76 54.8438 107.656 55.9688C107.573 57.0938 107.531 58.1667 107.531 59.1875C107.531 59.5417 107.552 60.0208 107.594 60.625C107.635 61.2292 107.708 61.875 107.812 62.5625C107.938 63.25 108.083 63.9479 108.25 64.6562C108.438 65.3646 108.667 66.0104 108.938 66.5938C109.229 67.1562 109.562 67.625 109.938 68C110.312 68.3542 110.75 68.5312 111.25 68.5312C111.792 68.5312 112.448 68.2396 113.219 67.6562C114.01 67.0521 114.958 66.0417 116.062 64.625C116.708 63.75 117.354 62.6979 118 61.4688C118.542 60.4271 119.115 59.1458 119.719 57.625C120.344 56.1042 120.896 54.3333 121.375 52.3125L122 44.9688ZM207.188 69.4688C205.396 70.8854 203.729 72 202.188 72.8125C200.667 73.6042 199.333 74.0312 198.188 74.0938C197.104 74.1771 195.969 73.9688 194.781 73.4688C193.594 72.9896 192.365 72.3125 191.094 71.4375C189.844 70.5625 188.562 69.5312 187.25 68.3438C185.958 67.1562 184.667 65.8958 183.375 64.5625C181.917 65.9792 180.365 67.2812 178.719 68.4688C177.073 69.6354 175.396 70.6562 173.688 71.5312C172 72.3854 170.323 73.0417 168.656 73.5C166.99 73.9792 165.417 74.1979 163.938 74.1562C162.917 74.1354 161.854 73.9896 160.75 73.7188C159.646 73.4688 158.562 73.0938 157.5 72.5938C156.458 72.0938 155.469 71.4688 154.531 70.7188C153.594 69.9688 152.771 69.0938 152.062 68.0938C151.375 67.0729 150.833 65.9375 150.438 64.6875C150.062 63.4167 149.906 62.0104 149.969 60.4688C150.052 58.6354 150.469 57.0104 151.219 55.5938C151.99 54.1771 152.927 52.9375 154.031 51.875C155.156 50.7917 156.375 49.875 157.688 49.125C159 48.3542 160.271 47.6979 161.5 47.1562C160.583 46.7604 159.719 46.3229 158.906 45.8438C158.115 45.3438 157.417 44.75 156.812 44.0625C156.208 43.3542 155.729 42.5417 155.375 41.625C155.021 40.6875 154.844 39.5833 154.844 38.3125C154.844 36.6875 155.25 35.1146 156.062 33.5938C156.875 32.0729 158.094 30.7708 159.719 29.6875C161.052 28.75 162.333 27.9479 163.562 27.2812C164.792 26.6146 165.938 26.0625 167 25.625C168.083 25.1667 169.083 24.8125 170 24.5625C170.917 24.3125 171.729 24.1562 172.438 24.0938C173.792 23.9688 175.229 23.9583 176.75 24.0625C178.271 24.1458 179.677 24.4167 180.969 24.875C182.844 25.5208 183.177 26.2917 181.969 27.1875C181.719 27.375 181.365 27.6354 180.906 27.9688C180.51 28.2604 179.99 28.6354 179.344 29.0938C178.698 29.5521 177.875 30.125 176.875 30.8125C177.208 30.4167 177.396 30.0833 177.438 29.8125C177.479 29.5208 177.458 29.2917 177.375 29.125C177.292 28.9167 177.125 28.7604 176.875 28.6562C176.542 28.5104 175.99 28.3333 175.219 28.125C174.469 27.9167 173.615 27.7292 172.656 27.5625C171.719 27.3958 170.719 27.2708 169.656 27.1875C168.615 27.1042 167.625 27.1042 166.688 27.1875C165.75 27.25 164.885 27.5521 164.094 28.0938C163.323 28.6146 162.646 29.2708 162.062 30.0625C161.479 30.8333 161.021 31.6771 160.688 32.5938C160.375 33.5104 160.219 34.3958 160.219 35.25C160.219 36.1042 160.333 36.9792 160.562 37.875C160.812 38.75 161.229 39.5833 161.812 40.375C162.396 41.1458 163.177 41.8542 164.156 42.5C165.156 43.125 166.406 43.625 167.906 44C169.406 44.375 170.865 44.9896 172.281 45.8438C173.719 46.6771 175.094 47.625 176.406 48.6875C177.74 49.75 179.01 50.875 180.219 52.0625C181.427 53.25 182.573 54.3854 183.656 55.4688L185.938 57.9062C186.667 56.0729 187.031 54.1667 187.031 52.1875C187.031 51.125 186.875 50.0417 186.562 48.9375C186.25 47.8333 185.781 46.8542 185.156 46C184.552 45.1458 183.792 44.4792 182.875 44C181.958 43.5208 180.896 43.375 179.688 43.5625L185.688 38.875C188.271 39.2292 190.573 39.4688 192.594 39.5938C194.635 39.7188 196.365 39.7812 197.781 39.7812C198.99 39.7812 200.188 39.7396 201.375 39.6562C202.583 39.5729 203.75 39.4167 204.875 39.1875C206.021 38.9583 207.104 38.6458 208.125 38.25C209.167 37.8333 210.115 37.3021 210.969 36.6562C209.448 37.9271 207.958 39.0104 206.5 39.9062C205.042 40.7812 203.552 41.5 202.031 42.0625C200.51 42.625 198.927 43.0417 197.281 43.3125C195.656 43.5625 193.927 43.6875 192.094 43.6875H191.594C191.885 44.3542 192.083 45.0312 192.188 45.7188C192.292 46.4062 192.344 47.0521 192.344 47.6562C192.344 49.6562 191.917 51.6875 191.062 53.75C190.208 55.7917 189.062 57.7917 187.625 59.75C188.771 60.9792 189.979 62.2188 191.25 63.4688C192.542 64.7188 193.865 65.8646 195.219 66.9062C196.573 67.9271 197.948 68.7604 199.344 69.4062C200.74 70.0521 202.125 70.375 203.5 70.375C204.292 70.375 204.99 70.2812 205.594 70.0938C206.219 69.9062 206.75 69.6979 207.188 69.4688ZM167.312 49.3125L164.062 48.1562C162.938 48.3646 162 48.5729 161.25 48.7812C160.5 48.9896 159.885 49.1771 159.406 49.3438C158.844 49.5521 158.385 49.7604 158.031 49.9688C157.615 50.2604 157.198 50.6458 156.781 51.125C156.365 51.5833 155.979 52.125 155.625 52.75C155.292 53.3542 155.01 54.0312 154.781 54.7812C154.573 55.5312 154.469 56.3333 154.469 57.1875C154.469 59.0417 154.885 60.75 155.719 62.3125C156.573 63.8542 157.677 65.1875 159.031 66.3125C160.385 67.4167 161.906 68.2812 163.594 68.9062C165.281 69.5104 166.969 69.8125 168.656 69.8125C171.365 69.8125 173.906 69.25 176.281 68.125C178.677 67 180.75 65.4896 182.5 63.5938C181.021 62.0521 179.573 60.5104 178.156 58.9688C176.74 57.4062 175.375 55.9688 174.062 54.6562C172.771 53.3438 171.552 52.2083 170.406 51.25C169.281 50.2917 168.25 49.6458 167.312 49.3125ZM211.562 36.1875C211.458 36.2917 211.354 36.3854 211.25 36.4688C211.167 36.5312 211.073 36.5938 210.969 36.6562C211.073 36.5938 211.167 36.5312 211.25 36.4688C211.354 36.3854 211.458 36.2917 211.562 36.1875ZM247.281 27.875C246.448 28.4583 245.521 29.0729 244.5 29.7188C243.5 30.3646 242.531 30.8854 241.594 31.2812C241.51 33.9479 241.438 36.375 241.375 38.5625C241.333 40.75 241.281 42.7292 241.219 44.5C241.177 46.25 241.146 47.8021 241.125 49.1562C241.104 50.5104 241.083 51.6979 241.062 52.7188C241.021 55.0938 241.01 56.9062 241.031 58.1562C240.99 59.6354 241.198 61.0729 241.656 62.4688C242.115 63.8646 242.854 65.1146 243.875 66.2188C244.917 67.3229 246.271 68.2083 247.938 68.875C249.604 69.5417 251.625 69.875 254 69.875C255.292 69.8333 256.635 69.6458 258.031 69.3125C259.219 69.0208 260.531 68.5833 261.969 68C263.406 67.4167 264.812 66.5625 266.188 65.4375V31.6562C265.896 31.6146 265.594 31.5938 265.281 31.5938C264.969 31.5938 264.667 31.5938 264.375 31.5938C263.792 31.5938 263.208 31.6146 262.625 31.6562C262.062 31.6771 261.542 31.7188 261.062 31.7812C262.042 30.9062 262.906 30.2396 263.656 29.7812C264.427 29.3229 265.083 28.9792 265.625 28.75C266.25 28.5 266.792 28.3542 267.25 28.3125C267.646 28.3125 268.146 28.3125 268.75 28.3125C269.354 28.2917 269.99 28.2708 270.656 28.25C271.344 28.2292 272.031 28.2083 272.719 28.1875C273.427 28.1458 274.073 28.1146 274.656 28.0938C275.26 28.0521 275.771 28.0208 276.188 28C276.625 27.9583 276.917 27.9167 277.062 27.875C276.333 28.3958 275.51 28.9479 274.594 29.5312C273.698 30.0938 272.833 30.5625 272 30.9375V63.1562C271.979 64.1771 271.917 65.125 271.812 66C271.708 66.75 271.562 67.4896 271.375 68.2188C271.208 68.9271 270.948 69.4167 270.594 69.6875C271.76 69.8542 272.792 69.9583 273.688 70C274.583 70.0417 275.365 70.0625 276.031 70.0625C277.219 70.0625 278.073 70.0208 278.594 69.9375C279.115 69.8542 279.406 69.7917 279.469 69.75C278.49 70.3125 277.594 70.8021 276.781 71.2188C275.969 71.6146 275.198 71.9479 274.469 72.2188C273.76 72.4688 273.062 72.6667 272.375 72.8125C271.708 72.9375 271.031 73 270.344 73H264.25C264.729 72.8333 265.094 72.4688 265.344 71.9062C265.615 71.3438 265.812 70.7604 265.938 70.1562C266.083 69.4688 266.167 68.7083 266.188 67.875V66.4062C263.979 68.1979 261.875 69.5729 259.875 70.5312C257.875 71.4896 256.094 72.1875 254.531 72.625C252.719 73.1458 251.01 73.4375 249.406 73.5C246.781 73.5 244.573 73.1562 242.781 72.4688C241.01 71.7604 239.583 70.7812 238.5 69.5312C237.438 68.2812 236.677 66.7812 236.219 65.0312C235.781 63.2812 235.594 61.3542 235.656 59.25C235.635 57.5208 235.646 55.3438 235.688 52.7188C235.708 50.4688 235.74 47.6146 235.781 44.1562C235.844 40.6771 235.927 36.4896 236.031 31.5938H234.625C234.042 31.5938 233.458 31.6146 232.875 31.6562C232.292 31.6771 231.76 31.7188 231.281 31.7812C232.26 30.9062 233.125 30.2396 233.875 29.7812C234.646 29.3229 235.302 28.9792 235.844 28.75C236.469 28.5 237.021 28.3542 237.5 28.3125C237.896 28.3125 238.396 28.3125 239 28.3125C239.604 28.2917 240.24 28.2708 240.906 28.25C241.594 28.2292 242.281 28.2083 242.969 28.1875C243.677 28.1458 244.323 28.1146 244.906 28.0938C245.51 28.0521 246.021 28.0208 246.438 28C246.854 27.9583 247.135 27.9167 247.281 27.875ZM279.469 69.75V69.7188H279.5C279.521 69.6979 279.542 69.6875 279.562 69.6875L279.469 69.75ZM302.281 42.8438C302.073 43.0729 301.771 43.375 301.375 43.75C301.021 44.0625 300.531 44.4688 299.906 44.9688C299.302 45.4479 298.5 46.0208 297.5 46.6875C297.75 46.4583 297.885 46.25 297.906 46.0625C297.927 45.875 297.906 45.7083 297.844 45.5625C297.76 45.3958 297.625 45.2396 297.438 45.0938C297.104 44.9062 296.562 44.7604 295.812 44.6562C295.083 44.5312 294.302 44.4688 293.469 44.4688C292.76 44.4688 292.094 44.5208 291.469 44.625C290.844 44.7083 290.333 44.8646 289.938 45.0938C289.562 45.3229 289.156 45.875 288.719 46.75C288.302 47.625 287.917 48.6875 287.562 49.9375C287.208 51.1875 286.917 52.5625 286.688 54.0625C286.458 55.5417 286.344 57.0104 286.344 58.4688C286.344 59.1562 286.375 59.9062 286.438 60.7188C286.521 61.5312 286.646 62.3438 286.812 63.1562C286.979 63.9479 287.208 64.7188 287.5 65.4688C287.792 66.1979 288.156 66.8438 288.594 67.4062C289.031 67.9688 289.542 68.4062 290.125 68.7188C290.708 69.0312 291.396 69.1562 292.188 69.0938C292.688 69.0104 293.25 68.7917 293.875 68.4375C294.396 68.1458 295 67.6979 295.688 67.0938C296.396 66.4688 297.146 65.6042 297.938 64.5L300.562 63.7188C299.458 64.9688 298.469 66.0417 297.594 66.9375C296.719 67.8125 295.979 68.5312 295.375 69.0938C294.667 69.7604 294.031 70.2917 293.469 70.6875C292.781 71.1667 292.135 71.6042 291.531 72C290.927 72.375 290.333 72.6979 289.75 72.9688C289.188 73.2188 288.625 73.3958 288.062 73.5C287.5 73.6042 286.927 73.625 286.344 73.5625C285.844 73.5208 285.302 73.2396 284.719 72.7188C284.156 72.1979 283.625 71.4792 283.125 70.5625C282.625 69.625 282.208 68.5 281.875 67.1875C281.542 65.875 281.375 64.3958 281.375 62.75C281.375 60.9583 281.542 59.1458 281.875 57.3125C282.229 55.4792 282.75 53.7188 283.438 52.0312C284.125 50.3229 285 48.75 286.062 47.3125C287.125 45.8542 288.375 44.625 289.812 43.625C290.562 43.1042 291.375 42.6458 292.25 42.25C293.146 41.8542 294.031 41.5312 294.906 41.2812C295.802 41.0312 296.656 40.8542 297.469 40.75C298.302 40.6458 299.031 40.6042 299.656 40.625C300.906 40.6875 301.75 40.9271 302.188 41.3438C302.646 41.7396 302.677 42.2396 302.281 42.8438ZM334.5 64.875C334.312 65.1667 334.052 65.5208 333.719 65.9375C333.385 66.3333 333.052 66.7292 332.719 67.125C332.344 67.5833 331.938 68.0521 331.5 68.5312C330.958 69.1979 330.375 69.8438 329.75 70.4688C329.125 71.0938 328.5 71.6562 327.875 72.1562C327.271 72.6354 326.677 73.0208 326.094 73.3125C325.51 73.6042 324.99 73.7396 324.531 73.7188C323.656 73.6771 323.052 73.1458 322.719 72.125C322.385 71.0833 322.219 69.5833 322.219 67.625C322.219 66.5833 322.25 65.4583 322.312 64.25C322.375 63.0417 322.469 61.6875 322.594 60.1875C322.135 60.9167 321.698 61.5833 321.281 62.1875C320.865 62.7917 320.49 63.3229 320.156 63.7812C319.781 64.3229 319.406 64.8125 319.031 65.25C317.927 66.6042 316.854 67.8021 315.812 68.8438C314.792 69.8854 313.844 70.7604 312.969 71.4688C312.115 72.1771 311.354 72.7188 310.688 73.0938C310.042 73.4688 309.531 73.6771 309.156 73.7188C308.781 73.7604 308.323 73.6354 307.781 73.3438C307.26 73.0521 306.76 72.4896 306.281 71.6562C305.802 70.8229 305.385 69.6562 305.031 68.1562C304.698 66.6562 304.542 64.7083 304.562 62.3125C304.583 59.9167 304.833 57.8125 305.312 56C305.812 54.1667 306.448 52.5729 307.219 51.2188C308.01 49.8438 308.885 48.6667 309.844 47.6875C310.802 46.6875 311.75 45.8229 312.688 45.0938C314.625 43.6146 316.479 42.4375 318.25 41.5625C320.042 40.6667 321.792 40.1979 323.5 40.1562C324.062 40.1354 324.615 40.1458 325.156 40.1875C325.635 40.2292 326.146 40.3021 326.688 40.4062C327.25 40.4896 327.781 40.625 328.281 40.8125L329.188 40.0938C329.062 40.6771 328.927 41.4688 328.781 42.4688C328.656 43.4688 328.531 44.5938 328.406 45.8438C328.281 47.0938 328.156 48.4271 328.031 49.8438C327.906 51.2604 327.792 52.6875 327.688 54.125C327.604 55.5417 327.521 56.9271 327.438 58.2812C327.354 59.6146 327.281 60.8333 327.219 61.9375C327.177 63.0417 327.146 63.9792 327.125 64.75C327.125 65.5208 327.135 66.0521 327.156 66.3438C327.26 67.5312 327.531 68.3438 327.969 68.7812C328.427 69.2188 329.052 69.1771 329.844 68.6562C330.156 68.4062 330.542 68.0104 331 67.4688C331.396 67.0104 331.875 66.3854 332.438 65.5938C333.021 64.7812 333.708 63.7292 334.5 62.4375V64.875ZM323.812 44.9688C321.833 44.7188 320.208 44.5938 318.938 44.5938C317.583 44.5938 316.406 44.8125 315.406 45.25C314.406 45.6875 313.552 46.2812 312.844 47.0312C312.135 47.7604 311.552 48.6146 311.094 49.5938C310.635 50.5521 310.271 51.5729 310 52.6562C309.75 53.7396 309.573 54.8438 309.469 55.9688C309.385 57.0938 309.344 58.1667 309.344 59.1875C309.344 59.5417 309.365 60.0208 309.406 60.625C309.448 61.2292 309.521 61.875 309.625 62.5625C309.75 63.25 309.896 63.9479 310.062 64.6562C310.25 65.3646 310.479 66.0104 310.75 66.5938C311.042 67.1562 311.375 67.625 311.75 68C312.125 68.3542 312.562 68.5312 313.062 68.5312C313.604 68.5312 314.26 68.2396 315.031 67.6562C315.823 67.0521 316.771 66.0417 317.875 64.625C318.521 63.75 319.167 62.6979 319.812 61.4688C320.354 60.4271 320.927 59.1458 321.531 57.625C322.156 56.1042 322.708 54.3333 323.188 52.3125L323.812 44.9688ZM349.5 89.25C348.729 90.0417 348.021 90.7188 347.375 91.2812C346.75 91.8646 346.198 92.3333 345.719 92.6875C345.177 93.1042 344.667 93.4583 344.188 93.75C343.625 94.1042 343.052 94.3646 342.469 94.5312C341.885 94.7188 341.344 94.8333 340.844 94.875C340.344 94.9167 339.906 94.8854 339.531 94.7812C339.177 94.6771 338.938 94.5208 338.812 94.3125C338.667 94.125 338.594 93.5833 338.594 92.6875C338.594 91.8125 338.635 90.7188 338.719 89.4062C338.802 88.1146 338.896 86.6771 339 85.0938C339.125 83.5104 339.229 81.9062 339.312 80.2812L339.625 73.375C339.083 73.375 338.562 73.3646 338.062 73.3438C337.562 73.3229 337.083 73.3125 336.625 73.3125C336.167 73.3125 335.771 73.3125 335.438 73.3125C335.125 73.3333 334.885 73.375 334.719 73.4375C335.719 72.7292 336.604 72.0417 337.375 71.375C338.167 70.7083 338.979 70.1667 339.812 69.75C339.875 68.1667 339.938 66.5417 340 64.875C340.083 63.2083 340.156 61.5833 340.219 60C340.302 58.3958 340.365 56.875 340.406 55.4375C340.469 53.9792 340.521 52.6875 340.562 51.5625C340.625 50.4167 340.667 49.4688 340.688 48.7188C340.708 47.9479 340.719 47.4479 340.719 47.2188C340.719 46.5729 340.49 46.0208 340.031 45.5625C339.594 45.0833 339.01 44.8438 338.281 44.8438C337.927 44.8438 337.542 44.9167 337.125 45.0625C336.708 45.1875 336.26 45.3958 335.781 45.6875C336.365 45.1458 336.958 44.5833 337.562 44C338.188 43.4167 338.812 42.8958 339.438 42.4375C340.083 41.9583 340.729 41.5729 341.375 41.2812C342.042 40.9688 342.719 40.8125 343.406 40.8125C344.052 40.8125 344.583 41.0208 345 41.4375C345.438 41.8542 345.656 42.5625 345.656 43.5625C345.656 44.0833 345.625 45.1667 345.562 46.8125C345.521 48.4375 345.448 50.4271 345.344 52.7812C345.76 51.7604 346.135 50.9062 346.469 50.2188C346.823 49.5104 347.115 48.9375 347.344 48.5C347.615 47.9792 347.844 47.5729 348.031 47.2812C348.677 46.3438 349.385 45.4583 350.156 44.625C350.927 43.7917 351.708 43.0521 352.5 42.4062C353.292 41.7604 354.083 41.2292 354.875 40.8125C355.667 40.375 356.427 40.0938 357.156 39.9688C357.906 39.8646 358.635 39.9583 359.344 40.25C360.052 40.5208 360.688 41.0104 361.25 41.7188C361.812 42.4271 362.281 43.3542 362.656 44.5C363.031 45.625 363.25 46.9792 363.312 48.5625C363.354 50.3333 363.167 52.1458 362.75 54C362.333 55.8333 361.719 57.6354 360.906 59.4062C360.115 61.1562 359.146 62.8229 358 64.4062C356.854 65.9896 355.573 67.4062 354.156 68.6562C352.74 69.8854 351.208 70.9167 349.562 71.75C347.917 72.5625 346.208 73.0833 344.438 73.3125L343.719 89.9062C343.885 89.9896 344.083 90.0729 344.312 90.1562C344.5 90.2188 344.719 90.2708 344.969 90.3125C345.24 90.375 345.552 90.4062 345.906 90.4062C346.385 90.4062 346.938 90.3229 347.562 90.1562C348.188 90.0104 348.833 89.7083 349.5 89.25ZM347.5 69.1562C348.104 69.1562 348.698 69.1458 349.281 69.125C349.865 69.0833 350.406 69.0312 350.906 68.9688C351.427 68.8854 351.896 68.7812 352.312 68.6562C352.729 68.5104 353.073 68.3333 353.344 68.125C353.76 67.8125 354.26 67.2917 354.844 66.5625C355.427 65.8333 355.979 64.9167 356.5 63.8125C357.042 62.6875 357.5 61.375 357.875 59.875C358.25 58.375 358.438 56.6875 358.438 54.8125C358.438 54.2292 358.406 53.5312 358.344 52.7188C358.302 51.9062 358.208 51.0729 358.062 50.2188C357.917 49.3646 357.708 48.5417 357.438 47.75C357.167 46.9375 356.812 46.25 356.375 45.6875C355.958 45.1042 355.448 44.6875 354.844 44.4375C354.24 44.1875 353.521 44.1979 352.688 44.4688C352.25 44.6146 351.771 44.9583 351.25 45.5C350.729 46.0208 350.188 46.8125 349.625 47.875C349.083 48.9375 348.531 50.3021 347.969 51.9688C347.427 53.6146 346.927 55.6354 346.469 58.0312C346.323 58.6354 346.156 59.3125 345.969 60.0625C345.802 60.7083 345.615 61.4688 345.406 62.3438C345.219 63.1979 345.021 64.125 344.812 65.125L344.625 69.0938C345.104 69.0938 345.583 69.1042 346.062 69.125C346.542 69.1458 347.021 69.1562 347.5 69.1562ZM397.375 64.875C397.188 65.1667 396.927 65.5208 396.594 65.9375C396.26 66.3333 395.927 66.7292 395.594 67.125C395.219 67.5833 394.812 68.0521 394.375 68.5312C393.833 69.1979 393.25 69.8438 392.625 70.4688C392 71.0938 391.375 71.6562 390.75 72.1562C390.146 72.6354 389.552 73.0208 388.969 73.3125C388.385 73.6042 387.865 73.7396 387.406 73.7188C386.531 73.6771 385.927 73.1458 385.594 72.125C385.26 71.0833 385.094 69.5833 385.094 67.625C385.094 66.5833 385.125 65.4583 385.188 64.25C385.25 63.0417 385.344 61.6875 385.469 60.1875C385.01 60.9167 384.573 61.5833 384.156 62.1875C383.74 62.7917 383.365 63.3229 383.031 63.7812C382.656 64.3229 382.281 64.8125 381.906 65.25C380.802 66.6042 379.729 67.8021 378.688 68.8438C377.667 69.8854 376.719 70.7604 375.844 71.4688C374.99 72.1771 374.229 72.7188 373.562 73.0938C372.917 73.4688 372.406 73.6771 372.031 73.7188C371.656 73.7604 371.198 73.6354 370.656 73.3438C370.135 73.0521 369.635 72.4896 369.156 71.6562C368.677 70.8229 368.26 69.6562 367.906 68.1562C367.573 66.6562 367.417 64.7083 367.438 62.3125C367.458 59.9167 367.708 57.8125 368.188 56C368.688 54.1667 369.323 52.5729 370.094 51.2188C370.885 49.8438 371.76 48.6667 372.719 47.6875C373.677 46.6875 374.625 45.8229 375.562 45.0938C377.5 43.6146 379.354 42.4375 381.125 41.5625C382.917 40.6667 384.667 40.1979 386.375 40.1562C386.938 40.1354 387.49 40.1458 388.031 40.1875C388.51 40.2292 389.021 40.3021 389.562 40.4062C390.125 40.4896 390.656 40.625 391.156 40.8125L392.062 40.0938C391.938 40.6771 391.802 41.4688 391.656 42.4688C391.531 43.4688 391.406 44.5938 391.281 45.8438C391.156 47.0938 391.031 48.4271 390.906 49.8438C390.781 51.2604 390.667 52.6875 390.562 54.125C390.479 55.5417 390.396 56.9271 390.312 58.2812C390.229 59.6146 390.156 60.8333 390.094 61.9375C390.052 63.0417 390.021 63.9792 390 64.75C390 65.5208 390.01 66.0521 390.031 66.3438C390.135 67.5312 390.406 68.3438 390.844 68.7812C391.302 69.2188 391.927 69.1771 392.719 68.6562C393.031 68.4062 393.417 68.0104 393.875 67.4688C394.271 67.0104 394.75 66.3854 395.312 65.5938C395.896 64.7812 396.583 63.7292 397.375 62.4375V64.875ZM386.688 44.9688C384.708 44.7188 383.083 44.5938 381.812 44.5938C380.458 44.5938 379.281 44.8125 378.281 45.25C377.281 45.6875 376.427 46.2812 375.719 47.0312C375.01 47.7604 374.427 48.6146 373.969 49.5938C373.51 50.5521 373.146 51.5729 372.875 52.6562C372.625 53.7396 372.448 54.8438 372.344 55.9688C372.26 57.0938 372.219 58.1667 372.219 59.1875C372.219 59.5417 372.24 60.0208 372.281 60.625C372.323 61.2292 372.396 61.875 372.5 62.5625C372.625 63.25 372.771 63.9479 372.938 64.6562C373.125 65.3646 373.354 66.0104 373.625 66.5938C373.917 67.1562 374.25 67.625 374.625 68C375 68.3542 375.438 68.5312 375.938 68.5312C376.479 68.5312 377.135 68.2396 377.906 67.6562C378.698 67.0521 379.646 66.0417 380.75 64.625C381.396 63.75 382.042 62.6979 382.688 61.4688C383.229 60.4271 383.802 59.1458 384.406 57.625C385.031 56.1042 385.583 54.3333 386.062 52.3125L386.688 44.9688ZM407.938 42.2188C408.083 42.5938 408.177 43.1458 408.219 43.875C408.26 44.6042 408.281 45.4375 408.281 46.375C408.281 47.0417 408.271 47.75 408.25 48.5C408.229 49.25 408.198 50.0104 408.156 50.7812C408.76 49.9062 409.417 49.0104 410.125 48.0938C410.833 47.1562 411.573 46.2708 412.344 45.4375C413.135 44.5833 413.958 43.8021 414.812 43.0938C415.667 42.3854 416.542 41.8125 417.438 41.375C418.354 40.9167 419.281 40.625 420.219 40.5C421.177 40.3542 422.146 40.4375 423.125 40.75C423.667 40.9167 424.104 41.1667 424.438 41.5C424.792 41.8333 425.073 42.25 425.281 42.75C425.49 43.2292 425.625 43.7812 425.688 44.4062C425.771 45.0312 425.812 45.7083 425.812 46.4375C425.812 48.0625 425.75 49.6667 425.625 51.25C425.5 52.8333 425.354 54.4062 425.188 55.9688C425.042 57.5104 424.906 59.0521 424.781 60.5938C424.656 62.1354 424.594 63.6667 424.594 65.1875C424.594 66.2292 424.677 67.0521 424.844 67.6562C425.031 68.2604 425.354 68.6146 425.812 68.7188C426.271 68.6979 426.781 68.5 427.344 68.125C427.823 67.8333 428.396 67.3542 429.062 66.6875C429.729 66.0208 430.458 65.0729 431.25 63.8438L431 66.2188C430.438 66.8438 429.781 67.5938 429.031 68.4688C428.302 69.3438 427.531 70.1771 426.719 70.9688C425.927 71.7396 425.115 72.3854 424.281 72.9062C423.469 73.4271 422.698 73.6458 421.969 73.5625C421.177 73.4583 420.531 73.0104 420.031 72.2188C419.531 71.4062 419.281 70.1354 419.281 68.4062C419.281 67.5521 419.312 66.5521 419.375 65.4062C419.438 64.2396 419.521 63.0208 419.625 61.75C419.729 60.4792 419.833 59.1875 419.938 57.875C420.062 56.5625 420.177 55.3125 420.281 54.125C420.406 52.9375 420.51 51.8542 420.594 50.875C420.698 49.875 420.771 49.0625 420.812 48.4375C420.854 47.8125 420.792 47.25 420.625 46.75C420.479 46.2292 420.24 45.7812 419.906 45.4062C419.594 45.0312 419.219 44.75 418.781 44.5625C418.344 44.3542 417.865 44.25 417.344 44.25C416.781 44.25 416.188 44.3958 415.562 44.6875C414.938 44.9583 414.302 45.3958 413.656 46C413.344 46.3125 412.958 46.75 412.5 47.3125C412.062 47.8542 411.583 48.5729 411.062 49.4688C410.542 50.3438 409.99 51.3958 409.406 52.625C408.844 53.8542 408.292 55.2917 407.75 56.9375C407.708 57.4167 407.677 57.8854 407.656 58.3438C407.635 58.8021 407.625 59.2292 407.625 59.625C407.583 60.625 407.521 61.6875 407.438 62.8125C407.375 63.7708 407.302 64.8542 407.219 66.0625C407.135 67.2708 407.042 68.5 406.938 69.75L402 74.0938C402.229 69.0312 402.427 64.8542 402.594 61.5625C402.781 58.25 402.927 55.6354 403.031 53.7188C403.156 51.4688 403.26 49.75 403.344 48.5625C403.406 47.1667 403.219 46.1771 402.781 45.5938C402.344 45.0104 401.802 44.7188 401.156 44.7188C400.656 44.7188 400.115 44.875 399.531 45.1875C398.969 45.5 398.427 45.8958 397.906 46.375C398.427 45.7917 399 45.1667 399.625 44.5C400.271 43.8333 400.948 43.2188 401.656 42.6562C402.365 42.0938 403.083 41.625 403.812 41.25C404.562 40.875 405.302 40.6875 406.031 40.6875C406.49 40.6875 406.875 40.8125 407.188 41.0625C407.521 41.2917 407.771 41.6771 407.938 42.2188Z" fill="white"/>
</svg>
