<svg width="458" height="98" viewBox="0 0 458 98" fill="none" xmlns="http://www.w3.org/2000/svg">
<rect x="133" y="60" width="198" height="28" fill="black"/>
<path d="M173.75 30.0625C173.375 30.5417 172.917 31.0104 172.375 31.4688C171.917 31.8646 171.344 32.2812 170.656 32.7188C169.99 33.1562 169.208 33.5521 168.312 33.9062C168.604 33.5312 168.625 33.1354 168.375 32.7188C168.146 32.2812 167.625 31.8854 166.812 31.5312C166 31.1771 164.896 30.8854 163.5 30.6562C162.125 30.4271 160.438 30.3125 158.438 30.3125C157.271 30.3125 156.01 30.4375 154.656 30.6875C153.323 30.9167 152 31.3229 150.688 31.9062C149.375 32.4896 148.104 33.2708 146.875 34.25C145.667 35.2083 144.594 36.4167 143.656 37.875C142.719 39.3125 141.969 41.0312 141.406 43.0312C140.865 45.0104 140.594 47.3021 140.594 49.9062C140.594 52.5104 140.906 54.8021 141.531 56.7812C142.177 58.7604 143.021 60.4688 144.062 61.9062C145.125 63.3229 146.333 64.5104 147.688 65.4688C149.042 66.4062 150.427 67.1667 151.844 67.75C153.26 68.3125 154.646 68.7083 156 68.9375C157.375 69.1667 158.615 69.2812 159.719 69.2812C160.552 69.2812 161.448 69.2396 162.406 69.1562C163.219 69.0938 164.146 68.9896 165.188 68.8438C166.229 68.6979 167.312 68.4792 168.438 68.1875C168.729 67.875 168.958 67.5521 169.125 67.2188C169.292 66.8646 169.427 66.5417 169.531 66.25C169.635 65.9167 169.719 65.5833 169.781 65.25C169.906 63.1042 169.958 60.9792 169.938 58.875C169.917 56.7708 169.906 54.6562 169.906 52.5312C169.323 52.4688 168.698 52.4062 168.031 52.3438C167.365 52.2812 166.708 52.25 166.062 52.25C165.542 52.25 165.062 52.2708 164.625 52.3125C164.208 52.3542 163.833 52.4479 163.5 52.5938C164.688 51.8646 165.698 51.3021 166.531 50.9062C167.365 50.4896 168.052 50.1667 168.594 49.9375C169.219 49.6875 169.74 49.5208 170.156 49.4375C170.615 49.375 171.177 49.3229 171.844 49.2812C172.531 49.2396 173.229 49.2083 173.938 49.1875C174.667 49.1458 175.375 49.1042 176.062 49.0625C176.771 49 177.385 48.9167 177.906 48.8125L175.719 50.3438C175.677 52.5104 175.625 54.3229 175.562 55.7812C175.521 57.2188 175.479 58.375 175.438 59.25C175.375 60.2708 175.323 61.0833 175.281 61.6875C175.26 62.375 175.135 63.0312 174.906 63.6562C174.698 64.2812 174.354 64.8958 173.875 65.5C173.417 66.0833 172.802 66.6667 172.031 67.25C171.281 67.8333 170.365 68.4271 169.281 69.0312C167.594 70.1562 166.031 71.0208 164.594 71.625C163.156 72.2292 161.906 72.6771 160.844 72.9688C159.594 73.3021 158.458 73.5 157.438 73.5625C154.354 73.5625 151.448 73.1146 148.719 72.2188C145.99 71.3021 143.594 69.9896 141.531 68.2812C139.49 66.5521 137.875 64.4375 136.688 61.9375C135.5 59.4375 134.906 56.5938 134.906 53.4062C134.906 51.4271 135.094 49.5938 135.469 47.9062C135.844 46.1979 136.333 44.6354 136.938 43.2188C137.562 41.8021 138.26 40.5312 139.031 39.4062C139.802 38.2604 140.583 37.2604 141.375 36.4062C142.188 35.5312 142.969 34.8021 143.719 34.2188C144.49 33.6354 145.156 33.1875 145.719 32.875C146.26 32.5625 146.948 32.2083 147.781 31.8125C148.635 31.4167 149.562 31.0208 150.562 30.625C151.583 30.2083 152.656 29.8021 153.781 29.4062C154.906 29.0104 156.052 28.6562 157.219 28.3438C158.385 28.0312 159.521 27.7812 160.625 27.5938C161.75 27.4062 162.812 27.3125 163.812 27.3125C166.042 27.3125 167.844 27.4167 169.219 27.625C170.594 27.8333 171.635 28.0938 172.344 28.4062C173.073 28.6979 173.521 29 173.688 29.3125C173.875 29.625 173.896 29.875 173.75 30.0625ZM211.281 64.875C211.094 65.1667 210.833 65.5208 210.5 65.9375C210.167 66.3333 209.833 66.7292 209.5 67.125C209.125 67.5833 208.719 68.0521 208.281 68.5312C207.74 69.1979 207.156 69.8438 206.531 70.4688C205.906 71.0938 205.281 71.6562 204.656 72.1562C204.052 72.6354 203.458 73.0208 202.875 73.3125C202.292 73.6042 201.771 73.7396 201.312 73.7188C200.438 73.6771 199.833 73.1458 199.5 72.125C199.167 71.0833 199 69.5833 199 67.625C199 66.5833 199.031 65.4583 199.094 64.25C199.156 63.0417 199.25 61.6875 199.375 60.1875C198.917 60.9167 198.479 61.5833 198.062 62.1875C197.646 62.7917 197.271 63.3229 196.938 63.7812C196.562 64.3229 196.188 64.8125 195.812 65.25C194.708 66.6042 193.635 67.8021 192.594 68.8438C191.573 69.8854 190.625 70.7604 189.75 71.4688C188.896 72.1771 188.135 72.7188 187.469 73.0938C186.823 73.4688 186.312 73.6771 185.938 73.7188C185.562 73.7604 185.104 73.6354 184.562 73.3438C184.042 73.0521 183.542 72.4896 183.062 71.6562C182.583 70.8229 182.167 69.6562 181.812 68.1562C181.479 66.6562 181.323 64.7083 181.344 62.3125C181.365 59.9167 181.615 57.8125 182.094 56C182.594 54.1667 183.229 52.5729 184 51.2188C184.792 49.8438 185.667 48.6667 186.625 47.6875C187.583 46.6875 188.531 45.8229 189.469 45.0938C191.406 43.6146 193.26 42.4375 195.031 41.5625C196.823 40.6667 198.573 40.1979 200.281 40.1562C200.844 40.1354 201.396 40.1458 201.938 40.1875C202.417 40.2292 202.927 40.3021 203.469 40.4062C204.031 40.4896 204.562 40.625 205.062 40.8125L205.969 40.0938C205.844 40.6771 205.708 41.4688 205.562 42.4688C205.438 43.4688 205.312 44.5938 205.188 45.8438C205.062 47.0938 204.938 48.4271 204.812 49.8438C204.688 51.2604 204.573 52.6875 204.469 54.125C204.385 55.5417 204.302 56.9271 204.219 58.2812C204.135 59.6146 204.062 60.8333 204 61.9375C203.958 63.0417 203.927 63.9792 203.906 64.75C203.906 65.5208 203.917 66.0521 203.938 66.3438C204.042 67.5312 204.312 68.3438 204.75 68.7812C205.208 69.2188 205.833 69.1771 206.625 68.6562C206.938 68.4062 207.323 68.0104 207.781 67.4688C208.177 67.0104 208.656 66.3854 209.219 65.5938C209.802 64.7812 210.49 63.7292 211.281 62.4375V64.875ZM200.594 44.9688C198.615 44.7188 196.99 44.5938 195.719 44.5938C194.365 44.5938 193.188 44.8125 192.188 45.25C191.188 45.6875 190.333 46.2812 189.625 47.0312C188.917 47.7604 188.333 48.6146 187.875 49.5938C187.417 50.5521 187.052 51.5729 186.781 52.6562C186.531 53.7396 186.354 54.8438 186.25 55.9688C186.167 57.0938 186.125 58.1667 186.125 59.1875C186.125 59.5417 186.146 60.0208 186.188 60.625C186.229 61.2292 186.302 61.875 186.406 62.5625C186.531 63.25 186.677 63.9479 186.844 64.6562C187.031 65.3646 187.26 66.0104 187.531 66.5938C187.823 67.1562 188.156 67.625 188.531 68C188.906 68.3542 189.344 68.5312 189.844 68.5312C190.385 68.5312 191.042 68.2396 191.812 67.6562C192.604 67.0521 193.552 66.0417 194.656 64.625C195.302 63.75 195.948 62.6979 196.594 61.4688C197.135 60.4271 197.708 59.1458 198.312 57.625C198.938 56.1042 199.49 54.3333 199.969 52.3125L200.594 44.9688ZM229.031 64.8125C228.615 65.3542 228.146 65.9583 227.625 66.625C227.125 67.2708 226.583 67.9375 226 68.625C225.417 69.3125 224.802 69.9792 224.156 70.625C223.51 71.25 222.833 71.8125 222.125 72.3125C221.438 72.7917 220.729 73.1667 220 73.4375C219.271 73.7083 218.542 73.8229 217.812 73.7812C217.188 73.7188 216.677 73.4375 216.281 72.9375C215.885 72.4167 215.573 71.7604 215.344 70.9688C215.115 70.1562 214.969 69.2292 214.906 68.1875C214.844 67.1458 214.833 66.0625 214.875 64.9375C214.896 64.375 214.948 63.3854 215.031 61.9688C215.115 60.5312 215.208 58.8333 215.312 56.875C215.438 54.9167 215.562 52.7708 215.688 50.4375C215.833 48.1042 215.969 45.7396 216.094 43.3438C216.219 40.9479 216.344 38.6042 216.469 36.3125C216.594 34 216.698 31.9062 216.781 30.0312C216.885 28.1562 216.969 26.5729 217.031 25.2812C217.094 23.9688 217.125 23.1042 217.125 22.6875C217.125 21.5625 217.031 20.6875 216.844 20.0625C216.677 19.4375 216.24 19.125 215.531 19.125C214.844 19.125 213.833 19.4375 212.5 20.0625C213.417 19.2708 214.208 18.5938 214.875 18.0312C215.542 17.4688 216.094 17.0104 216.531 16.6562C217.052 16.2604 217.479 15.9271 217.812 15.6562C218.438 15.1354 219.125 14.875 219.875 14.875C220.521 14.875 221.073 15.1146 221.531 15.5938C222.01 16.0729 222.208 16.8229 222.125 17.8438C222.104 18.2396 222.052 19.0938 221.969 20.4062C221.906 21.6979 221.833 23.3021 221.75 25.2188C221.667 27.1146 221.562 29.2396 221.438 31.5938C221.333 33.9271 221.229 36.3438 221.125 38.8438C221.021 41.3229 220.906 43.8021 220.781 46.2812C220.677 48.7396 220.583 51.0312 220.5 53.1562C220.417 55.2812 220.344 57.1667 220.281 58.8125C220.24 60.4583 220.208 61.7083 220.188 62.5625C220.167 63.7292 220.229 64.7292 220.375 65.5625C220.521 66.3958 220.719 67.0729 220.969 67.5938C221.219 68.1146 221.521 68.5 221.875 68.75C222.229 68.9792 222.604 69.0938 223 69.0938C223.479 69.0938 223.958 68.9479 224.438 68.6562C224.917 68.3646 225.375 67.9896 225.812 67.5312C226.25 67.0729 226.667 66.5521 227.062 65.9688C227.458 65.3854 227.823 64.8021 228.156 64.2188C228.49 63.6354 228.771 63.0833 229 62.5625C229.25 62.0417 229.448 61.6146 229.594 61.2812L229.031 64.8125ZM246.656 64.8125C246.24 65.3542 245.771 65.9583 245.25 66.625C244.75 67.2708 244.208 67.9375 243.625 68.625C243.042 69.3125 242.427 69.9792 241.781 70.625C241.135 71.25 240.458 71.8125 239.75 72.3125C239.062 72.7917 238.354 73.1667 237.625 73.4375C236.896 73.7083 236.167 73.8229 235.438 73.7812C234.812 73.7188 234.302 73.4375 233.906 72.9375C233.51 72.4167 233.198 71.7604 232.969 70.9688C232.74 70.1562 232.594 69.2292 232.531 68.1875C232.469 67.1458 232.458 66.0625 232.5 64.9375C232.521 64.375 232.573 63.3854 232.656 61.9688C232.74 60.5312 232.833 58.8333 232.938 56.875C233.062 54.9167 233.188 52.7708 233.312 50.4375C233.458 48.1042 233.594 45.7396 233.719 43.3438C233.844 40.9479 233.969 38.6042 234.094 36.3125C234.219 34 234.323 31.9062 234.406 30.0312C234.51 28.1562 234.594 26.5729 234.656 25.2812C234.719 23.9688 234.75 23.1042 234.75 22.6875C234.75 21.5625 234.656 20.6875 234.469 20.0625C234.302 19.4375 233.865 19.125 233.156 19.125C232.469 19.125 231.458 19.4375 230.125 20.0625C231.042 19.2708 231.833 18.5938 232.5 18.0312C233.167 17.4688 233.719 17.0104 234.156 16.6562C234.677 16.2604 235.104 15.9271 235.438 15.6562C236.062 15.1354 236.75 14.875 237.5 14.875C238.146 14.875 238.698 15.1146 239.156 15.5938C239.635 16.0729 239.833 16.8229 239.75 17.8438C239.729 18.2396 239.677 19.0938 239.594 20.4062C239.531 21.6979 239.458 23.3021 239.375 25.2188C239.292 27.1146 239.188 29.2396 239.062 31.5938C238.958 33.9271 238.854 36.3438 238.75 38.8438C238.646 41.3229 238.531 43.8021 238.406 46.2812C238.302 48.7396 238.208 51.0312 238.125 53.1562C238.042 55.2812 237.969 57.1667 237.906 58.8125C237.865 60.4583 237.833 61.7083 237.812 62.5625C237.792 63.7292 237.854 64.7292 238 65.5625C238.146 66.3958 238.344 67.0729 238.594 67.5938C238.844 68.1146 239.146 68.5 239.5 68.75C239.854 68.9792 240.229 69.0938 240.625 69.0938C241.104 69.0938 241.583 68.9479 242.062 68.6562C242.542 68.3646 243 67.9896 243.438 67.5312C243.875 67.0729 244.292 66.5521 244.688 65.9688C245.083 65.3854 245.448 64.8021 245.781 64.2188C246.115 63.6354 246.396 63.0833 246.625 62.5625C246.875 62.0417 247.073 61.6146 247.219 61.2812L246.656 64.8125ZM265.875 63.9062C264.771 65.1562 263.75 66.2604 262.812 67.2188C261.896 68.1562 261.083 68.9479 260.375 69.5938C259.542 70.3438 258.792 70.9896 258.125 71.5312C256.292 72.9896 254.698 73.7188 253.344 73.7188C252.573 73.7188 251.906 73.5104 251.344 73.0938C250.802 72.6979 250.333 72.1771 249.938 71.5312C249.542 70.8854 249.219 70.1562 248.969 69.3438C248.719 68.5312 248.521 67.7188 248.375 66.9062C248.25 66.0729 248.156 65.2812 248.094 64.5312C248.052 63.7812 248.031 63.1458 248.031 62.625C248.031 61.2292 248.188 59.7188 248.5 58.0938C248.833 56.4688 249.302 54.8542 249.906 53.25C250.531 51.625 251.292 50.0729 252.188 48.5938C253.083 47.0938 254.104 45.7708 255.25 44.625C256.417 43.4583 257.688 42.5312 259.062 41.8438C260.458 41.1562 261.958 40.8125 263.562 40.8125C264 40.8125 264.365 40.8958 264.656 41.0625C264.948 41.2083 265.188 41.4167 265.375 41.6875C265.562 41.9583 265.688 42.2604 265.75 42.5938C265.833 42.9271 265.875 43.2708 265.875 43.625C265.875 44.5417 265.667 45.4583 265.25 46.375C264.833 47.2917 264.271 48.1979 263.562 49.0938C262.875 49.9688 262.083 50.8333 261.188 51.6875C260.292 52.5208 259.354 53.3229 258.375 54.0938C257.417 54.8438 256.458 55.5521 255.5 56.2188C254.542 56.8854 253.667 57.4896 252.875 58.0312V58.7188C252.875 59.2396 252.896 59.875 252.938 60.625C253 61.3542 253.094 62.125 253.219 62.9375C253.365 63.7292 253.552 64.5208 253.781 65.3125C254.01 66.1042 254.302 66.8125 254.656 67.4375C255.01 68.0625 255.427 68.5729 255.906 68.9688C256.406 69.3438 256.979 69.5312 257.625 69.5312C257.917 69.5312 258.219 69.4896 258.531 69.4062C258.844 69.3021 259.156 69.1354 259.469 68.9062C260.01 68.4688 260.625 67.8646 261.312 67.0938C261.896 66.4271 262.573 65.5625 263.344 64.5C264.115 63.4375 264.958 62.0938 265.875 60.4688V63.9062ZM260.062 45.4688C259.812 45.1771 259.49 44.9896 259.094 44.9062C258.698 44.8229 258.271 44.8438 257.812 44.9688C257.375 45.0938 256.938 45.3333 256.5 45.6875C256.083 46.0417 255.729 46.5104 255.438 47.0938C255.021 47.9271 254.562 49.125 254.062 50.6875C253.562 52.2292 253.208 54.0104 253 56.0312C253.667 55.6354 254.354 55.1771 255.062 54.6562C255.771 54.1354 256.448 53.5833 257.094 53C257.76 52.4167 258.354 51.8125 258.875 51.1875C259.417 50.5417 259.833 49.8958 260.125 49.25C260.438 48.5833 260.604 47.9375 260.625 47.3125C260.646 46.6667 260.458 46.0521 260.062 45.4688ZM279.062 55.6562C278.958 56.8438 278.865 58.1771 278.781 59.6562C278.698 60.9271 278.604 62.4375 278.5 64.1875C278.396 65.9167 278.281 67.8333 278.156 69.9375L272.906 74.4062C273.365 70.1562 273.76 66.1042 274.094 62.25C274.448 58.3958 274.625 54.5938 274.625 50.8438C274.625 48.9479 274.365 47.5521 273.844 46.6562C273.323 45.7396 272.625 45.2812 271.75 45.2812C270.833 45.2812 269.771 45.75 268.562 46.6875C268.833 46.4375 269.156 46.125 269.531 45.75C269.927 45.3542 270.344 44.9375 270.781 44.5C271.24 44.0625 271.708 43.625 272.188 43.1875C272.688 42.75 273.167 42.3542 273.625 42C274.104 41.6458 274.562 41.3646 275 41.1562C275.438 40.9271 275.823 40.8125 276.156 40.8125C276.969 40.8125 277.594 41.0417 278.031 41.5C278.469 41.9583 278.792 42.5208 279 43.1875C279.208 43.8542 279.333 44.5521 279.375 45.2812C279.417 46.0104 279.438 46.6354 279.438 47.1562V48.625C280.542 46.7917 281.844 45.1771 283.344 43.7812C284.865 42.3854 286.635 41.3958 288.656 40.8125C289.094 40.6875 289.521 40.6562 289.938 40.7188C290.354 40.7604 290.771 40.8438 291.188 40.9688C291.604 41.0729 292.042 41.1875 292.5 41.3125C292.979 41.4375 293.49 41.5 294.031 41.5C294.448 41.5 294.885 41.4479 295.344 41.3438C295.802 41.2396 296.323 41.0625 296.906 40.8125C296.302 41.4167 295.708 42.0104 295.125 42.5938C294.542 43.1771 293.958 43.7083 293.375 44.1875C292.812 44.6458 292.25 45.0417 291.688 45.375C291.146 45.6875 290.625 45.875 290.125 45.9375C289.583 46 289.062 45.9688 288.562 45.8438C288.083 45.6979 287.583 45.5521 287.062 45.4062C286.562 45.2396 286.031 45.125 285.469 45.0625C284.906 44.9792 284.302 45.0312 283.656 45.2188C283.219 45.3646 282.781 45.7708 282.344 46.4375C281.927 47.0833 281.51 47.8958 281.094 48.875C280.698 49.8333 280.323 50.9062 279.969 52.0938C279.635 53.2604 279.333 54.4271 279.062 55.5938V55.6562ZM322.156 41.125C321.844 44.1875 321.552 47.1875 321.281 50.125C321.01 53.0417 320.771 55.9375 320.562 58.8125C320.375 61.6667 320.219 64.5104 320.094 67.3438C319.99 70.1771 319.938 73.0208 319.938 75.875C319.938 77.4583 319.906 78.8646 319.844 80.0938C319.781 81.3229 319.635 82.2604 319.406 82.9062C319.031 84.0729 318.417 85.2188 317.562 86.3438C316.708 87.4896 315.698 88.5729 314.531 89.5938C313.385 90.6146 312.125 91.5521 310.75 92.4062C309.396 93.2812 308.01 94.0208 306.594 94.625C305.177 95.25 303.781 95.7292 302.406 96.0625C301.031 96.3958 299.771 96.5417 298.625 96.5C297.646 96.4792 296.74 96.3229 295.906 96.0312C295.073 95.7604 294.396 95.4062 293.875 94.9688C293.375 94.5312 293.062 94.0417 292.938 93.5C292.812 92.9792 292.979 92.4792 293.438 92C293.792 91.6458 294.24 91.25 294.781 90.8125C295.24 90.4583 295.802 90.0312 296.469 89.5312C297.135 89.0312 297.938 88.5104 298.875 87.9688C298.479 88.3854 298.26 88.7708 298.219 89.125C298.177 89.4792 298.208 89.7812 298.312 90.0312C298.417 90.3229 298.604 90.5938 298.875 90.8438C299.396 91.2396 300.188 91.6042 301.25 91.9375C302.333 92.2917 303.521 92.4688 304.812 92.4688C306.417 92.4688 307.812 92.2083 309 91.6875C310.208 91.1875 311.229 90.4896 312.062 89.5938C312.896 88.6979 313.531 87.6354 313.969 86.4062C314.427 85.1771 314.708 83.8438 314.812 82.4062C314.938 80.8438 315.01 79.1562 315.031 77.3438C315.052 75.5312 315.062 73.6562 315.062 71.7188C315.062 70.3021 315.062 68.9167 315.062 67.5625C315.062 66.2083 315.083 64.8854 315.125 63.5938C314.771 64.0521 314.438 64.4688 314.125 64.8438C313.812 65.1979 313.531 65.5104 313.281 65.7812C312.99 66.0938 312.708 66.3854 312.438 66.6562C309.833 69.1146 307.583 70.9375 305.688 72.125C303.792 73.3125 302.135 73.7917 300.719 73.5625C299.552 73.3333 298.708 72.5833 298.188 71.3125C297.667 70.0417 297.406 68.4062 297.406 66.4062C297.406 65.4896 297.427 64.4688 297.469 63.3438C297.531 62.1979 297.604 61.0208 297.688 59.8125C297.771 58.6042 297.854 57.3958 297.938 56.1875C298.042 54.9792 298.135 53.8333 298.219 52.75C298.323 51.6667 298.406 50.6875 298.469 49.8125C298.552 48.9375 298.604 48.2188 298.625 47.6562C298.667 46.7812 298.521 46.1146 298.188 45.6562C297.875 45.1979 297.417 44.9688 296.812 44.9688C296.042 44.9688 294.979 45.3958 293.625 46.25C294.125 45.7917 294.688 45.2812 295.312 44.7188C295.938 44.1562 296.583 43.625 297.25 43.125C297.938 42.625 298.635 42.2083 299.344 41.875C300.052 41.5417 300.75 41.375 301.438 41.375C302.104 41.375 302.635 41.6562 303.031 42.2188C303.448 42.7604 303.656 43.6562 303.656 44.9062C303.656 45.5521 303.635 46.3854 303.594 47.4062C303.552 48.4271 303.49 49.5417 303.406 50.75C303.344 51.9375 303.26 53.1771 303.156 54.4688C303.073 55.7396 302.99 56.9792 302.906 58.1875C302.844 59.3958 302.781 60.5208 302.719 61.5625C302.656 62.5833 302.615 63.4271 302.594 64.0938C302.573 64.8646 302.635 65.5833 302.781 66.25C302.948 66.8958 303.177 67.4583 303.469 67.9375C303.781 68.4167 304.146 68.7917 304.562 69.0625C305 69.3333 305.469 69.4688 305.969 69.4688C306.615 69.4688 307.281 69.2604 307.969 68.8438C308.594 68.4271 309.229 67.9167 309.875 67.3125C310.521 66.6875 311.156 65.9479 311.781 65.0938C312.427 64.2188 313.052 63.2188 313.656 62.0938C314.26 60.9479 314.833 59.6562 315.375 58.2188C315.5 55.8229 315.677 53.5312 315.906 51.3438C316.135 49.1562 316.406 46.9688 316.719 44.7812L322.156 41.125Z" fill="white"/>
</svg>
