<svg width="458" height="98" viewBox="0 0 458 98" fill="none" xmlns="http://www.w3.org/2000/svg">
<rect x="52" y="61" width="360" height="28" fill="#FFB4B4"/>
<path d="M91.0312 39.4688C90.8646 41.0312 90.4479 42.4062 89.7812 43.5938C89.1146 44.7604 88.3125 45.7917 87.375 46.6875C86.4375 47.5833 85.4271 48.3438 84.3438 48.9688C83.2812 49.5729 82.2708 50.0938 81.3125 50.5312C83.1458 52.5104 84.7917 54.2708 86.25 55.8125C87.7292 57.3542 89.0417 58.7188 90.1875 59.9062C91.3333 61.0938 92.3229 62.125 93.1562 63C94.0104 63.8542 94.7396 64.5729 95.3438 65.1562C96.7604 66.5521 97.75 67.4792 98.3125 67.9375C98.8958 68.3958 99.5312 68.7188 100.219 68.9062C100.906 69.0729 101.573 69.1562 102.219 69.1562C102.76 69.1562 103.281 69.1042 103.781 69C104.281 68.8958 104.677 68.7812 104.969 68.6562C103.969 69.3229 103.083 69.9271 102.312 70.4688C101.562 71.0104 100.865 71.4792 100.219 71.875C99.5938 72.25 98.9896 72.5417 98.4062 72.75C97.8438 72.9583 97.2604 73.0625 96.6562 73.0625C96.2396 73.0625 95.8229 73 95.4062 72.875C95.0104 72.75 94.5833 72.5521 94.125 72.2812C93.6875 72.0104 93.2083 71.6667 92.6875 71.25C92.1875 70.8333 91.6354 70.3333 91.0312 69.75C90.6354 69.3542 90.0417 68.7188 89.25 67.8438C88.4583 66.9479 87.5729 65.9583 86.5938 64.875C85.6146 63.7708 84.5938 62.625 83.5312 61.4375C82.4688 60.25 81.4688 59.1562 80.5312 58.1562C79.5938 57.1354 78.7604 56.2604 78.0312 55.5312C77.3229 54.8021 76.8333 54.3542 76.5625 54.1875C76.25 54 75.9167 53.8333 75.5625 53.6875C75.2708 53.5625 74.9271 53.4583 74.5312 53.375C74.1562 53.2708 73.7917 53.2396 73.4375 53.2812L77.9688 50.1562C79.0104 50.1562 80 49.9167 80.9375 49.4375C81.8958 48.9583 82.7188 48.2604 83.4062 47.3438C84.1146 46.4062 84.6667 45.2708 85.0625 43.9375C85.4583 42.6042 85.6146 41.0938 85.5312 39.4062C85.4896 38.4062 85.2604 37.5 84.8438 36.6875C84.4479 35.8542 83.9271 35.1146 83.2812 34.4688C82.6562 33.8229 81.9375 33.2604 81.125 32.7812C80.3125 32.3021 79.4792 31.9062 78.625 31.5938C77.7708 31.2604 76.9167 31.0208 76.0625 30.875C75.2292 30.7083 74.4583 30.625 73.75 30.625C73.2708 30.625 72.75 30.6354 72.1875 30.6562C71.625 30.6771 71.0625 30.6875 70.5 30.6875C70.4375 34.5833 70.3646 38.0625 70.2812 41.125C70.2188 44.1875 70.1562 46.9062 70.0938 49.2812C70.0312 51.6562 69.9688 53.7083 69.9062 55.4375C69.8646 57.1458 69.8125 58.6042 69.75 59.8125C69.625 62.6458 69.5104 64.5625 69.4062 65.5625C69.3438 65.9792 69.2396 66.4062 69.0938 66.8438C68.9688 67.2188 68.7917 67.625 68.5625 68.0625C68.3542 68.5 68.0833 68.9271 67.75 69.3438C68.6458 69.4479 69.4479 69.5104 70.1562 69.5312C70.8854 69.5312 71.5521 69.5312 72.1562 69.5312C73.5938 69.5312 74.6458 69.4896 75.3125 69.4062C76 69.3229 76.3958 69.2604 76.5 69.2188C75.4167 69.7604 74.3958 70.2604 73.4375 70.7188C72.4792 71.1771 71.5625 71.5833 70.6875 71.9375C69.8125 72.2917 68.9688 72.5729 68.1562 72.7812C67.3646 72.9688 66.5833 73.0625 65.8125 73.0625H60.375L63.125 71.2188C63.2708 70.6771 63.4062 70.0312 63.5312 69.2812C63.6771 68.5312 63.8021 67.7292 63.9062 66.875C64.0104 66 64.0938 65.1042 64.1562 64.1875C64.2396 63.25 64.3125 62.3333 64.375 61.4375C64.5 59.375 64.5938 57.1875 64.6562 54.875C64.6979 51.6875 64.7396 48.6042 64.7812 45.625C64.8021 44.3542 64.8229 43.0521 64.8438 41.7188C64.8646 40.3646 64.875 39.0521 64.875 37.7812C64.8958 36.4896 64.9167 35.2708 64.9375 34.125C64.9583 32.9583 64.9688 31.9271 64.9688 31.0312L59.3438 31.4688L65.4375 27.8125C65.7917 27.875 66.1771 27.9167 66.5938 27.9375C67.0312 27.9375 67.4792 27.9375 67.9375 27.9375C68.8333 27.9375 69.7188 27.9062 70.5938 27.8438C71.4688 27.7604 72.3333 27.6771 73.1875 27.5938C74.0625 27.4896 74.9167 27.3958 75.75 27.3125C76.5833 27.2292 77.4271 27.1875 78.2812 27.1875C79.9479 27.1875 81.5833 27.4688 83.1875 28.0312C84.7917 28.5938 86.1979 29.4062 87.4062 30.4688C88.6354 31.5312 89.5938 32.8229 90.2812 34.3438C90.9688 35.8646 91.2188 37.5729 91.0312 39.4688ZM105.062 68.5938C105.021 68.6146 105 68.625 105 68.625H104.969V68.6562V68.625H105C105.021 68.6042 105.042 68.5938 105.062 68.5938ZM120.844 63.9062C119.74 65.1562 118.719 66.2604 117.781 67.2188C116.865 68.1562 116.052 68.9479 115.344 69.5938C114.51 70.3438 113.76 70.9896 113.094 71.5312C111.26 72.9896 109.667 73.7188 108.312 73.7188C107.542 73.7188 106.875 73.5104 106.312 73.0938C105.771 72.6979 105.302 72.1771 104.906 71.5312C104.51 70.8854 104.188 70.1562 103.938 69.3438C103.688 68.5312 103.49 67.7188 103.344 66.9062C103.219 66.0729 103.125 65.2812 103.062 64.5312C103.021 63.7812 103 63.1458 103 62.625C103 61.2292 103.156 59.7188 103.469 58.0938C103.802 56.4688 104.271 54.8542 104.875 53.25C105.5 51.625 106.26 50.0729 107.156 48.5938C108.052 47.0938 109.073 45.7708 110.219 44.625C111.385 43.4583 112.656 42.5312 114.031 41.8438C115.427 41.1562 116.927 40.8125 118.531 40.8125C118.969 40.8125 119.333 40.8958 119.625 41.0625C119.917 41.2083 120.156 41.4167 120.344 41.6875C120.531 41.9583 120.656 42.2604 120.719 42.5938C120.802 42.9271 120.844 43.2708 120.844 43.625C120.844 44.5417 120.635 45.4583 120.219 46.375C119.802 47.2917 119.24 48.1979 118.531 49.0938C117.844 49.9688 117.052 50.8333 116.156 51.6875C115.26 52.5208 114.323 53.3229 113.344 54.0938C112.385 54.8438 111.427 55.5521 110.469 56.2188C109.51 56.8854 108.635 57.4896 107.844 58.0312V58.7188C107.844 59.2396 107.865 59.875 107.906 60.625C107.969 61.3542 108.062 62.125 108.188 62.9375C108.333 63.7292 108.521 64.5208 108.75 65.3125C108.979 66.1042 109.271 66.8125 109.625 67.4375C109.979 68.0625 110.396 68.5729 110.875 68.9688C111.375 69.3438 111.948 69.5312 112.594 69.5312C112.885 69.5312 113.188 69.4896 113.5 69.4062C113.812 69.3021 114.125 69.1354 114.438 68.9062C114.979 68.4688 115.594 67.8646 116.281 67.0938C116.865 66.4271 117.542 65.5625 118.312 64.5C119.083 63.4375 119.927 62.0938 120.844 60.4688V63.9062ZM115.031 45.4688C114.781 45.1771 114.458 44.9896 114.062 44.9062C113.667 44.8229 113.24 44.8438 112.781 44.9688C112.344 45.0938 111.906 45.3333 111.469 45.6875C111.052 46.0417 110.698 46.5104 110.406 47.0938C109.99 47.9271 109.531 49.125 109.031 50.6875C108.531 52.2292 108.177 54.0104 107.969 56.0312C108.635 55.6354 109.323 55.1771 110.031 54.6562C110.74 54.1354 111.417 53.5833 112.062 53C112.729 52.4167 113.323 51.8125 113.844 51.1875C114.385 50.5417 114.802 49.8958 115.094 49.25C115.406 48.5833 115.573 47.9375 115.594 47.3125C115.615 46.6667 115.427 46.0521 115.031 45.4688ZM141.062 41.8438C140.958 42.0938 140.719 42.4062 140.344 42.7812C140.031 43.1146 139.562 43.5521 138.938 44.0938C138.333 44.6146 137.479 45.2708 136.375 46.0625C136.396 45.7083 136.344 45.4167 136.219 45.1875C136.115 44.9375 135.979 44.75 135.812 44.625C135.625 44.4792 135.417 44.375 135.188 44.3125C133.854 44.0625 132.802 44.0625 132.031 44.3125C131.844 44.3958 131.698 44.6042 131.594 44.9375C131.51 45.25 131.469 45.6458 131.469 46.125C131.469 47.2708 131.677 48.3021 132.094 49.2188C132.531 50.1146 133.073 50.9583 133.719 51.75C134.365 52.5208 135.062 53.2604 135.812 53.9688C136.562 54.6771 137.26 55.4062 137.906 56.1562C138.552 56.8854 139.083 57.6562 139.5 58.4688C139.938 59.2812 140.156 60.1771 140.156 61.1562C140.156 61.9896 139.979 62.8542 139.625 63.75C139.292 64.625 138.771 65.4271 138.062 66.1562C137.458 66.7812 136.802 67.4271 136.094 68.0938C135.406 68.7604 134.688 69.3958 133.938 70C133.208 70.6042 132.458 71.1562 131.688 71.6562C130.917 72.1562 130.156 72.5625 129.406 72.875C128.135 73.3333 126.917 73.5625 125.75 73.5625C124.958 73.5625 124.271 73.4479 123.688 73.2188C123.104 72.9896 122.75 72.6354 122.625 72.1562C122.521 71.7812 122.635 71.3229 122.969 70.7812C123.302 70.2188 123.719 69.6667 124.219 69.125C124.719 68.5625 125.24 68.0417 125.781 67.5625C126.344 67.0625 126.781 66.6771 127.094 66.4062C127.052 67.4062 127.281 68.125 127.781 68.5625C128.302 68.9792 129.125 69.2188 130.25 69.2812C130.812 69.3229 131.406 69.2917 132.031 69.1875C132.656 69.0625 133.229 68.8854 133.75 68.6562C134.292 68.4062 134.729 68.0938 135.062 67.7188C135.417 67.3438 135.583 66.9062 135.562 66.4062C135.521 65.2396 135.271 64.1771 134.812 63.2188C134.375 62.2396 133.823 61.3229 133.156 60.4688C132.51 59.5938 131.812 58.75 131.062 57.9375C130.333 57.1042 129.646 56.2604 129 55.4062C128.375 54.5521 127.844 53.6458 127.406 52.6875C126.99 51.7292 126.781 50.6875 126.781 49.5625C126.781 49.0833 126.833 48.625 126.938 48.1875C127.042 47.75 127.229 47.3333 127.5 46.9375C127.979 46.2292 128.635 45.4896 129.469 44.7188C130.302 43.9479 131.188 43.2396 132.125 42.5938C133.062 41.9479 133.99 41.4062 134.906 40.9688C135.823 40.5104 136.615 40.2396 137.281 40.1562C137.927 40.0729 138.5 40.0729 139 40.1562C139.521 40.2188 139.948 40.3333 140.281 40.5C140.615 40.6667 140.844 40.875 140.969 41.125C141.115 41.3542 141.146 41.5938 141.062 41.8438ZM162.719 63.9062C161.615 65.1562 160.594 66.2604 159.656 67.2188C158.74 68.1562 157.927 68.9479 157.219 69.5938C156.385 70.3438 155.635 70.9896 154.969 71.5312C153.135 72.9896 151.542 73.7188 150.188 73.7188C149.417 73.7188 148.75 73.5104 148.188 73.0938C147.646 72.6979 147.177 72.1771 146.781 71.5312C146.385 70.8854 146.062 70.1562 145.812 69.3438C145.562 68.5312 145.365 67.7188 145.219 66.9062C145.094 66.0729 145 65.2812 144.938 64.5312C144.896 63.7812 144.875 63.1458 144.875 62.625C144.875 61.2292 145.031 59.7188 145.344 58.0938C145.677 56.4688 146.146 54.8542 146.75 53.25C147.375 51.625 148.135 50.0729 149.031 48.5938C149.927 47.0938 150.948 45.7708 152.094 44.625C153.26 43.4583 154.531 42.5312 155.906 41.8438C157.302 41.1562 158.802 40.8125 160.406 40.8125C160.844 40.8125 161.208 40.8958 161.5 41.0625C161.792 41.2083 162.031 41.4167 162.219 41.6875C162.406 41.9583 162.531 42.2604 162.594 42.5938C162.677 42.9271 162.719 43.2708 162.719 43.625C162.719 44.5417 162.51 45.4583 162.094 46.375C161.677 47.2917 161.115 48.1979 160.406 49.0938C159.719 49.9688 158.927 50.8333 158.031 51.6875C157.135 52.5208 156.198 53.3229 155.219 54.0938C154.26 54.8438 153.302 55.5521 152.344 56.2188C151.385 56.8854 150.51 57.4896 149.719 58.0312V58.7188C149.719 59.2396 149.74 59.875 149.781 60.625C149.844 61.3542 149.938 62.125 150.062 62.9375C150.208 63.7292 150.396 64.5208 150.625 65.3125C150.854 66.1042 151.146 66.8125 151.5 67.4375C151.854 68.0625 152.271 68.5729 152.75 68.9688C153.25 69.3438 153.823 69.5312 154.469 69.5312C154.76 69.5312 155.062 69.4896 155.375 69.4062C155.688 69.3021 156 69.1354 156.312 68.9062C156.854 68.4688 157.469 67.8646 158.156 67.0938C158.74 66.4271 159.417 65.5625 160.188 64.5C160.958 63.4375 161.802 62.0938 162.719 60.4688V63.9062ZM156.906 45.4688C156.656 45.1771 156.333 44.9896 155.938 44.9062C155.542 44.8229 155.115 44.8438 154.656 44.9688C154.219 45.0938 153.781 45.3333 153.344 45.6875C152.927 46.0417 152.573 46.5104 152.281 47.0938C151.865 47.9271 151.406 49.125 150.906 50.6875C150.406 52.2292 150.052 54.0104 149.844 56.0312C150.51 55.6354 151.198 55.1771 151.906 54.6562C152.615 54.1354 153.292 53.5833 153.938 53C154.604 52.4167 155.198 51.8125 155.719 51.1875C156.26 50.5417 156.677 49.8958 156.969 49.25C157.281 48.5833 157.448 47.9375 157.469 47.3125C157.49 46.6667 157.302 46.0521 156.906 45.4688ZM180 89.25C179.229 90.0417 178.521 90.7188 177.875 91.2812C177.25 91.8646 176.698 92.3333 176.219 92.6875C175.677 93.1042 175.167 93.4583 174.688 93.75C174.125 94.1042 173.552 94.3646 172.969 94.5312C172.385 94.7188 171.844 94.8333 171.344 94.875C170.844 94.9167 170.406 94.8854 170.031 94.7812C169.677 94.6771 169.438 94.5208 169.312 94.3125C169.167 94.125 169.094 93.5833 169.094 92.6875C169.094 91.8125 169.135 90.7188 169.219 89.4062C169.302 88.1146 169.396 86.6771 169.5 85.0938C169.625 83.5104 169.729 81.9062 169.812 80.2812L170.125 73.375C169.583 73.375 169.062 73.3646 168.562 73.3438C168.062 73.3229 167.583 73.3125 167.125 73.3125C166.667 73.3125 166.271 73.3125 165.938 73.3125C165.625 73.3333 165.385 73.375 165.219 73.4375C166.219 72.7292 167.104 72.0417 167.875 71.375C168.667 70.7083 169.479 70.1667 170.312 69.75C170.375 68.1667 170.438 66.5417 170.5 64.875C170.583 63.2083 170.656 61.5833 170.719 60C170.802 58.3958 170.865 56.875 170.906 55.4375C170.969 53.9792 171.021 52.6875 171.062 51.5625C171.125 50.4167 171.167 49.4688 171.188 48.7188C171.208 47.9479 171.219 47.4479 171.219 47.2188C171.219 46.5729 170.99 46.0208 170.531 45.5625C170.094 45.0833 169.51 44.8438 168.781 44.8438C168.427 44.8438 168.042 44.9167 167.625 45.0625C167.208 45.1875 166.76 45.3958 166.281 45.6875C166.865 45.1458 167.458 44.5833 168.062 44C168.688 43.4167 169.312 42.8958 169.938 42.4375C170.583 41.9583 171.229 41.5729 171.875 41.2812C172.542 40.9688 173.219 40.8125 173.906 40.8125C174.552 40.8125 175.083 41.0208 175.5 41.4375C175.938 41.8542 176.156 42.5625 176.156 43.5625C176.156 44.0833 176.125 45.1667 176.062 46.8125C176.021 48.4375 175.948 50.4271 175.844 52.7812C176.26 51.7604 176.635 50.9062 176.969 50.2188C177.323 49.5104 177.615 48.9375 177.844 48.5C178.115 47.9792 178.344 47.5729 178.531 47.2812C179.177 46.3438 179.885 45.4583 180.656 44.625C181.427 43.7917 182.208 43.0521 183 42.4062C183.792 41.7604 184.583 41.2292 185.375 40.8125C186.167 40.375 186.927 40.0938 187.656 39.9688C188.406 39.8646 189.135 39.9583 189.844 40.25C190.552 40.5208 191.188 41.0104 191.75 41.7188C192.312 42.4271 192.781 43.3542 193.156 44.5C193.531 45.625 193.75 46.9792 193.812 48.5625C193.854 50.3333 193.667 52.1458 193.25 54C192.833 55.8333 192.219 57.6354 191.406 59.4062C190.615 61.1562 189.646 62.8229 188.5 64.4062C187.354 65.9896 186.073 67.4062 184.656 68.6562C183.24 69.8854 181.708 70.9167 180.062 71.75C178.417 72.5625 176.708 73.0833 174.938 73.3125L174.219 89.9062C174.385 89.9896 174.583 90.0729 174.812 90.1562C175 90.2188 175.219 90.2708 175.469 90.3125C175.74 90.375 176.052 90.4062 176.406 90.4062C176.885 90.4062 177.438 90.3229 178.062 90.1562C178.688 90.0104 179.333 89.7083 180 89.25ZM178 69.1562C178.604 69.1562 179.198 69.1458 179.781 69.125C180.365 69.0833 180.906 69.0312 181.406 68.9688C181.927 68.8854 182.396 68.7812 182.812 68.6562C183.229 68.5104 183.573 68.3333 183.844 68.125C184.26 67.8125 184.76 67.2917 185.344 66.5625C185.927 65.8333 186.479 64.9167 187 63.8125C187.542 62.6875 188 61.375 188.375 59.875C188.75 58.375 188.938 56.6875 188.938 54.8125C188.938 54.2292 188.906 53.5312 188.844 52.7188C188.802 51.9062 188.708 51.0729 188.562 50.2188C188.417 49.3646 188.208 48.5417 187.938 47.75C187.667 46.9375 187.312 46.25 186.875 45.6875C186.458 45.1042 185.948 44.6875 185.344 44.4375C184.74 44.1875 184.021 44.1979 183.188 44.4688C182.75 44.6146 182.271 44.9583 181.75 45.5C181.229 46.0208 180.688 46.8125 180.125 47.875C179.583 48.9375 179.031 50.3021 178.469 51.9688C177.927 53.6146 177.427 55.6354 176.969 58.0312C176.823 58.6354 176.656 59.3125 176.469 60.0625C176.302 60.7083 176.115 61.4688 175.906 62.3438C175.719 63.1979 175.521 64.125 175.312 65.125L175.125 69.0938C175.604 69.0938 176.083 69.1042 176.562 69.125C177.042 69.1458 177.521 69.1562 178 69.1562ZM213.938 41.8438C213.833 42.0938 213.594 42.4062 213.219 42.7812C212.906 43.1146 212.438 43.5521 211.812 44.0938C211.208 44.6146 210.354 45.2708 209.25 46.0625C209.271 45.7083 209.219 45.4167 209.094 45.1875C208.99 44.9375 208.854 44.75 208.688 44.625C208.5 44.4792 208.292 44.375 208.062 44.3125C206.729 44.0625 205.677 44.0625 204.906 44.3125C204.719 44.3958 204.573 44.6042 204.469 44.9375C204.385 45.25 204.344 45.6458 204.344 46.125C204.344 47.2708 204.552 48.3021 204.969 49.2188C205.406 50.1146 205.948 50.9583 206.594 51.75C207.24 52.5208 207.938 53.2604 208.688 53.9688C209.438 54.6771 210.135 55.4062 210.781 56.1562C211.427 56.8854 211.958 57.6562 212.375 58.4688C212.812 59.2812 213.031 60.1771 213.031 61.1562C213.031 61.9896 212.854 62.8542 212.5 63.75C212.167 64.625 211.646 65.4271 210.938 66.1562C210.333 66.7812 209.677 67.4271 208.969 68.0938C208.281 68.7604 207.562 69.3958 206.812 70C206.083 70.6042 205.333 71.1562 204.562 71.6562C203.792 72.1562 203.031 72.5625 202.281 72.875C201.01 73.3333 199.792 73.5625 198.625 73.5625C197.833 73.5625 197.146 73.4479 196.562 73.2188C195.979 72.9896 195.625 72.6354 195.5 72.1562C195.396 71.7812 195.51 71.3229 195.844 70.7812C196.177 70.2188 196.594 69.6667 197.094 69.125C197.594 68.5625 198.115 68.0417 198.656 67.5625C199.219 67.0625 199.656 66.6771 199.969 66.4062C199.927 67.4062 200.156 68.125 200.656 68.5625C201.177 68.9792 202 69.2188 203.125 69.2812C203.688 69.3229 204.281 69.2917 204.906 69.1875C205.531 69.0625 206.104 68.8854 206.625 68.6562C207.167 68.4062 207.604 68.0938 207.938 67.7188C208.292 67.3438 208.458 66.9062 208.438 66.4062C208.396 65.2396 208.146 64.1771 207.688 63.2188C207.25 62.2396 206.698 61.3229 206.031 60.4688C205.385 59.5938 204.688 58.75 203.938 57.9375C203.208 57.1042 202.521 56.2604 201.875 55.4062C201.25 54.5521 200.719 53.6458 200.281 52.6875C199.865 51.7292 199.656 50.6875 199.656 49.5625C199.656 49.0833 199.708 48.625 199.812 48.1875C199.917 47.75 200.104 47.3333 200.375 46.9375C200.854 46.2292 201.51 45.4896 202.344 44.7188C203.177 43.9479 204.062 43.2396 205 42.5938C205.938 41.9479 206.865 41.4062 207.781 40.9688C208.698 40.5104 209.49 40.2396 210.156 40.1562C210.802 40.0729 211.375 40.0729 211.875 40.1562C212.396 40.2188 212.823 40.3333 213.156 40.5C213.49 40.6667 213.719 40.875 213.844 41.125C213.99 41.3542 214.021 41.5938 213.938 41.8438ZM233.469 63.2812L232.781 65.8438C232.427 66.1979 231.99 66.6458 231.469 67.1875C230.969 67.7083 230.406 68.2708 229.781 68.875C229.177 69.4583 228.542 70.0417 227.875 70.625C227.208 71.2083 226.552 71.7292 225.906 72.1875C225.26 72.6458 224.635 73 224.031 73.25C223.448 73.5208 222.927 73.625 222.469 73.5625C221.76 73.4583 221.25 72.9479 220.938 72.0312C220.646 71.0938 220.5 69.5833 220.5 67.5C220.5 67.125 220.51 66.5208 220.531 65.6875C220.573 64.8333 220.615 63.8438 220.656 62.7188C220.719 61.5938 220.781 60.3646 220.844 59.0312C220.927 57.6771 221.01 56.3229 221.094 54.9688C221.177 53.5938 221.26 52.25 221.344 50.9375C221.448 49.6042 221.552 48.3854 221.656 47.2812C221.719 46.5521 221.573 46.0312 221.219 45.7188C220.865 45.3854 220.427 45.2188 219.906 45.2188C219.469 45.2188 219.01 45.3229 218.531 45.5312C218.052 45.7396 217.615 46.0208 217.219 46.375C218.052 45.5625 218.792 44.8854 219.438 44.3438C220.083 43.7812 220.635 43.3229 221.094 42.9688C221.635 42.5729 222.094 42.2396 222.469 41.9688C222.99 41.6562 223.49 41.5 223.969 41.5C224.469 41.4792 224.906 41.5938 225.281 41.8438C225.677 42.0938 225.979 42.4583 226.188 42.9375C226.417 43.4167 226.521 43.9896 226.5 44.6562C226.479 45.1146 226.427 45.8542 226.344 46.875C226.281 47.875 226.198 49.0208 226.094 50.3125C226.01 51.6042 225.906 52.9688 225.781 54.4062C225.677 55.8438 225.573 57.2292 225.469 58.5625C225.385 59.8958 225.302 61.1042 225.219 62.1875C225.156 63.2708 225.115 64.1042 225.094 64.6875C225.052 65.875 225.177 66.8333 225.469 67.5625C225.781 68.2917 226.271 68.6562 226.938 68.6562C227.438 68.6562 228.01 68.4375 228.656 68C229.323 67.5625 229.979 67.0521 230.625 66.4688C231.271 65.8854 231.844 65.2917 232.344 64.6875C232.865 64.0833 233.24 63.6146 233.469 63.2812ZM228.156 17.1875C228.198 18.2083 228.167 19.125 228.062 19.9375C227.979 20.7292 227.875 21.4062 227.75 21.9688C227.604 22.6354 227.427 23.2188 227.219 23.7188C226.969 24.2188 226.583 24.7604 226.062 25.3438C225.625 25.8438 225.021 26.4271 224.25 27.0938C223.5 27.7396 222.521 28.4271 221.312 29.1562C221.708 28.3646 222.021 27.5312 222.25 26.6562C222.479 25.7604 222.656 24.9375 222.781 24.1875C222.927 23.3125 223.021 22.4479 223.062 21.5938L228.156 17.1875ZM260.594 69.75C259.49 70.375 258.427 70.8958 257.406 71.3125C256.406 71.7292 255.469 72.0625 254.594 72.3125C253.719 72.5625 252.927 72.7396 252.219 72.8438C251.531 72.9479 250.938 73 250.438 73H245.75L249.156 71.0938C249.51 70.6354 249.854 70.1771 250.188 69.7188C250.521 69.2604 250.802 68.8333 251.031 68.4375C251.302 68 251.552 67.5625 251.781 67.125C252.427 65.8125 253.385 63.6875 254.656 60.75C255.177 59.5 255.792 58.0104 256.5 56.2812C257.229 54.5521 258.062 52.5417 259 50.25C259.938 47.9583 260.979 45.3542 262.125 42.4375C263.271 39.5208 264.552 36.25 265.969 32.625L271.406 27.625L283.656 69.1562C284.531 69.3854 285.365 69.5312 286.156 69.5938C286.969 69.6562 287.729 69.6875 288.438 69.6875C288.812 69.6875 289.156 69.6875 289.469 69.6875C289.781 69.6667 290.052 69.6458 290.281 69.625C290.531 69.6042 290.771 69.5729 291 69.5312C289.792 70.1146 288.74 70.625 287.844 71.0625C286.948 71.4792 286.146 71.8333 285.438 72.125C284.75 72.4167 284.104 72.6354 283.5 72.7812C282.917 72.9271 282.323 73 281.719 73H276.719L278.344 71.9688L273.344 55.4062C272.74 55.5729 272.042 55.7396 271.25 55.9062C270.458 56.0521 269.51 56.1875 268.406 56.3125C267.323 56.4375 266.052 56.5521 264.594 56.6562C263.156 56.7604 261.49 56.8542 259.594 56.9375C258.719 58.7917 257.917 60.4375 257.188 61.875C256.458 63.3125 255.802 64.5625 255.219 65.625C254.635 66.6875 254.115 67.5833 253.656 68.3125C253.219 69.0417 252.844 69.625 252.531 70.0625C252.885 70.125 253.281 70.1771 253.719 70.2188C254.156 70.2396 254.594 70.25 255.031 70.25C255.698 70.25 256.354 70.2292 257 70.1875C257.667 70.125 258.271 70.0625 258.812 70C259.438 69.9167 260.031 69.8333 260.594 69.75ZM264.969 53.2188C267.781 53.2188 270.333 53.1562 272.625 53.0312L267.844 37.1562C266.552 40.4688 265.365 43.4271 264.281 46.0312C263.219 48.6354 262.208 51.0312 261.25 53.2188H264.969ZM312.156 42.8438C311.948 43.0729 311.646 43.375 311.25 43.75C310.896 44.0625 310.406 44.4688 309.781 44.9688C309.177 45.4479 308.375 46.0208 307.375 46.6875C307.625 46.4583 307.76 46.25 307.781 46.0625C307.802 45.875 307.781 45.7083 307.719 45.5625C307.635 45.3958 307.5 45.2396 307.312 45.0938C306.979 44.9062 306.438 44.7604 305.688 44.6562C304.958 44.5312 304.177 44.4688 303.344 44.4688C302.635 44.4688 301.969 44.5208 301.344 44.625C300.719 44.7083 300.208 44.8646 299.812 45.0938C299.438 45.3229 299.031 45.875 298.594 46.75C298.177 47.625 297.792 48.6875 297.438 49.9375C297.083 51.1875 296.792 52.5625 296.562 54.0625C296.333 55.5417 296.219 57.0104 296.219 58.4688C296.219 59.1562 296.25 59.9062 296.312 60.7188C296.396 61.5312 296.521 62.3438 296.688 63.1562C296.854 63.9479 297.083 64.7188 297.375 65.4688C297.667 66.1979 298.031 66.8438 298.469 67.4062C298.906 67.9688 299.417 68.4062 300 68.7188C300.583 69.0312 301.271 69.1562 302.062 69.0938C302.562 69.0104 303.125 68.7917 303.75 68.4375C304.271 68.1458 304.875 67.6979 305.562 67.0938C306.271 66.4688 307.021 65.6042 307.812 64.5L310.438 63.7188C309.333 64.9688 308.344 66.0417 307.469 66.9375C306.594 67.8125 305.854 68.5312 305.25 69.0938C304.542 69.7604 303.906 70.2917 303.344 70.6875C302.656 71.1667 302.01 71.6042 301.406 72C300.802 72.375 300.208 72.6979 299.625 72.9688C299.062 73.2188 298.5 73.3958 297.938 73.5C297.375 73.6042 296.802 73.625 296.219 73.5625C295.719 73.5208 295.177 73.2396 294.594 72.7188C294.031 72.1979 293.5 71.4792 293 70.5625C292.5 69.625 292.083 68.5 291.75 67.1875C291.417 65.875 291.25 64.3958 291.25 62.75C291.25 60.9583 291.417 59.1458 291.75 57.3125C292.104 55.4792 292.625 53.7188 293.312 52.0312C294 50.3229 294.875 48.75 295.938 47.3125C297 45.8542 298.25 44.625 299.688 43.625C300.438 43.1042 301.25 42.6458 302.125 42.25C303.021 41.8542 303.906 41.5312 304.781 41.2812C305.677 41.0312 306.531 40.8542 307.344 40.75C308.177 40.6458 308.906 40.6042 309.531 40.625C310.781 40.6875 311.625 40.9271 312.062 41.3438C312.521 41.7396 312.552 42.2396 312.156 42.8438ZM344.375 64.875C344.188 65.1667 343.927 65.5208 343.594 65.9375C343.26 66.3333 342.927 66.7292 342.594 67.125C342.219 67.5833 341.812 68.0521 341.375 68.5312C340.833 69.1979 340.25 69.8438 339.625 70.4688C339 71.0938 338.375 71.6562 337.75 72.1562C337.146 72.6354 336.552 73.0208 335.969 73.3125C335.385 73.6042 334.865 73.7396 334.406 73.7188C333.531 73.6771 332.927 73.1458 332.594 72.125C332.26 71.0833 332.094 69.5833 332.094 67.625C332.094 66.5833 332.125 65.4583 332.188 64.25C332.25 63.0417 332.344 61.6875 332.469 60.1875C332.01 60.9167 331.573 61.5833 331.156 62.1875C330.74 62.7917 330.365 63.3229 330.031 63.7812C329.656 64.3229 329.281 64.8125 328.906 65.25C327.802 66.6042 326.729 67.8021 325.688 68.8438C324.667 69.8854 323.719 70.7604 322.844 71.4688C321.99 72.1771 321.229 72.7188 320.562 73.0938C319.917 73.4688 319.406 73.6771 319.031 73.7188C318.656 73.7604 318.198 73.6354 317.656 73.3438C317.135 73.0521 316.635 72.4896 316.156 71.6562C315.677 70.8229 315.26 69.6562 314.906 68.1562C314.573 66.6562 314.417 64.7083 314.438 62.3125C314.458 59.9167 314.708 57.8125 315.188 56C315.688 54.1667 316.323 52.5729 317.094 51.2188C317.885 49.8438 318.76 48.6667 319.719 47.6875C320.677 46.6875 321.625 45.8229 322.562 45.0938C324.5 43.6146 326.354 42.4375 328.125 41.5625C329.917 40.6667 331.667 40.1979 333.375 40.1562C333.938 40.1354 334.49 40.1458 335.031 40.1875C335.51 40.2292 336.021 40.3021 336.562 40.4062C337.125 40.4896 337.656 40.625 338.156 40.8125L339.062 40.0938C338.938 40.6771 338.802 41.4688 338.656 42.4688C338.531 43.4688 338.406 44.5938 338.281 45.8438C338.156 47.0938 338.031 48.4271 337.906 49.8438C337.781 51.2604 337.667 52.6875 337.562 54.125C337.479 55.5417 337.396 56.9271 337.312 58.2812C337.229 59.6146 337.156 60.8333 337.094 61.9375C337.052 63.0417 337.021 63.9792 337 64.75C337 65.5208 337.01 66.0521 337.031 66.3438C337.135 67.5312 337.406 68.3438 337.844 68.7812C338.302 69.2188 338.927 69.1771 339.719 68.6562C340.031 68.4062 340.417 68.0104 340.875 67.4688C341.271 67.0104 341.75 66.3854 342.312 65.5938C342.896 64.7812 343.583 63.7292 344.375 62.4375V64.875ZM333.688 44.9688C331.708 44.7188 330.083 44.5938 328.812 44.5938C327.458 44.5938 326.281 44.8125 325.281 45.25C324.281 45.6875 323.427 46.2812 322.719 47.0312C322.01 47.7604 321.427 48.6146 320.969 49.5938C320.51 50.5521 320.146 51.5729 319.875 52.6562C319.625 53.7396 319.448 54.8438 319.344 55.9688C319.26 57.0938 319.219 58.1667 319.219 59.1875C319.219 59.5417 319.24 60.0208 319.281 60.625C319.323 61.2292 319.396 61.875 319.5 62.5625C319.625 63.25 319.771 63.9479 319.938 64.6562C320.125 65.3646 320.354 66.0104 320.625 66.5938C320.917 67.1562 321.25 67.625 321.625 68C322 68.3542 322.438 68.5312 322.938 68.5312C323.479 68.5312 324.135 68.2396 324.906 67.6562C325.698 67.0521 326.646 66.0417 327.75 64.625C328.396 63.75 329.042 62.6979 329.688 61.4688C330.229 60.4271 330.802 59.1458 331.406 57.625C332.031 56.1042 332.583 54.3333 333.062 52.3125L333.688 44.9688ZM355.281 55.6562C355.177 56.8438 355.083 58.1771 355 59.6562C354.917 60.9271 354.823 62.4375 354.719 64.1875C354.615 65.9167 354.5 67.8333 354.375 69.9375L349.125 74.4062C349.583 70.1562 349.979 66.1042 350.312 62.25C350.667 58.3958 350.844 54.5938 350.844 50.8438C350.844 48.9479 350.583 47.5521 350.062 46.6562C349.542 45.7396 348.844 45.2812 347.969 45.2812C347.052 45.2812 345.99 45.75 344.781 46.6875C345.052 46.4375 345.375 46.125 345.75 45.75C346.146 45.3542 346.562 44.9375 347 44.5C347.458 44.0625 347.927 43.625 348.406 43.1875C348.906 42.75 349.385 42.3542 349.844 42C350.323 41.6458 350.781 41.3646 351.219 41.1562C351.656 40.9271 352.042 40.8125 352.375 40.8125C353.188 40.8125 353.812 41.0417 354.25 41.5C354.688 41.9583 355.01 42.5208 355.219 43.1875C355.427 43.8542 355.552 44.5521 355.594 45.2812C355.635 46.0104 355.656 46.6354 355.656 47.1562V48.625C356.76 46.7917 358.062 45.1771 359.562 43.7812C361.083 42.3854 362.854 41.3958 364.875 40.8125C365.312 40.6875 365.74 40.6562 366.156 40.7188C366.573 40.7604 366.99 40.8438 367.406 40.9688C367.823 41.0729 368.26 41.1875 368.719 41.3125C369.198 41.4375 369.708 41.5 370.25 41.5C370.667 41.5 371.104 41.4479 371.562 41.3438C372.021 41.2396 372.542 41.0625 373.125 40.8125C372.521 41.4167 371.927 42.0104 371.344 42.5938C370.76 43.1771 370.177 43.7083 369.594 44.1875C369.031 44.6458 368.469 45.0417 367.906 45.375C367.365 45.6875 366.844 45.875 366.344 45.9375C365.802 46 365.281 45.9688 364.781 45.8438C364.302 45.6979 363.802 45.5521 363.281 45.4062C362.781 45.2396 362.25 45.125 361.688 45.0625C361.125 44.9792 360.521 45.0312 359.875 45.2188C359.438 45.3646 359 45.7708 358.562 46.4375C358.146 47.0833 357.729 47.8958 357.312 48.875C356.917 49.8333 356.542 50.9062 356.188 52.0938C355.854 53.2604 355.552 54.4271 355.281 55.5938V55.6562ZM400.938 64.875C400.75 65.1667 400.49 65.5208 400.156 65.9375C399.823 66.3333 399.49 66.7292 399.156 67.125C398.781 67.5833 398.375 68.0521 397.938 68.5312C397.396 69.1979 396.812 69.8438 396.188 70.4688C395.562 71.0938 394.938 71.6562 394.312 72.1562C393.708 72.6354 393.115 73.0208 392.531 73.3125C391.948 73.6042 391.427 73.7396 390.969 73.7188C390.094 73.6771 389.49 73.1458 389.156 72.125C388.823 71.0833 388.656 69.5833 388.656 67.625C388.656 66.5833 388.688 65.4583 388.75 64.25C388.812 63.0417 388.906 61.6875 389.031 60.1875C388.573 60.9167 388.135 61.5833 387.719 62.1875C387.302 62.7917 386.927 63.3229 386.594 63.7812C386.219 64.3229 385.844 64.8125 385.469 65.25C384.365 66.6042 383.292 67.8021 382.25 68.8438C381.229 69.8854 380.281 70.7604 379.406 71.4688C378.552 72.1771 377.792 72.7188 377.125 73.0938C376.479 73.4688 375.969 73.6771 375.594 73.7188C375.219 73.7604 374.76 73.6354 374.219 73.3438C373.698 73.0521 373.198 72.4896 372.719 71.6562C372.24 70.8229 371.823 69.6562 371.469 68.1562C371.135 66.6562 370.979 64.7083 371 62.3125C371.021 59.9167 371.271 57.8125 371.75 56C372.25 54.1667 372.885 52.5729 373.656 51.2188C374.448 49.8438 375.323 48.6667 376.281 47.6875C377.24 46.6875 378.188 45.8229 379.125 45.0938C381.062 43.6146 382.917 42.4375 384.688 41.5625C386.479 40.6667 388.229 40.1979 389.938 40.1562C390.5 40.1354 391.052 40.1458 391.594 40.1875C392.073 40.2292 392.583 40.3021 393.125 40.4062C393.688 40.4896 394.219 40.625 394.719 40.8125L395.625 40.0938C395.5 40.6771 395.365 41.4688 395.219 42.4688C395.094 43.4688 394.969 44.5938 394.844 45.8438C394.719 47.0938 394.594 48.4271 394.469 49.8438C394.344 51.2604 394.229 52.6875 394.125 54.125C394.042 55.5417 393.958 56.9271 393.875 58.2812C393.792 59.6146 393.719 60.8333 393.656 61.9375C393.615 63.0417 393.583 63.9792 393.562 64.75C393.562 65.5208 393.573 66.0521 393.594 66.3438C393.698 67.5312 393.969 68.3438 394.406 68.7812C394.865 69.2188 395.49 69.1771 396.281 68.6562C396.594 68.4062 396.979 68.0104 397.438 67.4688C397.833 67.0104 398.312 66.3854 398.875 65.5938C399.458 64.7812 400.146 63.7292 400.938 62.4375V64.875ZM390.25 44.9688C388.271 44.7188 386.646 44.5938 385.375 44.5938C384.021 44.5938 382.844 44.8125 381.844 45.25C380.844 45.6875 379.99 46.2812 379.281 47.0312C378.573 47.7604 377.99 48.6146 377.531 49.5938C377.073 50.5521 376.708 51.5729 376.438 52.6562C376.188 53.7396 376.01 54.8438 375.906 55.9688C375.823 57.0938 375.781 58.1667 375.781 59.1875C375.781 59.5417 375.802 60.0208 375.844 60.625C375.885 61.2292 375.958 61.875 376.062 62.5625C376.188 63.25 376.333 63.9479 376.5 64.6562C376.688 65.3646 376.917 66.0104 377.188 66.5938C377.479 67.1562 377.812 67.625 378.188 68C378.562 68.3542 379 68.5312 379.5 68.5312C380.042 68.5312 380.698 68.2396 381.469 67.6562C382.26 67.0521 383.208 66.0417 384.312 64.625C384.958 63.75 385.604 62.6979 386.25 61.4688C386.792 60.4271 387.365 59.1458 387.969 57.625C388.594 56.1042 389.146 54.3333 389.625 52.3125L390.25 44.9688Z" fill="black"/>
</svg>
