<svg width="458" height="98" viewBox="0 0 458 98" fill="none" xmlns="http://www.w3.org/2000/svg">
<rect x="31" y="59" width="398" height="28" fill="#FFB4B4"/>
<path d="M75.4375 48.75C75.4375 51.3958 75 53.8438 74.125 56.0938C73.25 58.3438 72.0938 60.3958 70.6562 62.25C69.2188 64.1042 67.5729 65.75 65.7188 67.1875C63.8854 68.6042 62 69.8021 60.0625 70.7812C58.1458 71.7396 56.2604 72.4688 54.4062 72.9688C52.5521 73.4688 50.8854 73.7188 49.4062 73.7188C48.1562 73.7188 46.8333 73.5208 45.4375 73.125C44.0417 72.75 42.6562 72.1875 41.2812 71.4375C39.9271 70.6667 38.625 69.7188 37.375 68.5938C36.125 67.4479 35.0208 66.1354 34.0625 64.6562C33.125 63.1562 32.375 61.4896 31.8125 59.6562C31.25 57.8021 30.9688 55.7812 30.9688 53.5938C30.9688 50.6771 31.375 48.0104 32.1875 45.5938C33 43.1771 34.0729 41.0104 35.4062 39.0938C36.7604 37.1562 38.2917 35.4688 40 34.0312C41.7292 32.5938 43.4896 31.4062 45.2812 30.4688C47.0938 29.5104 48.875 28.8021 50.625 28.3438C52.375 27.8646 53.9479 27.625 55.3438 27.625C56.8229 27.625 58.3438 27.7812 59.9062 28.0938C61.4688 28.4062 62.9896 28.9062 64.4688 29.5938C65.9688 30.2812 67.375 31.1771 68.6875 32.2812C70.0208 33.3646 71.1875 34.6875 72.1875 36.25C73.1875 37.8125 73.9792 39.6354 74.5625 41.7188C75.1458 43.7812 75.4375 46.125 75.4375 48.75ZM69.75 50.6562C69.75 48.3646 69.4688 46.2917 68.9062 44.4375C68.3438 42.5625 67.5833 40.9062 66.625 39.4688C65.6875 38.0104 64.5938 36.7604 63.3438 35.7188C62.1146 34.6562 60.8229 33.7812 59.4688 33.0938C58.1354 32.4062 56.7812 31.9062 55.4062 31.5938C54.0312 31.2604 52.7292 31.0938 51.5 31.0938C49.5417 31.0938 47.6458 31.4688 45.8125 32.2188C43.9792 32.9479 42.3438 34.1042 40.9062 35.6875C39.4896 37.25 38.3542 39.2708 37.5 41.75C36.6458 44.2292 36.2188 47.1979 36.2188 50.6562C36.2188 52.9688 36.5521 55.0521 37.2188 56.9062C37.8854 58.7396 38.7604 60.3542 39.8438 61.75C40.9271 63.1458 42.1458 64.3438 43.5 65.3438C44.875 66.3438 46.2604 67.1562 47.6562 67.7812C49.0729 68.4062 50.4375 68.8646 51.75 69.1562C53.0833 69.4479 54.2396 69.5938 55.2188 69.5938C56.1979 69.5938 57.2292 69.4479 58.3125 69.1562C59.4167 68.8646 60.5104 68.4062 61.5938 67.7812C62.6771 67.1354 63.7083 66.3125 64.6875 65.3125C65.6667 64.3125 66.5312 63.1146 67.2812 61.7188C68.0312 60.3229 68.625 58.7083 69.0625 56.875C69.5208 55.0417 69.75 52.9688 69.75 50.6562ZM103.438 69.3438L98.25 73.9062C98.6458 69.6146 98.9583 66.0208 99.1875 63.125C99.4167 60.2292 99.5938 57.9062 99.7188 56.1562C99.8646 54.0938 99.9583 52.4792 100 51.3125C100.083 49.9583 100.042 48.8646 99.875 48.0312C99.7083 47.1771 99.4479 46.5208 99.0938 46.0625C98.7604 45.5833 98.3646 45.2604 97.9062 45.0938C97.4688 44.9271 97.0312 44.8438 96.5938 44.8438C96.1354 44.8438 95.7188 44.9271 95.3438 45.0938C94.9896 45.2604 94.6458 45.5208 94.3125 45.875C93.9792 46.2083 93.6458 46.6354 93.3125 47.1562C92.9792 47.6562 92.625 48.25 92.25 48.9375C91.9375 49.5417 91.5938 50.3229 91.2188 51.2812C90.9062 52.0938 90.5417 53.1354 90.125 54.4062C89.7083 55.6771 89.2604 57.2292 88.7812 59.0625V59.625C88.7396 60.625 88.6771 61.6875 88.5938 62.8125C88.5312 63.7708 88.4583 64.8542 88.375 66.0625C88.2917 67.2708 88.1979 68.5 88.0938 69.75L83.1562 74.0938C83.3854 69.0312 83.5833 64.8542 83.75 61.5625C83.9375 58.25 84.0833 55.6354 84.1875 53.7188C84.3125 51.4688 84.4167 49.75 84.5 48.5625C84.5625 47.1667 84.375 46.1771 83.9375 45.5938C83.5 45.0104 82.9583 44.7188 82.3125 44.7188C81.8125 44.7188 81.2708 44.875 80.6875 45.1875C80.125 45.5 79.5833 45.8958 79.0625 46.375C79.5833 45.7917 80.1562 45.1667 80.7812 44.5C81.4271 43.8333 82.1042 43.2188 82.8125 42.6562C83.5208 42.0938 84.2396 41.625 84.9688 41.25C85.7188 40.875 86.4583 40.6875 87.1875 40.6875C87.6458 40.6875 88.0312 40.8125 88.3438 41.0625C88.6771 41.2917 88.9271 41.6771 89.0938 42.2188C89.2396 42.5938 89.3333 43.1458 89.375 43.875C89.4167 44.6042 89.4375 45.4375 89.4375 46.375C89.4375 46.9792 89.4271 47.625 89.4062 48.3125C89.3854 49 89.3542 49.6979 89.3125 50.4062C89.75 49.6771 90.1771 49.0104 90.5938 48.4062C91.0104 47.8021 91.3854 47.2917 91.7188 46.875C92.0938 46.375 92.4583 45.9271 92.8125 45.5312C93.6667 44.6354 94.5521 43.8229 95.4688 43.0938C96.4062 42.3438 97.3125 41.75 98.1875 41.3125C99.0833 40.8542 99.9271 40.5729 100.719 40.4688C101.51 40.3646 102.208 40.5 102.812 40.875C103.229 41.125 103.583 41.4167 103.875 41.75C104.167 42.0833 104.396 42.4792 104.562 42.9375C104.75 43.3958 104.885 43.9479 104.969 44.5938C105.052 45.2188 105.094 45.9583 105.094 46.8125C105.094 47.4583 105.094 48.1042 105.094 48.75C105.094 49.375 105.073 50.0104 105.031 50.6562C105.51 49.9688 105.958 49.3333 106.375 48.75C106.812 48.1667 107.208 47.6562 107.562 47.2188C107.958 46.6979 108.333 46.2292 108.688 45.8125C109.479 44.9167 110.292 44.125 111.125 43.4375C111.979 42.75 112.802 42.1875 113.594 41.75C114.406 41.3125 115.156 41.0104 115.844 40.8438C116.531 40.6562 117.115 40.625 117.594 40.75C118.573 41 119.229 41.7292 119.562 42.9375C119.917 44.125 120.094 45.7396 120.094 47.7812C120.094 49.3438 120.042 50.875 119.938 52.375C119.833 53.875 119.719 55.3542 119.594 56.8125C119.49 58.25 119.385 59.6875 119.281 61.125C119.177 62.5417 119.125 63.9583 119.125 65.375C119.125 66.3542 119.198 67.1354 119.344 67.7188C119.51 68.2812 119.823 68.6146 120.281 68.7188C120.74 68.7604 121.25 68.6354 121.812 68.3438C122.292 68.0938 122.865 67.6667 123.531 67.0625C124.198 66.4375 124.927 65.5104 125.719 64.2812L125.469 66.2188C124.906 66.8438 124.25 67.5938 123.5 68.4688C122.771 69.3438 122 70.1771 121.188 70.9688C120.396 71.7396 119.583 72.3854 118.75 72.9062C117.938 73.4271 117.167 73.6458 116.438 73.5625C115.646 73.4583 115 73.0104 114.5 72.2188C114 71.4062 113.75 70.1354 113.75 68.4062C113.75 66.6562 113.812 64.9271 113.938 63.2188C114.083 61.4896 114.219 59.7812 114.344 58.0938C114.49 56.3854 114.615 54.6875 114.719 53C114.823 51.2917 114.844 49.5938 114.781 47.9062C114.74 46.9062 114.479 46.1875 114 45.75C113.542 45.3125 113.01 45.0938 112.406 45.0938C111.615 45.0938 110.885 45.3958 110.219 46C109.906 46.3125 109.531 46.7708 109.094 47.375C108.656 47.9583 108.188 48.7292 107.688 49.6875C107.208 50.6458 106.698 51.8021 106.156 53.1562C105.635 54.4896 105.115 56.0521 104.594 57.8438C104.427 59.8021 104.229 61.7396 104 63.6562C103.792 65.5521 103.604 67.4479 103.438 69.3438ZM171.281 59.8125C171.281 60.875 170.938 61.9688 170.25 63.0938C169.562 64.2188 168.656 65.3125 167.531 66.375C166.427 67.4167 165.177 68.4062 163.781 69.3438C162.406 70.2812 161.01 71.1146 159.594 71.8438C158.198 72.5521 156.854 73.1146 155.562 73.5312C154.271 73.9688 153.177 74.1979 152.281 74.2188C151.427 74.2604 150.51 74.1875 149.531 74C148.552 73.8125 147.615 73.5729 146.719 73.2812C145.844 73.0104 145.052 72.7188 144.344 72.4062C143.656 72.0729 143.188 71.7812 142.938 71.5312C142.792 71.3646 142.667 71.1875 142.562 71C142.479 70.7917 142.438 70.5729 142.438 70.3438C142.438 70.0938 142.5 69.8438 142.625 69.5938C142.771 69.3229 143 69.0521 143.312 68.7812C143.604 68.5521 143.969 68.2604 144.406 67.9062C144.781 67.6146 145.26 67.2396 145.844 66.7812C146.427 66.3021 147.146 65.7292 148 65.0625C147.688 65.375 147.49 65.6667 147.406 65.9375C147.323 66.2083 147.292 66.4583 147.312 66.6875C147.333 66.9375 147.417 67.1667 147.562 67.375C147.771 67.6458 148.135 67.9479 148.656 68.2812C149.177 68.6146 149.802 68.9271 150.531 69.2188C151.281 69.4896 152.115 69.7188 153.031 69.9062C153.969 70.0938 154.938 70.1875 155.938 70.1875C157.167 70.1875 158.385 70.0729 159.594 69.8438C160.802 69.5938 161.885 69.1875 162.844 68.625C163.823 68.0625 164.604 67.3229 165.188 66.4062C165.792 65.4688 166.094 64.3125 166.094 62.9375C166.094 61.6667 165.792 60.5521 165.188 59.5938C164.604 58.6146 163.833 57.7396 162.875 56.9688C161.917 56.1979 160.812 55.5 159.562 54.875C158.333 54.2292 157.073 53.5938 155.781 52.9688C154.51 52.3438 153.25 51.7083 152 51.0625C150.771 50.4167 149.677 49.6979 148.719 48.9062C147.76 48.0938 146.979 47.1875 146.375 46.1875C145.792 45.1667 145.5 43.9896 145.5 42.6562C145.5 41.3646 145.812 40.1042 146.438 38.875C147.083 37.625 147.927 36.4583 148.969 35.375C150.01 34.2708 151.198 33.25 152.531 32.3125C153.885 31.375 155.271 30.5729 156.688 29.9062C158.104 29.2188 159.49 28.6875 160.844 28.3125C162.219 27.9167 163.458 27.7083 164.562 27.6875C165.625 27.6667 166.646 27.7188 167.625 27.8438C168.604 27.9479 169.427 28.1146 170.094 28.3438C170.76 28.5729 171.219 28.8646 171.469 29.2188C171.719 29.5521 171.656 29.9375 171.281 30.375C170.969 30.7292 170.583 31.1042 170.125 31.5C169.708 31.8542 169.198 32.25 168.594 32.6875C167.99 33.125 167.25 33.5938 166.375 34.0938C166.542 33.8438 166.635 33.625 166.656 33.4375C166.677 33.2292 166.667 33.0625 166.625 32.9375C166.562 32.7917 166.479 32.6667 166.375 32.5625C166.229 32.4375 165.969 32.3021 165.594 32.1562C165.24 32.0104 164.792 31.8646 164.25 31.7188C163.708 31.5729 163.094 31.4583 162.406 31.375C161.719 31.2708 160.99 31.2188 160.219 31.2188C158.969 31.2188 157.76 31.375 156.594 31.6875C155.448 31.9792 154.427 32.4375 153.531 33.0625C152.656 33.6875 151.948 34.4792 151.406 35.4375C150.885 36.3958 150.625 37.5208 150.625 38.8125C150.625 40.2292 150.917 41.4688 151.5 42.5312C152.104 43.5938 152.885 44.5417 153.844 45.375C154.823 46.1875 155.927 46.9271 157.156 47.5938C158.406 48.2604 159.667 48.9062 160.938 49.5312C162.229 50.1354 163.49 50.7604 164.719 51.4062C165.969 52.0521 167.073 52.7708 168.031 53.5625C169.01 54.3542 169.792 55.2604 170.375 56.2812C170.979 57.2812 171.281 58.4583 171.281 59.8125ZM202.312 69.2188L198.031 75.1875C198.073 74.8542 198.094 74.5208 198.094 74.1875C198.094 73.8542 198.094 73.5208 198.094 73.1875C198.094 72.1875 198.052 71.1562 197.969 70.0938C197.885 69.0104 197.771 67.9479 197.625 66.9062C197.479 65.8438 197.323 64.8125 197.156 63.8125C196.99 62.7917 196.812 61.8333 196.625 60.9375C196.188 58.8333 195.698 56.7708 195.156 54.75C195.115 54.5833 195.052 54.3854 194.969 54.1562C194.906 53.9479 194.833 53.7083 194.75 53.4375C194.688 53.1458 194.604 52.8021 194.5 52.4062C193.625 53.8229 192.688 55.2083 191.688 56.5625C190.708 57.9167 189.76 59.2812 188.844 60.6562C187.948 62.0104 187.146 63.3958 186.438 64.8125C185.729 66.2292 185.219 67.6979 184.906 69.2188L180.688 75.1875C180.562 72.5 180.385 69.9479 180.156 67.5312C179.927 65.0938 179.698 62.9271 179.469 61.0312C179.198 58.8229 178.917 56.7708 178.625 54.875C178.438 53.0208 178.208 51.4896 177.938 50.2812C177.688 49.0521 177.406 48.0729 177.094 47.3438C176.781 46.6146 176.448 46.1042 176.094 45.8125C175.74 45.5 175.365 45.3438 174.969 45.3438C174.552 45.3438 174.115 45.4792 173.656 45.75C173.198 46.0208 172.74 46.3333 172.281 46.6875C172.615 46.2917 173.052 45.7708 173.594 45.125C174.156 44.4583 174.75 43.8125 175.375 43.1875C176 42.5625 176.625 42.0208 177.25 41.5625C177.875 41.1042 178.438 40.875 178.938 40.875C179.396 40.875 179.844 41.0521 180.281 41.4062C180.719 41.7396 181.125 42.3125 181.5 43.125C181.812 43.7708 182.135 44.75 182.469 46.0625C182.823 47.375 183.156 48.9688 183.469 50.8438C183.781 52.7188 184.052 54.8438 184.281 57.2188C184.51 59.5729 184.677 62.1042 184.781 64.8125C185.615 63.0625 186.521 61.3854 187.5 59.7812C188.479 58.1771 189.385 56.5625 190.219 54.9375C191.073 53.2917 191.771 51.5833 192.312 49.8125C192.875 48.0417 193.135 46.125 193.094 44.0625L198.469 39.9688C198.365 41.3438 198.385 42.7188 198.531 44.0938C198.677 45.4479 198.896 46.8229 199.188 48.2188C199.479 49.6146 199.802 51.0312 200.156 52.4688C200.531 53.9062 200.875 55.3854 201.188 56.9062C201.521 58.4271 201.792 60 202 61.625C202.229 63.25 202.354 64.9271 202.375 66.6562C202.958 65.7604 203.573 64.8021 204.219 63.7812C204.885 62.7604 205.531 61.7083 206.156 60.625C206.781 59.5417 207.375 58.4583 207.938 57.375C208.521 56.2917 209.021 55.25 209.438 54.25C209.875 53.2292 210.219 52.2708 210.469 51.375C210.74 50.4583 210.875 49.6458 210.875 48.9375C210.875 48.1667 210.771 47.4792 210.562 46.875C210.375 46.25 210.125 45.7396 209.812 45.3438C209.521 44.9271 209.188 44.625 208.812 44.4375C208.458 44.2292 208.125 44.1458 207.812 44.1875L213.625 39.9688C214.208 40.4479 214.635 41.0312 214.906 41.7188C215.177 42.4062 215.312 43.1458 215.312 43.9375C215.312 45.1042 215.073 46.4062 214.594 47.8438C214.115 49.2812 213.49 50.7812 212.719 52.3438C211.948 53.8854 211.083 55.4479 210.125 57.0312C209.167 58.6146 208.208 60.1562 207.25 61.6562C206.292 63.1354 205.375 64.5312 204.5 65.8438C203.625 67.1354 202.896 68.2604 202.312 69.2188ZM247.906 64.875C247.719 65.1667 247.458 65.5208 247.125 65.9375C246.792 66.3333 246.458 66.7292 246.125 67.125C245.75 67.5833 245.344 68.0521 244.906 68.5312C244.365 69.1979 243.781 69.8438 243.156 70.4688C242.531 71.0938 241.906 71.6562 241.281 72.1562C240.677 72.6354 240.083 73.0208 239.5 73.3125C238.917 73.6042 238.396 73.7396 237.938 73.7188C237.062 73.6771 236.458 73.1458 236.125 72.125C235.792 71.0833 235.625 69.5833 235.625 67.625C235.625 66.5833 235.656 65.4583 235.719 64.25C235.781 63.0417 235.875 61.6875 236 60.1875C235.542 60.9167 235.104 61.5833 234.688 62.1875C234.271 62.7917 233.896 63.3229 233.562 63.7812C233.188 64.3229 232.812 64.8125 232.438 65.25C231.333 66.6042 230.26 67.8021 229.219 68.8438C228.198 69.8854 227.25 70.7604 226.375 71.4688C225.521 72.1771 224.76 72.7188 224.094 73.0938C223.448 73.4688 222.938 73.6771 222.562 73.7188C222.188 73.7604 221.729 73.6354 221.188 73.3438C220.667 73.0521 220.167 72.4896 219.688 71.6562C219.208 70.8229 218.792 69.6562 218.438 68.1562C218.104 66.6562 217.948 64.7083 217.969 62.3125C217.99 59.9167 218.24 57.8125 218.719 56C219.219 54.1667 219.854 52.5729 220.625 51.2188C221.417 49.8438 222.292 48.6667 223.25 47.6875C224.208 46.6875 225.156 45.8229 226.094 45.0938C228.031 43.6146 229.885 42.4375 231.656 41.5625C233.448 40.6667 235.198 40.1979 236.906 40.1562C237.469 40.1354 238.021 40.1458 238.562 40.1875C239.042 40.2292 239.552 40.3021 240.094 40.4062C240.656 40.4896 241.188 40.625 241.688 40.8125L242.594 40.0938C242.469 40.6771 242.333 41.4688 242.188 42.4688C242.062 43.4688 241.938 44.5938 241.812 45.8438C241.688 47.0938 241.562 48.4271 241.438 49.8438C241.312 51.2604 241.198 52.6875 241.094 54.125C241.01 55.5417 240.927 56.9271 240.844 58.2812C240.76 59.6146 240.688 60.8333 240.625 61.9375C240.583 63.0417 240.552 63.9792 240.531 64.75C240.531 65.5208 240.542 66.0521 240.562 66.3438C240.667 67.5312 240.938 68.3438 241.375 68.7812C241.833 69.2188 242.458 69.1771 243.25 68.6562C243.562 68.4062 243.948 68.0104 244.406 67.4688C244.802 67.0104 245.281 66.3854 245.844 65.5938C246.427 64.7812 247.115 63.7292 247.906 62.4375V64.875ZM237.219 44.9688C235.24 44.7188 233.615 44.5938 232.344 44.5938C230.99 44.5938 229.812 44.8125 228.812 45.25C227.812 45.6875 226.958 46.2812 226.25 47.0312C225.542 47.7604 224.958 48.6146 224.5 49.5938C224.042 50.5521 223.677 51.5729 223.406 52.6562C223.156 53.7396 222.979 54.8438 222.875 55.9688C222.792 57.0938 222.75 58.1667 222.75 59.1875C222.75 59.5417 222.771 60.0208 222.812 60.625C222.854 61.2292 222.927 61.875 223.031 62.5625C223.156 63.25 223.302 63.9479 223.469 64.6562C223.656 65.3646 223.885 66.0104 224.156 66.5938C224.448 67.1562 224.781 67.625 225.156 68C225.531 68.3542 225.969 68.5312 226.469 68.5312C227.01 68.5312 227.667 68.2396 228.438 67.6562C229.229 67.0521 230.177 66.0417 231.281 64.625C231.927 63.75 232.573 62.6979 233.219 61.4688C233.76 60.4271 234.333 59.1458 234.938 57.625C235.562 56.1042 236.115 54.3333 236.594 52.3125L237.219 44.9688ZM265.844 41.8438C265.74 42.0938 265.5 42.4062 265.125 42.7812C264.812 43.1146 264.344 43.5521 263.719 44.0938C263.115 44.6146 262.26 45.2708 261.156 46.0625C261.177 45.7083 261.125 45.4167 261 45.1875C260.896 44.9375 260.76 44.75 260.594 44.625C260.406 44.4792 260.198 44.375 259.969 44.3125C258.635 44.0625 257.583 44.0625 256.812 44.3125C256.625 44.3958 256.479 44.6042 256.375 44.9375C256.292 45.25 256.25 45.6458 256.25 46.125C256.25 47.2708 256.458 48.3021 256.875 49.2188C257.312 50.1146 257.854 50.9583 258.5 51.75C259.146 52.5208 259.844 53.2604 260.594 53.9688C261.344 54.6771 262.042 55.4062 262.688 56.1562C263.333 56.8854 263.865 57.6562 264.281 58.4688C264.719 59.2812 264.938 60.1771 264.938 61.1562C264.938 61.9896 264.76 62.8542 264.406 63.75C264.073 64.625 263.552 65.4271 262.844 66.1562C262.24 66.7812 261.583 67.4271 260.875 68.0938C260.188 68.7604 259.469 69.3958 258.719 70C257.99 70.6042 257.24 71.1562 256.469 71.6562C255.698 72.1562 254.938 72.5625 254.188 72.875C252.917 73.3333 251.698 73.5625 250.531 73.5625C249.74 73.5625 249.052 73.4479 248.469 73.2188C247.885 72.9896 247.531 72.6354 247.406 72.1562C247.302 71.7812 247.417 71.3229 247.75 70.7812C248.083 70.2188 248.5 69.6667 249 69.125C249.5 68.5625 250.021 68.0417 250.562 67.5625C251.125 67.0625 251.562 66.6771 251.875 66.4062C251.833 67.4062 252.062 68.125 252.562 68.5625C253.083 68.9792 253.906 69.2188 255.031 69.2812C255.594 69.3229 256.188 69.2917 256.812 69.1875C257.438 69.0625 258.01 68.8854 258.531 68.6562C259.073 68.4062 259.51 68.0938 259.844 67.7188C260.198 67.3438 260.365 66.9062 260.344 66.4062C260.302 65.2396 260.052 64.1771 259.594 63.2188C259.156 62.2396 258.604 61.3229 257.938 60.4688C257.292 59.5938 256.594 58.75 255.844 57.9375C255.115 57.1042 254.427 56.2604 253.781 55.4062C253.156 54.5521 252.625 53.6458 252.188 52.6875C251.771 51.7292 251.562 50.6875 251.562 49.5625C251.562 49.0833 251.615 48.625 251.719 48.1875C251.823 47.75 252.01 47.3333 252.281 46.9375C252.76 46.2292 253.417 45.4896 254.25 44.7188C255.083 43.9479 255.969 43.2396 256.906 42.5938C257.844 41.9479 258.771 41.4062 259.688 40.9688C260.604 40.5104 261.396 40.2396 262.062 40.1562C262.708 40.0729 263.281 40.0729 263.781 40.1562C264.302 40.2188 264.729 40.3333 265.062 40.5C265.396 40.6667 265.625 40.875 265.75 41.125C265.896 41.3542 265.927 41.5938 265.844 41.8438ZM288.531 62.625L287.875 65.8438C287.396 66.2396 286.833 66.7396 286.188 67.3438C285.562 67.9271 284.875 68.5417 284.125 69.1875C283.396 69.8333 282.635 70.4688 281.844 71.0938C281.052 71.6979 280.26 72.2188 279.469 72.6562C278.677 73.0729 277.896 73.3646 277.125 73.5312C276.375 73.7188 275.677 73.6875 275.031 73.4375C274.615 73.2917 274.25 73.0729 273.938 72.7812C273.646 72.4896 273.396 72.0729 273.188 71.5312C273 70.9896 272.854 70.3021 272.75 69.4688C272.646 68.6146 272.594 67.5729 272.594 66.3438C272.594 62.6354 272.667 59.0417 272.812 55.5625C272.979 52.0625 273.177 48.5938 273.406 45.1562C272.531 45.2188 271.667 45.3333 270.812 45.5C269.979 45.6458 269.333 45.8958 268.875 46.25C270.188 45.0833 271.219 44.0104 271.969 43.0312C272.719 42.0312 273.292 41.1458 273.688 40.375L274.062 34.6562L279.438 30.1875L278.781 41.375C279.24 41.4167 279.667 41.4375 280.062 41.4375C280.458 41.4375 280.844 41.4375 281.219 41.4375C283.031 41.4375 284.708 41.2812 286.25 40.9688C287.812 40.6354 289.312 40.1979 290.75 39.6562C289.417 40.7188 288.135 41.5833 286.906 42.25C285.698 42.9167 284.573 43.4583 283.531 43.875C282.49 44.2708 281.542 44.5625 280.688 44.75C279.833 44.9167 279.115 45.0312 278.531 45.0938C278.323 48.8438 278.156 51.8854 278.031 54.2188C277.927 56.5312 277.844 58.3229 277.781 59.5938C277.698 61.0938 277.656 62.1875 277.656 62.875C277.594 63.8958 277.656 64.8021 277.844 65.5938C278.031 66.3854 278.312 67.0417 278.688 67.5625C279.083 68.0833 279.552 68.4479 280.094 68.6562C280.656 68.8646 281.271 68.8854 281.938 68.7188C282.458 68.5521 283.062 68.2188 283.75 67.7188C284.333 67.3021 285.021 66.6979 285.812 65.9062C286.625 65.0938 287.531 64 288.531 62.625ZM268.875 46.25L268.688 46.375L268.875 46.25ZM318.344 41.125C318.031 44.1875 317.74 47.1875 317.469 50.125C317.198 53.0417 316.958 55.9375 316.75 58.8125C316.562 61.6667 316.406 64.5104 316.281 67.3438C316.177 70.1771 316.125 73.0208 316.125 75.875C316.125 77.4583 316.094 78.8646 316.031 80.0938C315.969 81.3229 315.823 82.2604 315.594 82.9062C315.219 84.0729 314.604 85.2188 313.75 86.3438C312.896 87.4896 311.885 88.5729 310.719 89.5938C309.573 90.6146 308.312 91.5521 306.938 92.4062C305.583 93.2812 304.198 94.0208 302.781 94.625C301.365 95.25 299.969 95.7292 298.594 96.0625C297.219 96.3958 295.958 96.5417 294.812 96.5C293.833 96.4792 292.927 96.3229 292.094 96.0312C291.26 95.7604 290.583 95.4062 290.062 94.9688C289.562 94.5312 289.25 94.0417 289.125 93.5C289 92.9792 289.167 92.4792 289.625 92C289.979 91.6458 290.427 91.25 290.969 90.8125C291.427 90.4583 291.99 90.0312 292.656 89.5312C293.323 89.0312 294.125 88.5104 295.062 87.9688C294.667 88.3854 294.448 88.7708 294.406 89.125C294.365 89.4792 294.396 89.7812 294.5 90.0312C294.604 90.3229 294.792 90.5938 295.062 90.8438C295.583 91.2396 296.375 91.6042 297.438 91.9375C298.521 92.2917 299.708 92.4688 301 92.4688C302.604 92.4688 304 92.2083 305.188 91.6875C306.396 91.1875 307.417 90.4896 308.25 89.5938C309.083 88.6979 309.719 87.6354 310.156 86.4062C310.615 85.1771 310.896 83.8438 311 82.4062C311.125 80.8438 311.198 79.1562 311.219 77.3438C311.24 75.5312 311.25 73.6562 311.25 71.7188C311.25 70.3021 311.25 68.9167 311.25 67.5625C311.25 66.2083 311.271 64.8854 311.312 63.5938C310.958 64.0521 310.625 64.4688 310.312 64.8438C310 65.1979 309.719 65.5104 309.469 65.7812C309.177 66.0938 308.896 66.3854 308.625 66.6562C306.021 69.1146 303.771 70.9375 301.875 72.125C299.979 73.3125 298.323 73.7917 296.906 73.5625C295.74 73.3333 294.896 72.5833 294.375 71.3125C293.854 70.0417 293.594 68.4062 293.594 66.4062C293.594 65.4896 293.615 64.4688 293.656 63.3438C293.719 62.1979 293.792 61.0208 293.875 59.8125C293.958 58.6042 294.042 57.3958 294.125 56.1875C294.229 54.9792 294.323 53.8333 294.406 52.75C294.51 51.6667 294.594 50.6875 294.656 49.8125C294.74 48.9375 294.792 48.2188 294.812 47.6562C294.854 46.7812 294.708 46.1146 294.375 45.6562C294.062 45.1979 293.604 44.9688 293 44.9688C292.229 44.9688 291.167 45.3958 289.812 46.25C290.312 45.7917 290.875 45.2812 291.5 44.7188C292.125 44.1562 292.771 43.625 293.438 43.125C294.125 42.625 294.823 42.2083 295.531 41.875C296.24 41.5417 296.938 41.375 297.625 41.375C298.292 41.375 298.823 41.6562 299.219 42.2188C299.635 42.7604 299.844 43.6562 299.844 44.9062C299.844 45.5521 299.823 46.3854 299.781 47.4062C299.74 48.4271 299.677 49.5417 299.594 50.75C299.531 51.9375 299.448 53.1771 299.344 54.4688C299.26 55.7396 299.177 56.9792 299.094 58.1875C299.031 59.3958 298.969 60.5208 298.906 61.5625C298.844 62.5833 298.802 63.4271 298.781 64.0938C298.76 64.8646 298.823 65.5833 298.969 66.25C299.135 66.8958 299.365 67.4583 299.656 67.9375C299.969 68.4167 300.333 68.7917 300.75 69.0625C301.188 69.3333 301.656 69.4688 302.156 69.4688C302.802 69.4688 303.469 69.2604 304.156 68.8438C304.781 68.4271 305.417 67.9167 306.062 67.3125C306.708 66.6875 307.344 65.9479 307.969 65.0938C308.615 64.2188 309.24 63.2188 309.844 62.0938C310.448 60.9479 311.021 59.6562 311.562 58.2188C311.688 55.8229 311.865 53.5312 312.094 51.3438C312.323 49.1562 312.594 46.9688 312.906 44.7812L318.344 41.125ZM353.844 64.875C353.656 65.1667 353.396 65.5208 353.062 65.9375C352.729 66.3333 352.396 66.7292 352.062 67.125C351.688 67.5833 351.281 68.0521 350.844 68.5312C350.302 69.1979 349.719 69.8438 349.094 70.4688C348.469 71.0938 347.844 71.6562 347.219 72.1562C346.615 72.6354 346.021 73.0208 345.438 73.3125C344.854 73.6042 344.333 73.7396 343.875 73.7188C343 73.6771 342.396 73.1458 342.062 72.125C341.729 71.0833 341.562 69.5833 341.562 67.625C341.562 66.5833 341.594 65.4583 341.656 64.25C341.719 63.0417 341.812 61.6875 341.938 60.1875C341.479 60.9167 341.042 61.5833 340.625 62.1875C340.208 62.7917 339.833 63.3229 339.5 63.7812C339.125 64.3229 338.75 64.8125 338.375 65.25C337.271 66.6042 336.198 67.8021 335.156 68.8438C334.135 69.8854 333.188 70.7604 332.312 71.4688C331.458 72.1771 330.698 72.7188 330.031 73.0938C329.385 73.4688 328.875 73.6771 328.5 73.7188C328.125 73.7604 327.667 73.6354 327.125 73.3438C326.604 73.0521 326.104 72.4896 325.625 71.6562C325.146 70.8229 324.729 69.6562 324.375 68.1562C324.042 66.6562 323.885 64.7083 323.906 62.3125C323.927 59.9167 324.177 57.8125 324.656 56C325.156 54.1667 325.792 52.5729 326.562 51.2188C327.354 49.8438 328.229 48.6667 329.188 47.6875C330.146 46.6875 331.094 45.8229 332.031 45.0938C333.969 43.6146 335.823 42.4375 337.594 41.5625C339.385 40.6667 341.135 40.1979 342.844 40.1562C343.406 40.1354 343.958 40.1458 344.5 40.1875C344.979 40.2292 345.49 40.3021 346.031 40.4062C346.594 40.4896 347.125 40.625 347.625 40.8125L348.531 40.0938C348.406 40.6771 348.271 41.4688 348.125 42.4688C348 43.4688 347.875 44.5938 347.75 45.8438C347.625 47.0938 347.5 48.4271 347.375 49.8438C347.25 51.2604 347.135 52.6875 347.031 54.125C346.948 55.5417 346.865 56.9271 346.781 58.2812C346.698 59.6146 346.625 60.8333 346.562 61.9375C346.521 63.0417 346.49 63.9792 346.469 64.75C346.469 65.5208 346.479 66.0521 346.5 66.3438C346.604 67.5312 346.875 68.3438 347.312 68.7812C347.771 69.2188 348.396 69.1771 349.188 68.6562C349.5 68.4062 349.885 68.0104 350.344 67.4688C350.74 67.0104 351.219 66.3854 351.781 65.5938C352.365 64.7812 353.052 63.7292 353.844 62.4375V64.875ZM343.156 44.9688C341.177 44.7188 339.552 44.5938 338.281 44.5938C336.927 44.5938 335.75 44.8125 334.75 45.25C333.75 45.6875 332.896 46.2812 332.188 47.0312C331.479 47.7604 330.896 48.6146 330.438 49.5938C329.979 50.5521 329.615 51.5729 329.344 52.6562C329.094 53.7396 328.917 54.8438 328.812 55.9688C328.729 57.0938 328.688 58.1667 328.688 59.1875C328.688 59.5417 328.708 60.0208 328.75 60.625C328.792 61.2292 328.865 61.875 328.969 62.5625C329.094 63.25 329.24 63.9479 329.406 64.6562C329.594 65.3646 329.823 66.0104 330.094 66.5938C330.385 67.1562 330.719 67.625 331.094 68C331.469 68.3542 331.906 68.5312 332.406 68.5312C332.948 68.5312 333.604 68.2396 334.375 67.6562C335.167 67.0521 336.115 66.0417 337.219 64.625C337.865 63.75 338.51 62.6979 339.156 61.4688C339.698 60.4271 340.271 59.1458 340.875 57.625C341.5 56.1042 342.052 54.3333 342.531 52.3125L343.156 44.9688ZM371.781 41.8438C371.677 42.0938 371.438 42.4062 371.062 42.7812C370.75 43.1146 370.281 43.5521 369.656 44.0938C369.052 44.6146 368.198 45.2708 367.094 46.0625C367.115 45.7083 367.062 45.4167 366.938 45.1875C366.833 44.9375 366.698 44.75 366.531 44.625C366.344 44.4792 366.135 44.375 365.906 44.3125C364.573 44.0625 363.521 44.0625 362.75 44.3125C362.562 44.3958 362.417 44.6042 362.312 44.9375C362.229 45.25 362.188 45.6458 362.188 46.125C362.188 47.2708 362.396 48.3021 362.812 49.2188C363.25 50.1146 363.792 50.9583 364.438 51.75C365.083 52.5208 365.781 53.2604 366.531 53.9688C367.281 54.6771 367.979 55.4062 368.625 56.1562C369.271 56.8854 369.802 57.6562 370.219 58.4688C370.656 59.2812 370.875 60.1771 370.875 61.1562C370.875 61.9896 370.698 62.8542 370.344 63.75C370.01 64.625 369.49 65.4271 368.781 66.1562C368.177 66.7812 367.521 67.4271 366.812 68.0938C366.125 68.7604 365.406 69.3958 364.656 70C363.927 70.6042 363.177 71.1562 362.406 71.6562C361.635 72.1562 360.875 72.5625 360.125 72.875C358.854 73.3333 357.635 73.5625 356.469 73.5625C355.677 73.5625 354.99 73.4479 354.406 73.2188C353.823 72.9896 353.469 72.6354 353.344 72.1562C353.24 71.7812 353.354 71.3229 353.688 70.7812C354.021 70.2188 354.438 69.6667 354.938 69.125C355.438 68.5625 355.958 68.0417 356.5 67.5625C357.062 67.0625 357.5 66.6771 357.812 66.4062C357.771 67.4062 358 68.125 358.5 68.5625C359.021 68.9792 359.844 69.2188 360.969 69.2812C361.531 69.3229 362.125 69.2917 362.75 69.1875C363.375 69.0625 363.948 68.8854 364.469 68.6562C365.01 68.4062 365.448 68.0938 365.781 67.7188C366.135 67.3438 366.302 66.9062 366.281 66.4062C366.24 65.2396 365.99 64.1771 365.531 63.2188C365.094 62.2396 364.542 61.3229 363.875 60.4688C363.229 59.5938 362.531 58.75 361.781 57.9375C361.052 57.1042 360.365 56.2604 359.719 55.4062C359.094 54.5521 358.562 53.6458 358.125 52.6875C357.708 51.7292 357.5 50.6875 357.5 49.5625C357.5 49.0833 357.552 48.625 357.656 48.1875C357.76 47.75 357.948 47.3333 358.219 46.9375C358.698 46.2292 359.354 45.4896 360.188 44.7188C361.021 43.9479 361.906 43.2396 362.844 42.5938C363.781 41.9479 364.708 41.4062 365.625 40.9688C366.542 40.5104 367.333 40.2396 368 40.1562C368.646 40.0729 369.219 40.0729 369.719 40.1562C370.24 40.2188 370.667 40.3333 371 40.5C371.333 40.6667 371.562 40.875 371.688 41.125C371.833 41.3542 371.865 41.5938 371.781 41.8438ZM394.469 62.625L393.812 65.8438C393.333 66.2396 392.771 66.7396 392.125 67.3438C391.5 67.9271 390.812 68.5417 390.062 69.1875C389.333 69.8333 388.573 70.4688 387.781 71.0938C386.99 71.6979 386.198 72.2188 385.406 72.6562C384.615 73.0729 383.833 73.3646 383.062 73.5312C382.312 73.7188 381.615 73.6875 380.969 73.4375C380.552 73.2917 380.188 73.0729 379.875 72.7812C379.583 72.4896 379.333 72.0729 379.125 71.5312C378.938 70.9896 378.792 70.3021 378.688 69.4688C378.583 68.6146 378.531 67.5729 378.531 66.3438C378.531 62.6354 378.604 59.0417 378.75 55.5625C378.917 52.0625 379.115 48.5938 379.344 45.1562C378.469 45.2188 377.604 45.3333 376.75 45.5C375.917 45.6458 375.271 45.8958 374.812 46.25C376.125 45.0833 377.156 44.0104 377.906 43.0312C378.656 42.0312 379.229 41.1458 379.625 40.375L380 34.6562L385.375 30.1875L384.719 41.375C385.177 41.4167 385.604 41.4375 386 41.4375C386.396 41.4375 386.781 41.4375 387.156 41.4375C388.969 41.4375 390.646 41.2812 392.188 40.9688C393.75 40.6354 395.25 40.1979 396.688 39.6562C395.354 40.7188 394.073 41.5833 392.844 42.25C391.635 42.9167 390.51 43.4583 389.469 43.875C388.427 44.2708 387.479 44.5625 386.625 44.75C385.771 44.9167 385.052 45.0312 384.469 45.0938C384.26 48.8438 384.094 51.8854 383.969 54.2188C383.865 56.5312 383.781 58.3229 383.719 59.5938C383.635 61.0938 383.594 62.1875 383.594 62.875C383.531 63.8958 383.594 64.8021 383.781 65.5938C383.969 66.3854 384.25 67.0417 384.625 67.5625C385.021 68.0833 385.49 68.4479 386.031 68.6562C386.594 68.8646 387.208 68.8854 387.875 68.7188C388.396 68.5521 389 68.2188 389.688 67.7188C390.271 67.3021 390.958 66.6979 391.75 65.9062C392.562 65.0938 393.469 64 394.469 62.625ZM374.812 46.25L374.625 46.375L374.812 46.25ZM431.406 64.9375C430.406 65.8125 429.583 66.5521 428.938 67.1562C428.292 67.7396 427.76 68.2083 427.344 68.5625C426.865 68.9792 426.49 69.3229 426.219 69.5938C425.906 69.9062 425.479 70.3021 424.938 70.7812C424.417 71.2396 423.844 71.6875 423.219 72.125C422.615 72.5625 421.99 72.9271 421.344 73.2188C420.719 73.5312 420.146 73.6667 419.625 73.625C418.771 73.5833 418.146 72.8333 417.75 71.375C417.375 69.8958 417.188 67.8958 417.188 65.375V62.375C416.458 63.3542 415.76 64.2396 415.094 65.0312C414.448 65.8021 413.875 66.4583 413.375 67C412.792 67.6458 412.25 68.2188 411.75 68.7188C410.708 69.7396 409.74 70.5938 408.844 71.2812C407.948 71.9479 407.125 72.4688 406.375 72.8438C405.625 73.2188 404.958 73.4583 404.375 73.5625C403.792 73.6875 403.281 73.7083 402.844 73.625C402.427 73.5417 402.042 73.3438 401.688 73.0312C401.333 72.7188 401.031 72.2292 400.781 71.5625C400.531 70.8958 400.333 70.0312 400.188 68.9688C400.062 67.8854 400.01 66.5417 400.031 64.9375C400.052 63.3333 400.094 61.7396 400.156 60.1562C400.24 58.5521 400.312 57.0312 400.375 55.5938C400.458 54.1562 400.542 52.8438 400.625 51.6562C400.729 50.4479 400.812 49.4375 400.875 48.625C400.938 47.5833 400.823 46.75 400.531 46.125C400.26 45.4792 399.771 45.1562 399.062 45.1562C398.646 45.1562 398.177 45.2812 397.656 45.5312C397.135 45.7604 396.542 46.1458 395.875 46.6875C396.375 46.2083 396.958 45.6354 397.625 44.9688C398.292 44.2812 398.99 43.625 399.719 43C400.469 42.375 401.219 41.8438 401.969 41.4062C402.719 40.9688 403.417 40.75 404.062 40.75C404.562 40.75 404.938 40.8854 405.188 41.1562C405.458 41.4062 405.646 41.7188 405.75 42.0938C405.875 42.4688 405.938 42.875 405.938 43.3125C405.958 43.7292 405.969 44.0938 405.969 44.4062C405.969 45.9062 405.917 47.3958 405.812 48.875C405.708 50.3333 405.594 51.7917 405.469 53.25C405.344 54.6875 405.229 56.125 405.125 57.5625C405.021 59 404.969 60.4375 404.969 61.875C404.969 62.875 405.01 63.8438 405.094 64.7812C405.198 65.6979 405.375 66.5 405.625 67.1875C405.875 67.875 406.208 68.4167 406.625 68.8125C407.062 69.1875 407.615 69.3438 408.281 69.2812C409.156 69.1979 410.021 68.8333 410.875 68.1875C411.75 67.5417 412.573 66.7083 413.344 65.6875C414.115 64.6458 414.812 63.4688 415.438 62.1562C416.062 60.8438 416.562 59.4896 416.938 58.0938C416.979 57.9271 417.031 57.7292 417.094 57.5C417.135 57.3125 417.188 57.1042 417.25 56.875C417.333 56.6458 417.417 56.3854 417.5 56.0938C417.625 54.0729 417.792 52.0833 418 50.125C418.229 48.1667 418.49 46.2083 418.781 44.25L424.875 39.9062C424.104 43.7188 423.49 47.375 423.031 50.875C422.594 54.375 422.375 57.8646 422.375 61.3438C422.375 62.9896 422.448 64.3229 422.594 65.3438C422.76 66.3646 422.979 67.1458 423.25 67.6875C423.542 68.2292 423.885 68.5625 424.281 68.6875C424.677 68.8125 425.104 68.8021 425.562 68.6562C425.979 68.4688 426.469 68.1146 427.031 67.5938C427.51 67.1562 428.115 66.5208 428.844 65.6875C429.573 64.8542 430.427 63.7292 431.406 62.3125V64.9375ZM395.875 46.6875L395.688 46.8125L395.875 46.6875Z" fill="black"/>
</svg>
