<svg width="1277" height="767" viewBox="0 0 1277 767" fill="none" xmlns="http://www.w3.org/2000/svg">
<path d="M72.9526 191.252C-61.0247 56.1553 10.9631 202.132 -207 247.467V767H1760.67C1763.83 607.12 1763.37 260.16 1736.17 151.357C1702.18 15.3539 1589.7 -6.40664 1449.72 106.93C1309.74 220.266 1022.79 247.467 870.318 106.93C717.843 -33.6074 477.884 123.25 378.401 247.467C278.918 371.684 206.93 326.349 72.9526 191.252Z" fill="#A42929" fill-opacity="0.41"/>
<path d="M-54.0474 164.546C-188.025 23.183 -116.037 175.931 -334 223.369V767H1633.67C1636.83 599.704 1636.37 236.651 1609.17 122.801C1575.18 -19.511 1462.7 -42.2809 1322.72 76.3126C1182.74 194.906 895.792 223.368 743.318 76.3126C590.843 -70.7433 350.884 93.39 251.401 223.369C151.918 353.347 79.9299 305.909 -54.0474 164.546Z" fill="#A42929" fill-opacity="0.41"/>
<path d="M268.91 164.546C130.646 23.183 204.937 175.931 -20 223.369V767H2010.62C2013.89 599.704 2013.41 236.651 1985.34 122.801C1950.26 -19.511 1834.18 -42.2809 1689.73 76.3126C1545.27 194.906 1249.14 223.368 1091.79 76.3126C934.435 -70.7433 686.797 93.39 584.131 223.369C481.465 353.347 407.174 305.909 268.91 164.546Z" fill="#A42929" fill-opacity="0.41"/>
<path d="M-844.284 249.377C-1045.15 127.919 -937.221 259.159 -1264 299.916V767H1686C1690.75 623.261 1690.05 311.328 1649.28 213.51C1598.31 91.2363 1429.68 71.6726 1219.82 173.567C1009.96 275.462 579.751 299.916 351.156 173.567C122.561 47.2179 -237.196 188.24 -386.345 299.916C-535.494 411.593 -643.42 370.835 -844.284 249.377Z" fill="#A42929" fill-opacity="0.3"/>
<path d="M-428.284 249.377C-629.148 127.919 -521.221 259.159 -848 299.916V767H2102C2106.75 623.261 2106.05 311.328 2065.28 213.51C2014.31 91.2363 1845.68 71.6726 1635.82 173.567C1425.96 275.462 995.751 299.916 767.156 173.567C538.561 47.2179 178.804 188.24 29.6553 299.916C-119.494 411.593 -227.42 370.835 -428.284 249.377Z" fill="#A42929" fill-opacity="0.3"/>
</svg>
